<?xml version="1.0" encoding="UTF-8"?>
<svg id="Layer_1" data-name="Layer 1" xmlns="http://www.w3.org/2000/svg" viewBox="0 0 463.36 339.34">
  <defs>
    <style>
      .cls-1 {
        fill: #1f1e28;
      }

      .cls-1, .cls-2, .cls-3, .cls-4, .cls-5, .cls-6, .cls-7, .cls-8, .cls-9, .cls-10, .cls-11, .cls-12, .cls-13, .cls-14, .cls-15 {
        stroke-width: 0px;
      }

      .cls-2 {
        fill: #e3e3e3;
      }

      .cls-3 {
        fill: #ffb8b8;
      }

      .cls-4 {
        fill: #ed9894;
      }

      .cls-5 {
        fill: #3f3d56;
      }

      .cls-6 {
        fill: #bfc4bf;
      }

      .cls-7 {
        fill: #f2f4f2;
      }

      .cls-8 {
        fill: #2e333d;
      }

      .cls-9 {
        fill: #000b29;
      }

      .cls-10 {
        fill: #8a8e8a;
      }

      .cls-11 {
        fill: #748475;
      }

      .cls-12 {
        fill: #404059;
      }

      .cls-13 {
        fill: #849185;
      }

      .cls-14 {
        fill: #fff;
      }

      .cls-15 {
        fill: #18315b;
      }
    </style>
  </defs>
  <g>
    <path class="cls-7" d="M201.07,72.77C185.44,16.08,115.02-2.18,74.66,40.19c-.58.61-1.16,1.23-1.74,1.86-57.86,62.9-30.53,217.89,90.22,257.17,120.75,39.28,246.35-32.45,253.4-96.58,7.06-64.13-48.65-84.28-135.1-66.35-48.84,10.13-70.65-28.23-80.38-63.52h.01Z"/>
    <path class="cls-7" d="M301.51,82.47c-16.16,2.63-20.63,16.94-8.16,27.1,4.12,3.36,10.01,6.15,18.4,7.54,31.95,5.3,48.91-8.84,36.1-27.17-7.9-11.31-30.33-10.07-46.34-7.47Z"/>
    <path class="cls-7" d="M43.91,197.02c-10.04-12.92-24.75-10-27.7,5.81-.97,5.23-.6,11.73,2.19,19.76,10.64,30.59,31.17,38.71,41.14,18.69,6.15-12.36-5.68-31.45-15.63-44.26Z"/>
    <path class="cls-7" d="M427.94,210.09c-1.49,7.79,4.95,13.31,12.23,10.31,2.41-.99,4.84-2.9,7-6.27,8.24-12.81,4.07-23.8-7.4-22.67-7.08.7-10.36,10.92-11.83,18.64h0Z"/>
    <path class="cls-7" d="M387.1,127.87c7.77,1.62,13.39-4.72,10.51-12.06-.95-2.43-2.82-4.89-6.15-7.11-12.67-8.45-23.73-4.47-22.8,7.02.58,7.09,10.74,10.54,18.43,12.15h0Z"/>
    <path class="cls-7" d="M198.37,44.5c6.15,5.01,14.06,1.98,14.88-5.87.27-2.59-.26-5.64-2.19-9.14-7.36-13.34-19.01-14.89-23.47-4.26-2.75,6.56,4.68,14.3,10.77,19.27h0Z"/>
  </g>
  <g>
    <path class="cls-11" d="M447.19,249.07c12.33-12.39,21.72-26.4,12.38-28.58-9.35-2.19-25.05,22.22-27.79,44.44l-2.74,7.33c2.28-16.16-3.26-35.84-11.36-36.65-8.05-.81-3.18,11.96,3.22,22.88,4.87,8.31,6.15,14.87,6.47,18.25l-12.93,34.64c3.53-25.6-5.24-56.65-18.06-57.93-12.78-1.28-5.04,18.98,5.11,36.3,7.67,13.09,9.73,23.44,10.26,28.85l-2.58,6.91c1.13.64,2.26,1.26,3.39,1.88l15.39-41.22c2.97-2.22,7.48-4.89,13.89-7.07,11.99-4.05,24.03-10.5,17.42-15.17-5.74-4.05-19.23,3.75-28.52,14.75l5.32-14.25c2.4-4.13,5.81-10.03,11.13-15.38v.02Z"/>
    <path class="cls-11" d="M58.55,87.37c1.6-14.97.35-29.44-7.1-25.87-7.46,3.57-4.84,28.43,5.29,44.82l2.11,6.4c-7.18-12.08-21.51-22.31-27.39-18.49-5.84,3.8,4.31,9.74,14.49,13.63,7.75,2.96,12.15,6.67,14.19,8.77l9.99,30.24c-11.43-19.09-34.05-35.22-43.36-29.17-9.27,6.03,6.84,15.46,23,21.62,12.21,4.66,19.18,10.5,22.44,13.85l1.99,6.03c1.1-.18,2.2-.37,3.29-.56l-11.89-35.97c.8-3.09,2.38-7.32,5.52-12.23,5.86-9.18,10.48-20.01,3.52-19.58-6.04.37-10.89,12.88-11.2,25.28l-4.11-12.44c-.61-4.07-1.5-9.87-.81-16.33h.03Z"/>
    <g>
      <path class="cls-6" d="M363.96,290.24c.16.85.34,1.77.55,2.76h0c2.22,10.32,7.67,27.22,19.93,30.54,0,0-6.67-34.8,17.11-43.87,23.79-9.07,21.16-17.7,19.8-33.06s-6.62-18.29,9.89-32.68c16.51-14.39,13.35-35.83,13.35-35.83,0,0-15.62,24.47-32.31,25.04s-19.61,14.81-18.9,25.4c.71,10.59-13.46,11.79-21.13,17.93-7.67,6.14-9.11,38.41-9.11,38.41,0,0,.21,2.11.8,5.35h.02Z"/>
      <path class="cls-6" d="M363.96,290.24c.16.85.34,1.77.55,2.76,1.71-5.18,4.12-9.53,6.37-12.87,5.34-7.91,12.85-14.4,19.61-16.95,10.76-4.05,16.02-14.61,17.04-34.23.59-11.39,12.5-18.11,12.62-18.18.35-.19.48-.63.28-.98-.19-.35-.63-.48-.98-.28-.52.29-12.74,7.17-13.37,19.37-.98,18.96-5.95,29.13-16.1,32.95-7.13,2.69-14.72,9.23-20.3,17.49-1.97,2.92-4.06,6.6-5.72,10.92h0Z"/>
    </g>
    <g>
      <path class="cls-6" d="M100.64,323.35h16.72c-9.03-1.49-31.43-11.11-33.43-30.39-2.53-24.42-11.22-24.11-25.88-26.67-14.65-2.55-18.69,1.62-27.99-17.34-9.3-18.96-30.06-21.35-30.06-21.35,0,0,18.92,20.64,15.3,36.33s8.92,21.95,18.97,23.92c10.05,1.97,7.64,15.47,11.46,24.14,1.74,3.96,8.87,8.06,16.11,11.35h38.8Z"/>
      <path class="cls-11" d="M64.43,299.31c.73,7.31,4.93,16.01,11.25,23.26.22.26.45.51.69.77h1.9c-.54-.57-1.06-1.14-1.54-1.69-6.04-6.94-10.22-15.55-10.92-22.49-1.1-11.04-9.63-18.56-27.65-24.38-10.46-3.38-13.77-16.15-13.8-16.28-.09-.37-.47-.6-.84-.51s-.6.47-.51.84c.14.56,3.51,13.65,14.72,17.27,17.42,5.63,25.66,12.79,26.7,23.2h0Z"/>
    </g>
    <g>
      <path class="cls-6" d="M109.65,278.03c-.35,1.19-.75,2.48-1.21,3.85h0c-4.75,14.39-14.5,38.61-32.51,41.47,0,0,14.25-49.58-18.29-66.17s-27.47-28.5-23.16-50.2c4.3-21.71,12.25-25.08-9.08-48.15-21.34-23.07-13.54-53.16-13.54-53.16,0,0,18.52,37.32,42.24,40.69,23.72,3.38,25.69,24.15,23.05,39.15s17.39,18.89,27.38,28.83,7.1,56.19,7.1,56.19c0,0-.63,2.98-1.97,7.5h-.01Z"/>
      <path class="cls-6" d="M109.65,278.03c-.35,1.19-.75,2.48-1.21,3.85-1.64-7.65-4.41-14.23-7.11-19.33-6.4-12.1-16.12-22.52-25.37-27.2-14.73-7.44-20.6-23.31-19.04-51.45.91-16.33-15.05-27.76-15.22-27.87-.47-.33-.58-.98-.25-1.44.33-.47.98-.58,1.44-.26.7.49,17.07,12.19,16.09,29.68-1.51,27.2,4.01,42.47,17.9,49.49,9.76,4.93,19.58,15.42,26.27,28.07,2.36,4.47,4.78,10.04,6.48,16.45h.02Z"/>
    </g>
  </g>
  <g>
    <path class="cls-15" d="M122.56,311.69c.05,3.77.12,7.69.21,11.66h36.36c.07-4.34.12-8.51.16-12.41.11-10.58.12-19.29.11-24.7,0-3.84-.02-6.02-.02-6.02l-37.08-.39s0,3.2.03,8.44c.02,5.82.09,14.16.23,23.42Z"/>
    <path class="cls-9" d="M122.34,288.27c.02,5.82.09,14.16.23,23.42,11.42.87,23.94.88,36.73-.75.11-10.58.12-19.29.11-24.7l-37.07,2.03Z"/>
  </g>
  <g>
    <path class="cls-15" d="M76.74,303.33c.04,5.93.11,12.72.23,20.02h36.36c.09-4.28.16-8.5.22-12.54.13-8.67.19-16.47.22-22.07.03-5.52.03-8.91.03-8.91l-37.09.39s-.03,3.93-.02,10.55c0,3.5.02,7.74.05,12.56h0Z"/>
    <path class="cls-9" d="M76.69,290.77c0,3.5.02,7.74.05,12.56,7.38,2.18,20.6,5.56,36.81,7.48.13-8.67.19-16.47.22-22.07l-37.09,2.03h0Z"/>
  </g>
  <g>
    <path class="cls-15" d="M137.65,84.75s5.84-5.63,5.82-11.18c-.02-5.56-3.8-3.91-5.82-9.09-2.03-5.18-8.05-8.34-11.35-7.7s-10.28-12.25-19.74-9.98-8.64,14.4-12.71,16.17-2.94,8.97-.79,10.61,3.06,8.24,4.26,8.09c1.21-.15,40.32,3.09,40.32,3.09h.01Z"/>
    <g>
      <path class="cls-3" d="M98.32,84.62s-3.67-4.9-6.4-.85c-2.73,4.05,1.13,16.01,7.82,13.09l-1.41-12.24h0Z"/>
      <path class="cls-4" d="M98.27,93.17c-.25,0-.47-.16-.54-.41-1.04-3.69-4.86-5.19-4.9-5.21-.29-.11-.44-.44-.33-.73s.44-.44.73-.33c.18.07,4.39,1.7,5.59,5.96.08.3-.09.61-.39.7-.05,0-.1.02-.15.02h0Z"/>
      <path class="cls-4" d="M94.41,91.3c-.11,0-.21-.03-.31-.09-.26-.17-.34-.52-.17-.78.03-.04.71-1.08,2.12-1.71.28-.13.62,0,.75.29s0,.62-.29.75c-1.1.49-1.63,1.28-1.63,1.29-.11.17-.29.26-.48.26h0Z"/>
    </g>
    <g>
      <path class="cls-3" d="M136.18,84.62s3.67-4.9,6.4-.85c2.73,4.05-1.13,16.01-7.82,13.09l1.41-12.24h.01Z"/>
      <path class="cls-4" d="M136.23,93.17c.25,0,.47-.16.54-.41,1.04-3.69,4.86-5.19,4.9-5.21.29-.11.44-.44.33-.73s-.44-.44-.73-.33c-.18.07-4.4,1.7-5.59,5.96-.08.3.09.61.39.7.05,0,.1.02.15.02h.01Z"/>
      <path class="cls-4" d="M140.09,91.3c.1,0,.21-.03.3-.09.26-.17.34-.52.17-.78-.03-.04-.71-1.08-2.12-1.71-.28-.13-.62,0-.75.29s0,.62.29.75c1.1.49,1.63,1.28,1.63,1.29.11.17.29.26.48.26h0Z"/>
    </g>
    <path class="cls-3" d="M126.29,107.01v11.9s-3.55,6.06-8.35,6.47c-4.79.42-9.05-5.22-9.05-5.22v-12.31l17.4-.84h0Z"/>
    <path class="cls-3" d="M126.29,107.01v5.28c-3.22,3.57-8.94,4.46-17.4,3.22v-7.66l17.4-.84Z"/>
    <path class="cls-3" d="M138.83,76.46c-.22,4.62-.66,10.4-1.54,15.03-.22,1.15-.47,2.24-.75,3.21-2.5,8.76-8.76,23.8-26.3,17.54-7.74-2.76-11.33-11.39-12.93-20.16-1.08-5.96-1.25-11.98-1.17-16.28.08-4.39,2.48-8.4,6.3-10.57,10.35-5.87,21.27-3.68,28.46-.92,4.99,1.92,8.18,6.82,7.93,12.15Z"/>
    <path class="cls-15" d="M97.32,92.07s1.7,10.13,3.31,13.83c1.61,3.69,6,4.39,7.65,7.51,2.35,4.45,5.94,7.98,11.83,5.83,4.9-1.79,4.68-4.3,7.43-6.24,4.71-3.32,7.04-6.98,7.23-10.01s2.53-11.51,2.53-11.51l-2.53-.18s-1.44,2.98-3.56,6.27c-2.13-4.67-12.37-1.27-12.37-1.27l-1.96.63-2.01-.63s-10.36-3.25-12.41,1.64c-1.25-1.92-2.27-4.07-2.74-6.36l-2.41.49h.01ZM116.89,98.51c11.75-2.02,9.65,4.86,9.57,5.11h0c-.8.77-1.61,1.4-2.41,1.84-4.55,2.46-5.04,2.09-6.84,2.17-1.83.09-4.35-.46-6.9-1.88-.8-.45-1.99-1.31-3.29-2.5,0,0-1.84-6.31,9.88-4.73h0Z"/>
    <path class="cls-15" d="M109.83,86.17c0,1.27-.65,2.3-1.46,2.3s-1.46-1.03-1.46-2.3.65-2.3,1.46-2.3,1.46,1.03,1.46,2.3Z"/>
    <path class="cls-15" d="M127.21,86.17c0,1.27-.65,2.3-1.46,2.3s-1.46-1.03-1.46-2.3.65-2.3,1.46-2.3,1.46,1.03,1.46,2.3Z"/>
    <path class="cls-15" d="M131.5,78.6s-6.04-2.39-10.69-.38l.46,2.59s6.83-.58,10.27.82c.31-1,.35-2-.04-3.02h0Z"/>
    <path class="cls-15" d="M102.78,78.61s6.08-2.4,10.77-.38l-.47,2.61s-6.88-.58-10.34.82c-.31-1-.36-2.02.04-3.05Z"/>
    <path class="cls-3" d="M117.45,95.81c.95,0,1.9-.37,2.05-.43.29-.12.43-.45.31-.74-.12-.29-.45-.43-.74-.31-.51.21-1.74.53-2.27.21-.1-.06-.24-.18-.28-.53-.2-1.97.34-8.59.34-8.65.03-.31-.21-.58-.52-.61s-.58.21-.61.52c-.02.28-.55,6.79-.34,8.86.08.78.49,1.18.82,1.38.36.21.79.29,1.23.29h.01Z"/>
    <path class="cls-14" d="M110.24,99.64c.43,2.16,1.86,6.13,6.66,6.13s6.17-3.63,6.63-6.13h-13.29Z"/>
    <path class="cls-15" d="M138.83,76.46c-.22,4.62-.66,10.4-1.54,15.03l-2.53-.18s.61-3.9.9-6.45c.28-2.54.76-7.3-1.41-7.89-2.16-.59-.89-6.01-3.91-8.36-3.01-2.36-9.7-4.43-14.15-1.7-4.44,2.73-9.5,1.22-11.54,1.7-2.05.47-4.83,3.29-4.08,5.93.76,2.63-1.5,4.24-2.05,6.97s1.2,10.08,1.2,10.08l-2.41.49c-1.08-5.96-1.25-11.98-1.17-16.28.08-4.39,2.48-8.4,6.3-10.57,10.35-5.87,21.27-3.68,28.45-.92,4.99,1.92,8.18,6.82,7.93,12.15h.01Z"/>
  </g>
  <g>
    <path class="cls-5" d="M167.07,298.09c-11.43,2.9-22.87,4.77-34.31,5.63-.52.04-1.03.08-1.55.11-1.57.11-3.15.19-4.72.26-7.78.33-15.57.2-23.35-.4-1.57-.12-3.14-.26-4.71-.42-.5-.05-1-.1-1.51-.16-9.29-1.01-18.59-2.69-27.89-5.03-.09-8.57.01-35.66.54-65.04.06-3.53.13-7.1.21-10.66.82-38.72,2.41-78.03,5.28-81.96,2.74-3.77,11.01-8.56,18.91-12.88.47-.26.94-.51,1.41-.77,1.78-.96,3.51-1.9,5.15-2.79,3.5-1.9,6.52-3.6,8.39-4.91v1.08s4.25,5.63,9.05,5.21c4.37-.38,7.7-5.42,8.26-6.33,2.06,1.45,5.76,3.45,10.06,5.72,1.2.63,2.43,1.28,3.69,1.95.46.24.93.49,1.4.74,8.74,4.63,18.16,9.86,20.99,13.74.21.29.41.77.6,1.43,1.67,5.67,2.71,24.47,3.34,47.24v.25c.03.92.05,1.85.07,2.78v.37c.21,7.99.36,16.39.48,24.84,0,.67.02,1.34.03,2.01v1.01c.03,1.66.04,3.33.06,4.98.02,1.22.03,2.44.04,3.67.32,30.54.19,59.34.06,68.32h.02Z"/>
    <path class="cls-5" d="M162.46,140.58s17.24,31.59,27.76,47.61c0,0,5.98-5.49,13.75-12.84,8.43-7.97,19.96-21.28,19.96-21.28l6.38,7.57s-25.9,46.62-37.52,52.47c-11.62,5.86-33.03-35.61-33.03-35.61l2.7-37.92h0Z"/>
    <g>
      <path class="cls-14" d="M100.51,123.99c.33,2.51.82,5.77,1.36,9.47.16,1.1.33,2.24.49,3.41.54,3.82,1.1,7.98,1.58,12.19.13,1.13.25,2.26.36,3.39.42,4.16.74,8.3.85,12.15.04,1.16.05,2.3.05,3.4,0,2.94-.17,5.63-.53,7.94-.23,1.46-.43,2.88-.61,4.28-.15,1.16-.28,2.29-.4,3.41-.46,4.34-.68,8.38-.75,12.18-.02,1.16-.02,2.29-.01,3.4.03,4.32.28,8.35.64,12.18.11,1.15.22,2.28.35,3.39.47,4.19,1.03,8.18,1.57,12.12.15,1.13.31,2.25.46,3.38.23,1.8.45,3.61.64,5.42.2,1.92.33,4.17.39,6.67.03,1.09.04,2.23.05,3.41.01,3.73-.08,7.87-.25,12.19-.04,1.13-.1,2.27-.15,3.43-.19,4.02-.45,8.15-.73,12.22-.08,1.15-.17,2.29-.25,3.42-.32,4.24-.66,8.38-1.02,12.22-.11,1.17-.21,2.31-.32,3.41-.41,4.23-.8,7.99-1.14,11,7.79.6,15.57.73,23.35.39.18-3.19.68-8.35,1.17-14.41.09-1.11.18-2.25.26-3.42.29-3.86.56-7.98.73-12.14.05-1.14.09-2.29.12-3.42.12-4.15.12-8.28-.06-12.15-.05-1.17-.12-2.32-.21-3.44-.09-1.14-.2-2.26-.33-3.33-.38-3.04-.52-5.96-.5-8.84,0-1.14.03-2.28.09-3.42.18-3.96.61-7.92,1.11-12.13.13-1.12.27-2.26.41-3.41.45-3.74.92-7.71,1.29-12.06.1-1.11.19-2.25.27-3.42.26-3.73.43-7.73.46-12.1,0-1.12,0-2.27,0-3.45-.04-3.78-.2-7.82-.51-12.17-.03-.39-.05-.78-.08-1.17-.06-.76-.11-1.53-.14-2.3-.2-3.97-.15-8.05.08-12.13.06-1.14.14-2.29.22-3.43.31-4.08.77-8.12,1.3-11.99.15-1.15.32-2.29.49-3.41.64-4.24,1.32-8.24,1.95-11.81.21-1.17.41-2.3.6-3.38.43-2.41.8-4.56,1.07-6.38-4.29-2.27-7.99-4.27-10.06-5.72-.57.91-3.89,5.95-8.26,6.33-4.79.42-9.05-5.21-9.05-5.21v-1.08c-1.87,1.3-4.89,3-8.39,4.9v.02Z"/>
      <g>
        <path class="cls-2" d="M101.87,133.46c.16,1.1.33,2.24.49,3.41,4.3.1,9.35-.55,15.44-1.95,6.52-1.5,12.26-1.24,16.8-.4.21-1.17.41-2.3.6-3.38-4.91-.91-11.1-1.17-18.16.46-6.01,1.38-11.01,2.02-15.16,1.86h0Z"/>
        <path class="cls-2" d="M103.94,149.06c.13,1.13.25,2.26.36,3.39,3.86-.1,8.3-.75,13.49-1.95,5.39-1.24,10.26-1.27,14.36-.76.15-1.15.32-2.29.49-3.41-4.44-.55-9.73-.5-15.61.85-5.04,1.16-9.38,1.8-13.09,1.88h0Z"/>
        <path class="cls-2" d="M105.16,164.6c.04,1.16.05,2.3.05,3.4,3.65-.17,7.8-.81,12.59-1.91,4.74-1.09,9.07-1.25,12.83-.92.06-1.14.14-2.29.22-3.43-4.05-.33-8.71-.14-13.82,1.03-4.5,1.04-8.43,1.66-11.87,1.83Z"/>
        <path class="cls-2" d="M103.67,183.63c4.01-.05,8.65-.7,14.12-1.96,4.8-1.11,9.18-1.25,12.98-.91-.03-.39-.05-.78-.08-1.17-.06-.76-.11-1.53-.14-2.3-3.98-.3-8.54-.1-13.52,1.06-4.98,1.15-9.27,1.78-12.96,1.87-.15,1.16-.28,2.29-.4,3.41h0Z"/>
        <path class="cls-2" d="M102.91,199.22c4.18.03,9.06-.61,14.88-1.96,5.03-1.16,9.59-1.27,13.5-.87,0-1.12,0-2.27,0-3.45-4.15-.38-8.96-.22-14.25,1-5.5,1.27-10.17,1.91-14.11,1.88-.02,1.16-.02,2.29-.01,3.4Z"/>
        <path class="cls-2" d="M103.55,211.4c.11,1.15.22,2.28.35,3.39,3.96-.06,8.52-.71,13.9-1.95,4.72-1.09,9.03-1.25,12.77-.94.1-1.11.19-2.25.27-3.42-4.05-.33-8.7-.14-13.81,1.03-5.21,1.2-9.68,1.84-13.48,1.88h0Z"/>
        <path class="cls-2" d="M105.46,226.92c.15,1.13.31,2.25.46,3.38,3.47-.22,7.39-.84,11.88-1.87,4.02-.93,7.74-1.18,11.07-1.05.13-1.12.27-2.26.41-3.41-3.67-.17-7.79.11-12.25,1.14-4.37,1.01-8.2,1.62-11.57,1.82h0Z"/>
        <path class="cls-2" d="M106.95,242.39c.03,1.09.04,2.23.05,3.41,3.2-.27,6.78-.86,10.8-1.8,3.54-.82,6.86-1.11,9.87-1.08,0-1.14.03-2.28.09-3.42-3.27-.03-6.87.29-10.72,1.18-3.73.86-7.08,1.43-10.08,1.7h0Z"/>
        <path class="cls-2" d="M106.59,261.42c3.3-.25,7.01-.86,11.2-1.83,3.95-.91,7.62-1.17,10.92-1.04-.05-1.17-.12-2.32-.21-3.44-3.47-.1-7.32.2-11.47,1.16-3.82.88-7.24,1.46-10.29,1.72-.05,1.13-.09,2.27-.15,3.43h0Z"/>
        <path class="cls-2" d="M105.61,277.07c3.55-.2,7.57-.83,12.19-1.89,3.93-.91,7.58-1.17,10.85-1.05.05-1.14.09-2.29.12-3.42-3.54-.12-7.48.17-11.74,1.16-4.19.97-7.9,1.57-11.17,1.79-.08,1.15-.17,2.29-.25,3.42h0Z"/>
        <path class="cls-2" d="M104.27,292.71c3.87-.1,8.32-.75,13.52-1.95,3.54-.82,6.85-1.11,9.85-1.08.09-1.11.18-2.25.26-3.42-3.32-.05-6.97.27-10.89,1.17-4.75,1.1-8.87,1.72-12.44,1.86-.11,1.17-.21,2.31-.32,3.41h.02Z"/>
      </g>
    </g>
  </g>
  <g>
    <path class="cls-3" d="M69.94,153.29s-15.44,51.48-19.26,69.82c-3.82,18.35-4.12,56.48-4.12,56.48,0,0-6.75,14.01-6.91,20.24-.17,6.65,3.32,11.93,2.92,16.28s4.9,1.99,3.4-6.82,2.75-16.79,4.58-16.53-1.52,9.62.11,12.99,3.73-3.18,5.82-7.16c2.17-4.13,2.05-13.14,1.06-19.57-.99-6.43,10.67-45.5,10.73-56.82l14.76-49.89s-4.88-20.83-13.1-19.04v.02Z"/>
    <path class="cls-5" d="M84.93,171.08c-.52,3.31-2.35,8.99-4.72,16.13h0c-.2.61-.41,1.22-.61,1.85-.01.03-.02.06-.03.09-.59,1.78-1.21,3.64-1.85,5.56,0,.01,0,.02-.01.03-2.62,7.95-5.52,17.04-7.95,26.39-.84,3.2-1.62,6.43-2.31,9.65-.89,4.11-1.64,8.21-2.19,12.22-1.97,14.45-5.75,32.76-5.75,32.76-5.54,2.27-14.19-.73-14.19-.73,0,0-.22-26.37,1.01-36.61,1.53-12.67,3.47-21.68,5.88-32.04,6.63-28.49,18.3-56.36,21.5-63.76.25-.59.46-1.05.6-1.37h2.75c5.42,3.45,9.27,20.91,7.85,29.82h.02Z"/>
    <path class="cls-1" d="M44.88,269.76l.43,6.07s8.23,2.67,14.4.79l1.63-5.41c-5.94.31-11.43.17-16.46-1.45Z"/>
    <path class="cls-11" d="M80.21,187.21h0c0,.09-.01.18-.04.26-.19.51-.38,1.04-.57,1.58-.01.03-.02.06-.03.09-.61,1.72-1.22,3.59-1.85,5.56,0,.01,0,.02-.01.03-3.22,10.24-6.5,23.14-8.01,31.37.01-1.66.03-3.32.06-4.98-.84,3.2-1.62,6.43-2.31,9.65.31-3.02,1.18-7.54,2.35-12.67,2.38-10.37,6.03-23.22,8.93-31.15.14-.39.58-.6.97-.45.31.11.5.4.5.71h.01Z"/>
  </g>
  <g>
    <g>
      <path class="cls-15" d="M356.35,323.35h36.46c-.12-2.53-.24-4.95-.36-7.24-.64-12.49-1.18-20.99-1.18-20.99l-29.65,1.32-2.46.11-4.36.2s.42,7.6,1.08,18.74c.14,2.46.3,5.1.47,7.87h0Z"/>
      <path class="cls-9" d="M359.17,296.55l-4.36.2s.42,7.6,1.08,18.74c11.39.95,23.83,1.34,36.58.62-.64-12.49-1.18-20.99-1.18-20.99l-29.65,1.32-2.46.11h-.01Z"/>
      <path class="cls-9" d="M363.14,323.35c-.67-11.56-1.21-21.43-1.51-26.91l-2.46.11c.3,5.46.84,15.29,1.51,26.8h2.46Z"/>
    </g>
    <g>
      <path class="cls-15" d="M345.65,323.35c.19-3.13.36-6.1.52-8.84.63-10.61,1.02-17.77,1.02-17.77l-4.73-.21-2.45-.11-29.29-1.3s-.32,5.07-.76,13.12c-.23,4.29-.5,9.44-.77,15.11h36.46Z"/>
      <path class="cls-9" d="M309.96,308.24c7.95,1.87,20.77,4.49,36.22,6.27.63-10.61,1.02-17.77,1.02-17.77l-4.73-.21-2.45-.11-29.29-1.3s-.32,5.07-.76,13.12h0Z"/>
      <path class="cls-9" d="M340.96,323.35c.67-11.53,1.21-21.36,1.51-26.82l-2.45-.11c-.3,5.48-.85,15.36-1.51,26.93h2.46,0Z"/>
    </g>
    <path class="cls-12" d="M396.58,300.8c-7.43,2.04-14.86,3.59-22.28,4.62-2.58.36-5.16.67-7.74.9-3.48.32-6.96.54-10.44.65-5.75.18-11.51.05-17.26-.38-11.13-.81-22.25-2.76-33.38-5.8-.1-10.38.05-47.59.83-83.48.04-1.61.07-3.22.11-4.82,0-.34.02-.68.02-1.02,0-.37.02-.74.03-1.11.02-1.14.05-2.27.08-3.4.06-2.31.12-4.59.18-6.86.04-1.35.08-2.7.12-4.03,0-.28.02-.55.02-.83.03-.88.05-1.75.08-2.62h0c.01-.27.02-.54.03-.81.02-.8.05-1.6.08-2.39.02-.67.05-1.34.07-2,.86-24.21,2.12-43.31,3.93-46,3.06-4.56,13.48-10.62,21.86-15.56,2.99-1.75,6.55-3.58,8.59-4.93,2.98,2.4,5.14,4.56,9.55,4.41,4.94-.17,6.15-3.14,8.04-5.68,1.15.75,4.07,3.14,5.58,4.03,1.3.77,2.7,1.58,4.17,2.42,2.27,1.3,4.68,2.68,7.07,4.08,3.54,2.08,7.03,4.23,9.93,6.29,2.89,2.05,5.19,4.02,6.32,5.72,1.64,2.46,2.7,18.39,3.38,39.35.03.73.05,1.48.08,2.23v.27c.03.76.05,1.54.07,2.32.07,2.36.13,4.77.2,7.22.01.52.02,1.04.03,1.56.01.39.02.78.02,1.17.02,1.01.05,2.02.07,3.04,0,.2,0,.41.01.61.06,2.69.11,5.42.16,8.17.02.8.03,1.61.04,2.42.62,37.74.48,79.09.33,90.24h.02Z"/>
    <g>
      <path class="cls-3" d="M412.59,151.36s24.55-7.89,31.82-24.01c2.1-4.67-15.21-52.05-15.21-52.05l-8.36.4s2.38,16.44,3.83,25.75c1.19,7.65,3.11,16.8,3.75,19.81.14.65.22,1.02.22,1.02-.41.07-.82.15-1.24.23-11.47,2.33-26.12,9.8-26.12,9.8l11.31,19.04h0Z"/>
      <path class="cls-3" d="M434.8,126.83c.35.25.85.18,1.1-.17.26-.36.18-.85-.17-1.1-1.79-1.3-4.48-2.82-7.31-4.29.14.65.22,1.02.22,1.02-.41.07-.82.15-1.24.23,2.88,1.48,5.64,3.02,7.41,4.31h-.01Z"/>
      <path class="cls-13" d="M375.02,129.69s-7.43,17.43,11.48,27.13c13.09,6.72,42.9-10.82,42.9-10.82l-10.63-22.57s-27.27,11.25-43.75,6.25h0Z"/>
      <path class="cls-3" d="M424.92,48.67c-.74.52-.59,3.72-.26,6.74-.1,0-.21.03-.32.05-.88-4.02-2.63-10.87-4.12-9.56-.98.85.33,6.76,1.23,10.29-.18.06-.37.12-.55.18-1.13-4.19-3.56-12.26-5.17-10.69-1.08,1.05.99,8.15,2.14,11.78-.16.06-.32.12-.47.18-1.1-3.52-3.45-10.17-5.06-8.61-1.46,1.41,2.72,11.47,2.72,11.47h0l1.1,3.95s-1.3.56-3.33-1.74-4.46-2.7-2.77.62c1.91,3.76,4.73,6.45,5.97,9.11s5.15,3.54,5.15,3.54l7.85-.38s1.52-13.26-1.4-19.59h0c-.5-3.76-1.39-8.24-2.67-7.34h-.04Z"/>
    </g>
    <g>
      <path class="cls-15" d="M327.83,79.26c0,13.37,8.23,22.58,21.59,22.58s22.68-9.9,22.68-23.27c0-3.69-.6-7.13-1.76-10.17-.07-.18-.14-.36-.21-.54-.14-.35-.29-.69-.45-1.03-.23-.52-.49-1.02-.77-1.51-3.48-6.26-9.72-10.24-18.1-10.24-16.03,0-22.99,10.82-22.99,24.18h.01Z"/>
      <g>
        <path class="cls-3" d="M330.83,85.02s-3.71-4.95-6.47-.86,1.14,16.19,7.9,13.23l-1.43-12.38h0Z"/>
        <path class="cls-4" d="M330.78,93.66c-.25,0-.48-.16-.55-.42-1.05-3.73-4.92-5.25-4.95-5.26-.29-.11-.44-.44-.33-.74s.44-.44.74-.33c.18.07,4.44,1.72,5.65,6.02.08.3-.09.62-.4.7-.05.02-.1.02-.15.02h-.01Z"/>
        <path class="cls-4" d="M326.88,91.78c-.11,0-.21-.03-.31-.09-.27-.17-.34-.52-.17-.79.03-.04.71-1.09,2.14-1.73.29-.13.63,0,.76.29s0,.63-.29.75c-1.11.49-1.64,1.3-1.65,1.3-.11.17-.29.26-.48.26h0Z"/>
      </g>
      <g>
        <path class="cls-3" d="M369.1,85.02s3.71-4.95,6.47-.86-1.14,16.19-7.9,13.23l1.43-12.38h0Z"/>
        <path class="cls-4" d="M369.14,93.66c.25,0,.48-.16.55-.42,1.05-3.73,4.92-5.25,4.95-5.26.29-.11.44-.44.33-.74s-.44-.44-.74-.33c-.18.07-4.44,1.72-5.65,6.02-.08.3.09.62.4.7.05.02.1.02.15.02h.01Z"/>
        <path class="cls-4" d="M373.05,91.78c.11,0,.21-.03.31-.09.27-.17.34-.52.17-.79-.03-.04-.71-1.09-2.14-1.73-.29-.13-.63,0-.76.29s0,.63.29.75c1.11.49,1.64,1.3,1.65,1.3.11.17.29.26.48.26h0Z"/>
      </g>
      <path class="cls-3" d="M359.1,107.65v12.02s-3.59,6.12-8.44,6.54-9.15-5.27-9.15-5.27v-12.45l17.59-.85h0Z"/>
      <path class="cls-3" d="M359.1,107.65v5.34c-3.25,3.61-9.03,4.51-17.59,3.25v-7.74l17.59-.85h0Z"/>
      <path class="cls-3" d="M371.78,76.77c-.22,4.67-.67,10.52-1.56,15.19-.22,1.16-.47,2.26-.75,3.24-2.53,8.86-8.86,24.06-26.58,17.73-7.83-2.79-11.45-11.51-13.07-20.38-1.1-6.02-1.26-12.1-1.18-16.45.09-4.44,2.51-8.49,6.37-10.68,10.46-5.93,21.5-3.72,28.76-.93,5.04,1.94,8.27,6.89,8.01,12.28h0Z"/>
      <path class="cls-15" d="M342.36,86.58c0,1.28-.66,2.32-1.48,2.32s-1.48-1.04-1.48-2.32.66-2.32,1.48-2.32,1.48,1.04,1.48,2.32Z"/>
      <path class="cls-15" d="M359.78,86.54c0,1.28-.66,2.32-1.48,2.32s-1.48-1.04-1.48-2.32.66-2.32,1.48-2.32,1.48,1.04,1.48,2.32Z"/>
      <path class="cls-15" d="M363.12,78.55s-4.66-1.84-8.25-.29l.36,2s5.27-.45,7.92.63c.24-.77.27-1.54-.03-2.33h0Z"/>
      <path class="cls-15" d="M335.96,78.55s4.66-1.84,8.25-.29l-.36,2s-5.27-.45-7.92.63c-.24-.77-.27-1.54.03-2.33h0Z"/>
      <path class="cls-3" d="M350.16,96.33c.96,0,1.92-.38,2.07-.44.29-.12.43-.45.31-.74-.12-.29-.45-.43-.74-.31-.52.21-1.76.54-2.29.22-.1-.06-.24-.18-.28-.53-.21-1.99.34-8.68.35-8.75.03-.31-.21-.59-.52-.62-.32-.03-.59.21-.62.52-.02.28-.56,6.86-.34,8.96.08.79.5,1.2.83,1.4.37.22.8.3,1.24.3h-.01Z"/>
      <path class="cls-14" d="M342.49,99.23c.95,3.3,3.65,6.58,7.37,6.63,3.71-.04,6.42-3.33,7.36-6.63h-14.73,0Z"/>
      <path class="cls-3" d="M349.54,109.44c1.48,0,2.73-.75,2.79-.78.27-.16.36-.51.19-.79s-.52-.36-.79-.19c0,0-1.04.62-2.19.62-1.06,0-2.07-.61-2.08-.61-.27-.16-.62-.08-.79.19s-.08.62.19.79c.05.03,1.28.79,2.68.79v-.02Z"/>
      <path class="cls-15" d="M371.18,85.12h-2.59c.29-2.6.7-7.18-1.44-7.83-6.75-2.07,2-6.84-1.05-9.22s-10.62-1.36-15.89-1.53c-5.3-.17-13.83-.1-15.89.38-2.07.47-.94,3.92-.18,6.59.77,2.66-2.54,5.61-3.1,8.37-.16.79-.13,1.97,0,3.24h-2.16c-.26-3.36-.29-6.48-.25-9.02.09-4.44,2.51-8.49,6.37-10.68,10.46-5.93,21.5-3.72,28.76-.93,5.04,1.94,8.27,6.89,8.02,12.28-.12,2.56-.31,5.47-.61,8.35h.01Z"/>
      <g>
        <path class="cls-14" d="M340.63,93.32c-3.57,0-6.47-2.9-6.47-6.47s2.9-6.47,6.47-6.47,6.47,2.9,6.47,6.47-2.9,6.47-6.47,6.47ZM340.63,81.39c-3.01,0-5.46,2.45-5.46,5.46s2.45,5.46,5.46,5.46,5.46-2.45,5.46-5.46-2.45-5.46-5.46-5.46Z"/>
        <path class="cls-14" d="M358.3,93.32c-3.57,0-6.47-2.9-6.47-6.47s2.9-6.47,6.47-6.47,6.47,2.9,6.47,6.47-2.9,6.47-6.47,6.47ZM358.3,81.39c-3.01,0-5.46,2.45-5.46,5.46s2.45,5.46,5.46,5.46,5.46-2.45,5.46-5.46-2.45-5.46-5.46-5.46Z"/>
        <path class="cls-14" d="M335.25,84.77c-.13,0-.26-.05-.36-.15h0s-2.97-2.88-6.82-1.98c-.27.06-.54-.1-.61-.38-.06-.27.11-.54.38-.6,4.41-1.03,7.62,2.11,7.76,2.25.2.2.2.52,0,.71-.1.1-.23.15-.36.15h0Z"/>
        <path class="cls-14" d="M363.8,84.77c-.16,0-.33-.08-.42-.23-.15-.23-.09-.54.15-.7.19-.13,4.77-3.08,8.66-2.44.27.04.46.3.42.58-.05.27-.3.46-.58.41-3.51-.58-7.9,2.26-7.95,2.29-.08.06-.18.08-.27.08h-.01Z"/>
        <path class="cls-14" d="M352.19,85.4s-1.21-1.63-2.78-1.63-2.64,1.62-2.65,1.63l-.84-.55c.06-.09,1.39-2.09,3.5-2.09s3.54,1.97,3.6,2.05l-.82.59h-.01Z"/>
      </g>
    </g>
    <g>
      <path class="cls-3" d="M313.7,178.5s-6.81,13.19-14.83,23.64c-2.37,3.08-4.84,5.92-7.27,8.12-3.94,3.56-7.79,5.42-10.92,3.84-11.62-5.86-37.52-52.47-37.52-52.47l6.38-7.57s11.53,13.31,19.96,21.28c7.77,7.35,13.75,12.84,13.75,12.84,1.08-1.64,2.22-3.43,3.42-5.33,1.27-2.02,2.58-4.15,3.92-6.35,9.71-15.94,20.48-35.07,20.48-35.07l2.64,37.07h-.01Z"/>
      <path class="cls-3" d="M298.86,202.14c-2.37,3.08-4.84,5.92-7.27,8.12l-4.94-27.41c1.27-2.02,2.58-4.15,3.92-6.35l8.29,25.63h0Z"/>
      <path class="cls-13" d="M311.06,141.43l-23.28,36.62,7.82,32.21,19.27-31.37s2.34-21.46-3.8-37.46h-.01Z"/>
    </g>
  </g>
  <g>
    <g>
      <path class="cls-5" d="M281.78,323.35c-1.66-9.22-3.3-19.61-4.79-29.7-.33-2.23-.65-4.45-.96-6.63-1.2-8.36-2.26-16.26-3.12-22.82-.33-2.49-.62-4.79-.89-6.84-.83-6.55-1.32-10.61-1.32-10.61l-36.77,1.39-36.88-1.39s-.95,8.05-2.47,19.71c-.28,2.12-.57,4.36-.89,6.7-.82,6.12-1.76,12.88-2.76,19.8,0,.1-.03.2-.04.3-.32,2.16-.63,4.33-.97,6.5,0,.03,0,.06,0,.09h0c-.79,5.25-1.62,10.49-2.46,15.54-.35,2.08-.7,4.13-1.05,6.12-.11.62-.22,1.23-.33,1.84h95.71Z"/>
      <g>
        <path class="cls-13" d="M205.53,257.79c0,1.91-1.55,3.47-3.46,3.47s-3.47-1.55-3.47-3.47,1.55-3.46,3.47-3.46,3.46,1.55,3.46,3.46Z"/>
        <path class="cls-13" d="M214.13,271.22c0,1.91-1.55,3.46-3.46,3.46s-3.47-1.55-3.47-3.46,1.55-3.46,3.47-3.46,3.46,1.55,3.46,3.46Z"/>
        <path class="cls-13" d="M231.05,264.29c0,1.91-1.55,3.46-3.46,3.46s-3.46-1.55-3.46-3.46,1.55-3.46,3.46-3.46,3.46,1.55,3.46,3.46Z"/>
        <path class="cls-13" d="M204.34,285.47c0,1.91-1.55,3.47-3.46,3.47s-3.46-1.55-3.46-3.47,1.55-3.46,3.46-3.46,3.46,1.55,3.46,3.46Z"/>
        <path class="cls-13" d="M225.49,283.99c0,1.91-1.55,3.46-3.46,3.46s-3.46-1.55-3.46-3.46,1.55-3.46,3.46-3.46,3.46,1.55,3.46,3.46Z"/>
        <path class="cls-13" d="M196.83,269.71c0,1.8-1.38,3.29-3.14,3.45.31-2.34.61-4.58.89-6.7,1.32.49,2.25,1.76,2.25,3.25Z"/>
        <path class="cls-13" d="M259.94,304.35c0,1.91-1.55,3.46-3.46,3.46s-3.47-1.55-3.47-3.46,1.55-3.47,3.47-3.47,3.46,1.55,3.46,3.47Z"/>
        <path class="cls-13" d="M258.3,285.47c0,1.91-1.55,3.47-3.46,3.47s-3.46-1.55-3.46-3.47,1.55-3.46,3.46-3.46,3.46,1.55,3.46,3.46Z"/>
        <path class="cls-13" d="M276.99,293.65c-.42.18-.88.27-1.36.27-1.91,0-3.46-1.55-3.46-3.46s1.55-3.46,3.46-3.46c.14,0,.27,0,.4.03.32,2.18.63,4.4.96,6.63h0Z"/>
        <path class="cls-13" d="M261.77,318.19c0,1.91-1.55,3.46-3.46,3.46s-3.46-1.55-3.46-3.46,1.55-3.47,3.46-3.47,3.46,1.55,3.46,3.47Z"/>
        <path class="cls-13" d="M276.59,312.66c0,1.91-1.55,3.46-3.47,3.46s-3.46-1.55-3.46-3.46,1.55-3.46,3.46-3.46,3.47,1.55,3.47,3.46Z"/>
        <path class="cls-13" d="M245.74,323.35c-.62-.91-1.67-1.51-2.86-1.51s-2.23.6-2.86,1.51h5.72Z"/>
        <path class="cls-13" d="M202.06,307.37c0,1.91-1.55,3.46-3.47,3.46s-3.46-1.55-3.46-3.46,1.55-3.47,3.46-3.47,3.47,1.55,3.47,3.47Z"/>
        <path class="cls-13" d="M192.92,296.42c0,1.76-1.31,3.21-3.01,3.43,0-.03,0-.06,0-.09.33-2.17.65-4.34.97-6.5,1.2.55,2.03,1.76,2.03,3.16Z"/>
        <path class="cls-13" d="M188.87,318.19c0,1.57-1.04,2.89-2.47,3.32.35-1.99.7-4.04,1.05-6.12.86.63,1.42,1.65,1.42,2.8Z"/>
        <path class="cls-13" d="M210.66,319.65c0,1.91-1.55,3.47-3.47,3.47s-3.46-1.55-3.46-3.47,1.55-3.46,3.46-3.46,3.47,1.55,3.47,3.46Z"/>
        <path class="cls-13" d="M228.95,316.94c0,1.91-1.55,3.47-3.46,3.47s-3.46-1.55-3.46-3.47,1.55-3.46,3.46-3.46,3.46,1.55,3.46,3.46Z"/>
        <path class="cls-13" d="M215.9,299.9c0,1.91-1.55,3.47-3.47,3.47s-3.46-1.55-3.46-3.47,1.55-3.46,3.46-3.46,3.47,1.55,3.47,3.46Z"/>
        <path class="cls-13" d="M234.51,296.43c0,1.91-1.55,3.46-3.46,3.46s-3.46-1.55-3.46-3.46,1.55-3.46,3.46-3.46,3.46,1.55,3.46,3.46Z"/>
        <path class="cls-13" d="M242.89,278.15c0,1.91-1.55,3.46-3.46,3.46s-3.47-1.55-3.47-3.46,1.55-3.47,3.47-3.47,3.46,1.55,3.46,3.47Z"/>
        <path class="cls-13" d="M272.91,264.2c-.24.06-.49.08-.74.08-1.92,0-3.46-1.55-3.46-3.46s1.47-3.39,3.32-3.46c.27,2.05.56,4.35.89,6.84h-.01Z"/>
        <path class="cls-13" d="M254.83,264.29c0,1.91-1.55,3.46-3.46,3.46s-3.46-1.55-3.46-3.46,1.55-3.46,3.46-3.46,3.46,1.55,3.46,3.46Z"/>
        <path class="cls-13" d="M267.53,276.64c0,1.91-1.55,3.46-3.46,3.46s-3.46-1.55-3.46-3.46,1.55-3.47,3.46-3.47,3.46,1.55,3.46,3.47Z"/>
        <path class="cls-13" d="M246.35,307.37c0,1.91-1.55,3.46-3.46,3.46s-3.46-1.55-3.46-3.46,1.55-3.47,3.46-3.47,3.46,1.55,3.46,3.47Z"/>
      </g>
      <path class="cls-11" d="M272.94,247.66c-19.4,12.66-55.01,11.67-77.39,0,2.14-13.32,4.95-26.65,4.35-44.37-.07-1.94-.15-3.87-.25-5.79-.09-1.67-.18-3.32-.29-4.95-1.93-29.49-6.96-53.6-4.49-56.71,1.08-1.36,2.88-2.84,5.1-4.34.87-.59,1.8-1.2,2.79-1.8,2.32-1.42,4.9-2.85,7.5-4.24,6.15-3.28,12.4-6.33,15.53-8.41,3.1,1.35,5.58,2.09,8.24,2.08h.45c2.66,0,5.14-.73,8.24-2.08,2.9,1.93,8.37,4.63,13.95,7.56,4.1,2.16,8.26,4.45,11.5,6.68,2.12,1.45,3.85,2.88,4.91,4.22,1.23,1.54.71,8.32-.34,18.35-1.04,9.87-2.59,22.91-3.53,37.23-.26,3.98-.47,8.06-.62,12.19-.6,17.73,2.21,31.06,4.35,44.37h0Z"/>
      <path class="cls-3" d="M256.66,124.61c-3.78,8.62-13.07,17.55-25.16,15.46-11.7-2.02-17.25-8.21-21.26-14.61,6.15-3.29,12.4-6.33,15.53-8.41,3.1,1.35,5.58,2.09,8.24,2.08h.46c2.66,0,5.13-.73,8.24-2.08,2.9,1.93,8.37,4.62,13.95,7.56Z"/>
      <path class="cls-14" d="M246.56,117.68c-.33,0-.6.26-.6.59,0,.49-.2,11.88-10.43,12.76-9.49.82-13.42-8.26-14.63-12.03-.07-.22-.28-.37-.51-.37h-.11c-.37,0-.62.36-.51.7,1.29,3.89,5.43,13.28,15.1,12.93.25,0,.51-.02.76-.05,11.32-.98,11.52-13.82,11.52-13.95,0-.33-.26-.6-.59-.6v.02Z"/>
    </g>
    <g>
      <path class="cls-15" d="M253.79,57.1s9.14,14.16,8.14,28.91,1.35,31.78-11.85,31.03c-13.2-.75-36.74,5.29-44.23-6.2-7.48-11.49,47.94-53.75,47.94-53.75h0Z"/>
      <path class="cls-9" d="M257.18,83.14s2.37,21.38-7.77,27.27-17.49-.69-17.49-.69c0,0,21.39-29.8,25.26-26.58Z"/>
      <g>
        <g>
          <path class="cls-3" d="M215.04,83.04s-3.64-4.86-6.35-.84,1.12,15.88,7.75,12.98l-1.4-12.14Z"/>
          <path class="cls-4" d="M214.99,91.52c-.24,0-.47-.16-.54-.41-1.03-3.66-4.82-5.15-4.86-5.16-.29-.11-.43-.43-.32-.72.11-.29.43-.43.72-.33.18.07,4.36,1.69,5.54,5.91.08.3-.09.61-.39.69-.05,0-.1.02-.15.02Z"/>
          <path class="cls-4" d="M211.16,89.67c-.1,0-.21-.03-.3-.09-.26-.17-.34-.51-.17-.77.03-.04.7-1.07,2.1-1.7.28-.13.61,0,.74.28s0,.61-.28.74c-1.09.49-1.61,1.27-1.62,1.28-.11.17-.29.26-.47.26h0Z"/>
        </g>
        <g>
          <path class="cls-3" d="M252.58,83.04s3.64-4.86,6.35-.84-1.12,15.88-7.75,12.98l1.4-12.14Z"/>
          <path class="cls-4" d="M252.63,91.52c.24,0,.47-.16.54-.41,1.03-3.66,4.82-5.15,4.86-5.16.29-.11.43-.43.33-.72-.11-.29-.43-.43-.72-.33-.18.07-4.36,1.69-5.54,5.91-.08.3.09.61.39.69.05,0,.1.02.15.02h0Z"/>
          <path class="cls-4" d="M256.46,89.67c.1,0,.21-.03.3-.09.26-.17.33-.51.17-.77-.03-.04-.7-1.07-2.1-1.7-.28-.13-.61,0-.74.28s0,.61.28.74c1.09.49,1.61,1.27,1.62,1.28.11.17.29.26.47.26Z"/>
        </g>
        <path class="cls-3" d="M242.78,105.25v11.8s-3.52,6.01-8.28,6.42c-4.75.41-8.98-5.17-8.98-5.17v-12.21l17.25-.83h.01Z"/>
        <path class="cls-3" d="M242.78,105.25v5.24c-3.19,3.54-8.86,4.8-17.25,3.56v-7.96l17.25-.83h0Z"/>
        <path class="cls-3" d="M255.22,74.95c-.22,4.59-.66,10.32-1.53,14.9-.22,1.14-.46,2.22-.74,3.18-2.48,8.69-8.69,23.6-26.08,17.39-7.68-2.74-11.24-11.29-12.82-19.99-1.08-5.91-1.24-11.88-1.16-16.14.08-4.35,2.46-8.33,6.25-10.48,10.26-5.82,21.09-3.65,28.22-.91,4.95,1.9,8.12,6.76,7.86,12.04h0Z"/>
        <path class="cls-15" d="M226.15,83.73c0,1.26-.65,2.28-1.45,2.28s-1.45-1.02-1.45-2.28.65-2.28,1.45-2.28,1.45,1.02,1.45,2.28Z"/>
        <path class="cls-15" d="M244.05,83.73c0,1.26-.65,2.28-1.45,2.28s-1.45-1.02-1.45-2.28.65-2.28,1.45-2.28,1.45,1.02,1.45,2.28Z"/>
        <path class="cls-15" d="M221.83,76.94c1.2-.34,3.64-.92,6.2-.93.68,0,1.19.6,1.07,1.26v.02c-.1.53-.57.91-1.11.88-1.75-.08-6.33.16-8.49,1.04-.04-.38.18-.79.49-1.15.48-.55,1.13-.92,1.84-1.12h0Z"/>
        <path class="cls-15" d="M245.26,76.99c-1.2-.34-3.64-.92-6.2-.93-.68,0-1.19.6-1.07,1.26v.02c.1.53.57.91,1.11.88,1.75-.08,6.33.16,8.49,1.04.04-.38-.18-.79-.49-1.15-.48-.55-1.13-.92-1.83-1.12h-.01Z"/>
        <path class="cls-3" d="M234,94.14c-.43,0-.86-.08-1.22-.29-.33-.2-.74-.59-.82-1.37-.21-2.06.31-8.52.34-8.79.02-.31.3-.54.6-.51.31.02.54.3.51.6,0,.07-.54,6.63-.34,8.58.04.34.17.46.28.52.53.32,1.74,0,2.25-.21.29-.12.61.02.73.31s-.02.61-.31.73c-.15.06-1.08.43-2.03.43h.01Z"/>
        <path class="cls-14" d="M226.89,97.68c.42,2.13,1.83,6.05,6.58,6.05s6.09-3.58,6.55-6.05h-13.13Z"/>
        <path class="cls-3" d="M233.4,107c-1.37,0-2.58-.74-2.63-.77-.26-.16-.35-.51-.18-.77.16-.26.51-.34.77-.18h0s1,.6,2.04.6c1.13,0,2.14-.6,2.15-.6.27-.16.61-.07.77.19.16.26.07.61-.19.77-.05.03-1.28.77-2.73.77h0Z"/>
      </g>
      <path class="cls-15" d="M257.47,74.03c-.18.51-.68.84-1.35,1.03.05,1.24-.08,2.72-.2,4.15-.69,8.1-2.73,9.52-3.2,7.52-.3-1.33-.29-8.96-.14-11.45-1.6-.1-2.97-.37-2.97-.37l-1.88-7.87-.66,7.77c-2.82.98-9.39-.59-9.39-.59l-2.21-7.75-1.36,7.46c-4.23,2.06-9.51.69-9.51.69l-1.21-8.04-2.8,8.04s-9.02,3.24-9.12,0c-.06-1.88,1.32-7.18,2.48-11.29,1.27-4.48,4.21-8.26,8.19-10.4,11.19-6.01,23.02-2.81,27.07-.39,8.6,5.14,8.25,21.49,8.25,21.49h.01Z"/>
      <path class="cls-15" d="M216.44,57.7s-7.42,8.83-9.87,24.6c-2.44,15.77-5.82,27.42,3.68,32.63,10.29,5.64,9.4-5.92,9.25-9.07-.15-3.14-8.9-11.73-3.06-35.91,1.89-7.81,0-12.25,0-12.25Z"/>
      <path class="cls-9" d="M214.7,90.29v.02c0,.12,0,.74.06,1.73.02.61.06,1.35.12,2.19.35,5.31,1.38,14.49,4.42,17.67,1.2,1.26,3.51,1.89,6.23,2.15v-4.18c-2.87-1.36-5.1-3.6-6.84-6.35-1.07-2.32-2.92-5.95-3.78-11.66l-.21-1.57h0Z"/>
      <path class="cls-14" d="M255.35,95.45c0,.73-.59,1.31-1.31,1.31s-1.31-.59-1.31-1.31.59-1.31,1.31-1.31,1.31.59,1.31,1.31Z"/>
    </g>
    <g>
      <path class="cls-13" d="M282.11,194.37c-3.72,10.65-20.38,9.87-39.35,4.05-.03,0-.05-.02-.08-.02-.06-.02-.12-.04-.18-.05l-2.61-.83-1.08-.36c-2.04-.68-4.1-1.42-6.17-2.21-6.78-2.58-13.61-5.63-20.05-8.88l.04-.11,1.94-5.04.66-1.71s35.17,3.83,52.86.14c.3-.06.59-.12.88-.19-.07-.39-.09-.79-.2-1.17-9.37-31.9.88-38.02,4.31-42.46,0,0,16.06,38.76,9.04,58.87v-.03Z"/>
      <g>
        <path class="cls-13" d="M256.12,192.35c-54.36,18.31-71.08,6.33-71.08,6.33-3.66-33.09,9.83-62.85,9.83-62.85,3.98,6.57,8.49,18.04,8.49,18.04l1.19,25.37-.09.7-.04.33-.23,1.73v.04c.11.02.23.05.35.08,16.44,3.47,46.51-.41,46.51-.41l5.07,10.65h0Z"/>
        <path class="cls-3" d="M251.04,181.71s6.02-13.67,15.17-12.45l2.76,9.88c-5.01,2.13-5.74,10.71-12.85,13.22l-5.07-10.65h-.01Z"/>
      </g>
      <path class="cls-3" d="M215.24,179.19s-3.8-8.92-13.8-11.51-16.37,2.12-17.04,3.9c-.67,1.78,3.77.08,3.77.08,0,0-2.89.82-4.55,3.54s4.04-.21,4.04-.21c0,0-4.09,1.79-4.61,3.45s4.87-1.14,5.88-1.09c0,0-4.82,1.91-4.78,3.63s5.53-1.08,9.64-.86,10.4,1.92,10.4,1.92c3.36.64,6.57,1.11,9.48,1.25l1.58-4.09h0Z"/>
    </g>
  </g>
  <g>
    <g>
      <g>
        <path class="cls-6" d="M311.82,40.5c-3.7,0-6.71-3.01-6.71-6.71s3.01-6.71,6.71-6.71,6.71,3.01,6.71,6.71-3.01,6.71-6.71,6.71ZM311.82,29.18c-2.54,0-4.61,2.07-4.61,4.61s2.07,4.61,4.61,4.61,4.61-2.07,4.61-4.61-2.07-4.61-4.61-4.61Z"/>
        <path class="cls-6" d="M370.39,29.1c-3.7,0-6.71-3.01-6.71-6.71s3.01-6.71,6.71-6.71,6.71,3.01,6.71,6.71-3.01,6.71-6.71,6.71ZM370.39,17.77c-2.54,0-4.61,2.07-4.61,4.61s2.07,4.61,4.61,4.61,4.61-2.07,4.61-4.61-2.07-4.61-4.61-4.61Z"/>
        <g>
          <g>
            <path class="cls-6" d="M378.68,50.91c-.58,0-1.05-.47-1.05-1.05v-4.64c0-.58.47-1.05,1.05-1.05s1.05.47,1.05,1.05v4.64c0,.58-.47,1.05-1.05,1.05Z"/>
            <path class="cls-6" d="M378.68,59.04c-.58,0-1.05-.47-1.05-1.05v-4.64c0-.58.47-1.05,1.05-1.05s1.05.47,1.05,1.05v4.64c0,.58-.47,1.05-1.05,1.05Z"/>
          </g>
          <g>
            <path class="cls-6" d="M385.2,52.65h-4.17c-.58,0-1.05-.47-1.05-1.05s.47-1.05,1.05-1.05h4.17c.58,0,1.05.47,1.05,1.05s-.47,1.05-1.05,1.05Z"/>
            <path class="cls-6" d="M376.34,52.65h-4.17c-.58,0-1.05-.47-1.05-1.05s.47-1.05,1.05-1.05h4.17c.58,0,1.05.47,1.05,1.05s-.47,1.05-1.05,1.05Z"/>
          </g>
        </g>
        <g>
          <g>
            <path class="cls-11" d="M343.22,22.78c-.58,0-1.05-.47-1.05-1.05v-4.64c0-.58.47-1.05,1.05-1.05s1.05.47,1.05,1.05v4.64c0,.58-.47,1.05-1.05,1.05Z"/>
            <path class="cls-11" d="M343.22,30.9c-.58,0-1.05-.47-1.05-1.05v-4.64c0-.58.47-1.05,1.05-1.05s1.05.47,1.05,1.05v4.64c0,.58-.47,1.05-1.05,1.05Z"/>
          </g>
          <g>
            <path class="cls-11" d="M349.74,24.52h-4.17c-.58,0-1.05-.47-1.05-1.05s.47-1.05,1.05-1.05h4.17c.58,0,1.05.47,1.05,1.05s-.47,1.05-1.05,1.05Z"/>
            <path class="cls-11" d="M340.88,24.52h-4.17c-.58,0-1.05-.47-1.05-1.05s.47-1.05,1.05-1.05h4.17c.58,0,1.05.47,1.05,1.05s-.47,1.05-1.05,1.05Z"/>
          </g>
        </g>
      </g>
      <g>
        <path class="cls-6" d="M71.85,16.75c0-3.7,3.01-6.71,6.71-6.71s6.71,3.01,6.71,6.71-3.01,6.71-6.71,6.71-6.71-3.01-6.71-6.71ZM73.96,16.75c0,2.54,2.07,4.61,4.61,4.61s4.61-2.07,4.61-4.61-2.07-4.61-4.61-4.61-4.61,2.07-4.61,4.61Z"/>
        <path class="cls-6" d="M44.89,42.34c0-3.7,3.01-6.71,6.71-6.71s6.71,3.01,6.71,6.71-3.01,6.71-6.71,6.71-6.71-3.01-6.71-6.71ZM46.99,42.34c0,2.54,2.07,4.61,4.61,4.61s4.61-2.07,4.61-4.61-2.07-4.61-4.61-4.61-4.61,2.07-4.61,4.61Z"/>
        <g>
          <g>
            <path class="cls-6" d="M30.93,51.76c.58,0,1.05-.47,1.05-1.05v-4.64c0-.58-.47-1.05-1.05-1.05s-1.05.47-1.05,1.05v4.64c0,.58.47,1.05,1.05,1.05Z"/>
            <path class="cls-6" d="M30.93,59.89c.58,0,1.05-.47,1.05-1.05v-4.64c0-.58-.47-1.05-1.05-1.05s-1.05.47-1.05,1.05v4.64c0,.58.47,1.05,1.05,1.05Z"/>
          </g>
          <g>
            <path class="cls-6" d="M24.41,53.51h4.17c.58,0,1.05-.47,1.05-1.05s-.47-1.05-1.05-1.05h-4.17c-.58,0-1.05.47-1.05,1.05s.47,1.05,1.05,1.05Z"/>
            <path class="cls-6" d="M33.27,53.51h4.17c.58,0,1.05-.47,1.05-1.05s-.47-1.05-1.05-1.05h-4.17c-.58,0-1.05.47-1.05,1.05s.47,1.05,1.05,1.05Z"/>
          </g>
        </g>
        <g>
          <g>
            <path class="cls-11" d="M55.2,16.06c.58,0,1.05-.47,1.05-1.05v-4.64c0-.58-.47-1.05-1.05-1.05s-1.05.47-1.05,1.05v4.64c0,.58.47,1.05,1.05,1.05Z"/>
            <path class="cls-11" d="M55.2,24.19c.58,0,1.05-.47,1.05-1.05v-4.64c0-.58-.47-1.05-1.05-1.05s-1.05.47-1.05,1.05v4.64c0,.58.47,1.05,1.05,1.05Z"/>
          </g>
          <g>
            <path class="cls-11" d="M48.68,17.81h4.17c.58,0,1.05-.47,1.05-1.05s-.47-1.05-1.05-1.05h-4.17c-.58,0-1.05.47-1.05,1.05s.47,1.05,1.05,1.05Z"/>
            <path class="cls-11" d="M57.54,17.81h4.17c.58,0,1.05-.47,1.05-1.05s-.47-1.05-1.05-1.05h-4.17c-.58,0-1.05.47-1.05,1.05s.47,1.05,1.05,1.05Z"/>
          </g>
        </g>
      </g>
    </g>
    <g>
      <g>
        <path class="cls-11" d="M255.97,17.23c-.12.01-.25,0-.37-.06-1.28-.54-2.03-.79-2.04-.79-.39-.13-.6-.55-.47-.95.13-.39.55-.6.95-.47.03.01.8.27,2.14.83.38.16.56.6.4.98-.11.26-.35.43-.61.45h0Z"/>
        <g>
          <path class="cls-11" d="M294.08,57.34c.51,1.36.98,2.76,1.42,4.16.11.35.44.56.79.52.05,0,.1,0,.14-.03.39-.12.62-.54.49-.93-.44-1.43-.93-2.86-1.45-4.24-.14-.39-.57-.58-.96-.44-.39.14-.58.58-.44.96h0Z"/>
          <path class="cls-11" d="M296.66,65.74c.34,1.4.65,2.85.92,4.3.07.39.43.65.81.61h.06c.41-.08.67-.47.6-.87-.27-1.48-.59-2.95-.94-4.38-.1-.4-.5-.65-.9-.55-.4.1-.65.5-.55.9h0Z"/>
          <path class="cls-11" d="M299.81,88.32c.37-.04.66-.35.67-.73.02-1.5.01-3.01-.03-4.48-.01-.41-.36-.74-.77-.73-.42,0-.74.36-.73.77.04,1.45.05,2.93.03,4.41,0,.41.32.75.74.76h.09Z"/>
          <path class="cls-11" d="M298.91,73.54c-.41.05-.7.43-.64.84.09.68.17,1.36.24,2.03.08.77.15,1.57.22,2.35.03.41.39.72.8.69h.02c.4-.04.7-.4.67-.8-.06-.8-.14-1.6-.22-2.39-.07-.68-.15-1.38-.24-2.07-.05-.4-.42-.69-.82-.65h-.03Z"/>
          <path class="cls-11" d="M292.41,53.28c.14.3.45.47.76.44.08,0,.15-.03.23-.06.38-.17.55-.61.38-.99-.61-1.36-1.27-2.72-1.96-4.04-.19-.37-.64-.51-1.01-.31-.36.19-.51.64-.31,1.01.68,1.29,1.32,2.62,1.92,3.95h-.01Z"/>
          <path class="cls-11" d="M259.57,19.04c1.28.66,2.58,1.37,3.85,2.12.14.08.3.12.46.1.23-.02.44-.15.57-.36.21-.36.09-.81-.26-1.02-1.3-.77-2.62-1.5-3.93-2.17-.37-.19-.82-.04-1.01.33s-.04.82.32,1.01h0Z"/>
          <path class="cls-11" d="M270.72,26.08c.16.12.35.17.53.15.2-.02.39-.12.52-.29.25-.33.19-.8-.14-1.05-1.18-.9-2.41-1.78-3.64-2.62-.34-.23-.81-.14-1.04.2s-.14.81.2,1.04c1.21.82,2.41,1.68,3.57,2.57h0Z"/>
          <path class="cls-11" d="M283.28,38.32c.17.21.42.3.66.28.14-.01.27-.07.39-.16.32-.26.38-.73.12-1.05-.93-1.16-1.91-2.31-2.91-3.41-.28-.31-.75-.33-1.06-.05s-.33.75-.05,1.06c.98,1.08,1.94,2.21,2.85,3.34h0Z"/>
          <path class="cls-11" d="M277.38,31.82c.17.16.39.23.6.21.17-.02.33-.09.46-.22.29-.3.28-.77-.01-1.06-1.06-1.04-2.18-2.05-3.31-3.03-.31-.27-.79-.23-1.05.08-.27.31-.23.79.08,1.05,1.11.96,2.2,1.96,3.24,2.97h0Z"/>
          <path class="cls-11" d="M288.33,45.51c.16.26.44.38.72.35.11,0,.21-.05.31-.1.35-.21.46-.68.25-1.03-.78-1.27-1.6-2.53-2.46-3.75-.24-.34-.7-.42-1.04-.18s-.42.7-.18,1.04c.84,1.19,1.65,2.43,2.41,3.67h-.01Z"/>
        </g>
      </g>
      <g>
        <polygon class="cls-6" points="255.95 12.12 259.23 0 219.13 .34 255.95 12.12"/>
        <polygon class="cls-10" points="219.13 .34 254.01 15.04 254.1 15.08 255.6 17.57 255.95 12.12 219.13 .34"/>
        <polygon class="cls-6" points="255.6 17.57 252.35 17.06 254.1 15.08 255.6 17.57"/>
        <polygon class="cls-6" points="249.71 13.23 254.1 15.08 245.06 25.27 219.13 .34 249.71 13.23"/>
      </g>
    </g>
  </g>
  <g>
    <path class="cls-11" d="M440.33,330.98v.73c0,4.21-3.42,7.63-7.63,7.63H36.75c-4.22,0-7.63-3.42-7.63-7.63v-.73c0-4.21,3.42-7.63,7.63-7.63h395.95c4.22,0,7.63,3.42,7.63,7.63h0Z"/>
    <path class="cls-6" d="M440.33,330.98v.36H29.12v-.36c0-4.21,3.42-7.63,7.63-7.63h395.95c4.22,0,7.63,3.42,7.63,7.63h0Z"/>
  </g>
  <g>
    <path class="cls-9" d="M295.32,299.34h-124.39c-2.97,0-5.38-2.41-5.38-5.38v-65.08c0-2.97,2.41-5.38,5.38-5.38h124.38c2.97,0,5.38,2.41,5.38,5.38v65.08c0,2.97-2.41,5.38-5.38,5.38h.01Z"/>
    <rect class="cls-9" x="222.67" y="299.25" width="20.93" height="23.86"/>
    <circle class="cls-8" cx="232.9" cy="262.35" r="10.39"/>
    <path class="cls-15" d="M259.79,323.12h-53.99v-1.82c0-3.67,2.98-6.65,6.65-6.65h40.7c3.67,0,6.64,2.98,6.64,6.65v1.82h0Z"/>
  </g>
</svg>