<?xml version="1.0" encoding="UTF-8"?>
<svg id="b6844486-882e-488a-b917-920917943dff" xmlns="http://www.w3.org/2000/svg" viewBox="0 0 762 689.79">
  <defs>
    <style>
      .cls-1 {
        fill: #849185;
      }

      .cls-1, .cls-2, .cls-3, .cls-4, .cls-5, .cls-6, .cls-7, .cls-8, .cls-9, .cls-10, .cls-11 {
        stroke-width: 0px;
      }

      .cls-2 {
        fill: #ffb8b8;
      }

      .cls-3 {
        fill: #aa2c2c;
      }

      .cls-4 {
        fill: #3f3d56;
      }

      .cls-5 {
        fill: #f2f2f2;
      }

      .cls-6 {
        fill: #2f2e41;
      }

      .cls-7 {
        fill: #ccc;
      }

      .cls-8 {
        fill: #fff;
      }

      .cls-9 {
        fill: #e6e6e6;
      }

      .cls-10 {
        fill: #8da08e;
      }

      .cls-11 {
        fill: #000;
        isolation: isolate;
        opacity: .2;
      }
    </style>
  </defs>
  <path class="cls-5" d="M508.53,242.55h-254.84c-9.11-.01-16.49-7.39-16.5-16.5V25.89c0-6.67,5.41-12.08,12.09-12.09h263.45c6.79,0,12.29,5.51,12.3,12.3v199.94c-.01,9.11-7.39,16.49-16.5,16.5Z"/>
  <path class="cls-8" d="M269.7,226.05h222.84c8.84,0,16-7.16,16-16V56.5c0-8.84-7.16-16-16-16h-222.84c-8.84,0-16,7.16-16,16v153.55c0,8.84,7.16,16,16,16Z"/>
  <path class="cls-7" d="M524.81,24.95H236.96v-8.4c.01-9.14,7.42-16.54,16.56-16.55h254.72c9.14,0,16.55,7.41,16.56,16.55v8.4Z"/>
  <circle class="cls-8" cx="267.06" cy="12.5" r="4.28"/>
  <circle class="cls-8" cx="283.32" cy="12.5" r="4.28"/>
  <circle class="cls-8" cx="299.58" cy="12.5" r="4.28"/>
  <path class="cls-1" d="M286.09,112.46h-11.04c-1.25,0-2.26-1.01-2.26-2.26v-11.04c0-1.25,1.01-2.26,2.26-2.26h11.04c1.25,0,2.26,1.01,2.26,2.26v11.04c0,1.25-1.01,2.26-2.26,2.26Z"/>
  <path class="cls-4" d="M286.09,141.05h-11.04c-1.25,0-2.26-1.01-2.26-2.26v-11.04c0-1.25,1.01-2.26,2.26-2.26h11.04c1.25,0,2.26,1.01,2.26,2.26v11.04c0,1.25-1.01,2.26-2.26,2.26Z"/>
  <path class="cls-7" d="M286.09,169.64h-11.04c-1.25,0-2.26-1.01-2.26-2.26v-11.04c0-1.25,1.01-2.26,2.26-2.26h11.04c1.25,0,2.26,1.01,2.26,2.26v11.04c0,1.25-1.01,2.26-2.26,2.26Z"/>
  <path class="cls-7" d="M358.33,106.94h-53.17c-1.25,0-2.25-1.02-2.25-2.26,0-1.24,1.01-2.25,2.25-2.25h53.17c1.25,0,2.26,1,2.26,2.25,0,1.25-1,2.26-2.25,2.26,0,0,0,0-.01,0Z"/>
  <path class="cls-7" d="M358.33,135.53h-53.17c-1.25,0-2.25-1.02-2.25-2.26,0-1.24,1.01-2.25,2.25-2.25h53.17c1.25,0,2.26,1.01,2.26,2.26s-1.01,2.26-2.26,2.26Z"/>
  <path class="cls-7" d="M358.33,164.12h-53.17c-1.25,0-2.26-1.01-2.26-2.26,0-1.25,1.01-2.26,2.26-2.26h53.17c1.25,0,2.26,1.01,2.26,2.26s-1.01,2.26-2.26,2.26h0Z"/>
  <path class="cls-1" d="M489.34,133.99c.06-.95.09-1.9.09-2.87,0-26.13-21.18-47.32-47.32-47.32v50.19h47.23Z"/>
  <path class="cls-4" d="M438.53,138.29v-50.19c-26.13,0-47.32,21.18-47.32,47.32,0,26.13,21.18,47.32,47.32,47.32,25.02,0,45.72-19.48,47.23-44.45h-47.23Z"/>
  <path class="cls-7" d="M761,689.79H1c-.55,0-1-.45-1-1s.45-1,1-1h760c.55,0,1,.45,1,1s-.45,1-1,1Z"/>
  <path class="cls-2" d="M504.69,412.93c.33.45.63.93.89,1.43l50.11,5.63,7.29-9.85,16.3,9.06-14.35,23.92-61.4-16.11c-4.25,4.09-11.01,3.95-15.09-.3-4.09-4.25-3.95-11.01.3-15.09,4.25-4.09,11.01-3.95,15.09.3.31.32.59.65.86,1.01Z"/>
  <path class="cls-2" d="M248.99,399.99c-4.79,2.81-10.95,1.21-13.76-3.57-.3-.51-.55-1.05-.76-1.6l-35.73.74,9.9-15.71,32.41,1.7c5.35-1.59,10.98,1.46,12.57,6.81,1.33,4.48-.58,9.29-4.63,11.63h0Z"/>
  <path class="cls-4" d="M233.29,395.49c-.58,1.95-2.4,3.26-4.43,3.21l-65.39-1.66-59.21-17.53c-6.79-2.01-10.66-9.14-8.65-15.93,2.01-6.79,9.14-10.66,15.93-8.65.12.04.24.07.36.11l53.49,17.54,64.2,6.2c2.33.24,4.1,2.21,4.07,4.56l-.19,10.95c0,.41-.07.82-.18,1.21Z"/>
  <polygon class="cls-2" points="138.46 676.6 150.72 676.6 156.55 629.31 138.46 629.31 138.46 676.6"/>
  <path class="cls-6" d="M135.33,672.6h24.14s0,0,0,0c8.5,0,15.39,6.89,15.39,15.39h0v.5h-39.53s0-15.89,0-15.89Z"/>
  <polygon class="cls-2" points="102.46 676.6 114.72 676.6 120.55 629.31 102.46 629.31 102.46 676.6"/>
  <path class="cls-6" d="M99.33,672.6h24.14s0,0,0,0c8.5,0,15.39,6.89,15.39,15.39h0v.5h-39.53s0-15.89,0-15.89Z"/>
  <path class="cls-6" d="M94.23,485.49l2.93,173.69c.04,2.21,1.86,3.97,4.07,3.93.1,0,.2,0,.29-.02l14.35-1.3c1.94-.18,3.48-1.73,3.63-3.67l8.4-108.35c.04-.55.52-.96,1.07-.92.51.04.9.45.92.96l4.2,110.83c.08,2.15,1.85,3.85,4,3.85h15.39c2.11,0,3.86-1.65,3.99-3.76l10.77-176.24-64-16-10,17Z"/>
  <ellipse class="cls-2" cx="141.55" cy="300.61" rx="25.46" ry="27.33"/>
  <path class="cls-4" d="M167.29,491.93s-.05,0-.07,0l-57.43-.88c-2.29-.03-4.18-1.78-4.41-4.05l-.65-6.5c-.03-.27-.27-.48-.55-.45-.24.02-.42.21-.45.45l-.67,6.72c-.21,2.17-1.96,3.87-4.13,4.04l-4.06.31c-2.48.19-4.64-1.66-4.83-4.14-.04-.5,0-1,.13-1.49l3.49-13.32c7.23-27.69,7.81-56.7,1.7-84.66l-1.74-7.9c-2.69-12.11,2.76-24.56,13.47-30.82l11.28-6.61,5.12-7.68c2.01-3.01,5.36-4.85,8.98-4.92,7.14-.16,19.39,1.15,21.69,11.59,11.7,4,19.49,15.08,19.28,27.44l-1.66,118.44c-.03,2.46-2.04,4.44-4.5,4.44h0Z"/>
  <path class="cls-6" d="M138.73,311.99c-.1,3.47-2.51,5.48-5.47,7.3s-6.42,2.61-9.81,3.37c-1.46.78-3.28.22-4.05-1.24-.23-.43-.35-.9-.35-1.38l-3.11-11.82c-1.1-3.78-1.9-7.63-2.39-11.54-.75-7.51,1.03-15.59,6.27-21.02s14.33-7.36,20.61-3.17c7.45-9.52,41.52,11.51,33.12,18.13-1.5,1.18-3.78-.31-5.68-.46s-4.02.19-5.23,1.66c-1.58,1.92-.89,4.79-1.54,7.19-1.12,3.53-4.9,5.49-8.43,4.36-.02,0-.03-.01-.05-.02-1.57-.77-3.05-1.72-4.4-2.83-1.46-.97-3.3-1.69-4.93-1.07-2.16.81-2.93,3.45-3.12,5.75-.33,2.29-.81,4.56-1.43,6.79Z"/>
  <polygon class="cls-11" points="144.47 377.82 148.47 426.82 169.47 477.82 138.47 427.82 144.47 377.82"/>
  <path class="cls-5" d="M402.82,646.15l-219.17-130.03c-7.83-4.66-10.41-14.77-5.77-22.61l102.12-172.14c3.41-5.74,10.82-7.63,16.56-4.23l226.58,134.42c5.83,3.47,7.76,11.01,4.3,16.85l-102.02,171.96c-4.66,7.83-14.77,10.41-22.61,5.77Z"/>
  <path class="cls-8" d="M205.83,510.09l191.65,113.7c7.6,4.51,17.42,2,21.92-5.6h0l78.35-132.06c4.51-7.6,2-17.42-5.6-21.92h0l-191.65-113.7c-7.6-4.51-17.42-2-21.92,5.6l-78.35,132.06c-4.51,7.6-2,17.42,5.6,21.92Z"/>
  <path class="cls-7" d="M527.84,467.31l-247.55-146.87,4.29-7.22c4.67-7.85,14.82-10.44,22.69-5.78l219.07,129.97c7.86,4.67,10.45,14.82,5.8,22.68l-4.29,7.22Z"/>
  <circle class="cls-8" cx="312.52" cy="325.09" r="4.28"/>
  <circle class="cls-8" cx="326.5" cy="333.38" r="4.28"/>
  <circle class="cls-8" cx="340.49" cy="341.68" r="4.28"/>
  <rect class="cls-9" x="473.75" y="491.81" width=".55" height="3.28" transform="translate(-192.22 649.35) rotate(-59.32)"/>
  <path class="cls-9" d="M466.79,489.47l-5.69-3.38.28-.47,5.69,3.38-.28.47ZM455.4,482.71l-5.69-3.38.28-.47,5.69,3.38-.28.47ZM444.02,475.96l-5.69-3.38.28-.47,5.69,3.38-.28.47ZM432.63,469.21l-5.69-3.38.28-.47,5.69,3.38-.28.47ZM421.25,462.45l-5.69-3.38.28-.47,5.69,3.38-.28.47ZM409.86,455.7l-5.69-3.38.28-.47,5.69,3.38-.28.47ZM398.48,448.94l-5.69-3.38.28-.47,5.69,3.38-.28.47ZM387.1,442.19l-5.69-3.38.28-.47,5.69,3.38-.28.47ZM375.71,435.44l-5.69-3.38.28-.47,5.69,3.38-.28.47ZM364.33,428.68l-5.69-3.38.28-.47,5.69,3.38-.28.47ZM352.94,421.93l-5.69-3.38.28-.47,5.69,3.38-.28.47ZM341.56,415.17l-5.69-3.38.28-.47,5.69,3.38-.28.47ZM330.17,408.42l-5.69-3.38.28-.47,5.69,3.38-.28.47ZM318.79,401.67l-5.69-3.38.28-.47,5.69,3.38-.28.47ZM307.4,394.91l-5.69-3.38.28-.47,5.69,3.38-.28.47ZM296.02,388.16l-5.69-3.38.28-.47,5.69,3.38-.28.47Z"/>
  <rect class="cls-9" x="283.09" y="378.7" width=".55" height="3.28" transform="translate(-188.32 429.98) rotate(-59.32)"/>
  <rect class="cls-9" x="355.33" y="480.6" width=".55" height="3.28" transform="translate(-240.58 542.02) rotate(-59.32)"/>
  <path class="cls-9" d="M348.45,478.31l-5.61-3.33.28-.47,5.61,3.33-.28.47ZM337.23,471.65l-5.61-3.33.28-.47,5.61,3.33-.28.47ZM326.02,465l-5.61-3.33.28-.47,5.61,3.33-.28.47ZM314.8,458.35l-5.61-3.33.28-.47,5.61,3.33-.28.47ZM303.59,451.69l-5.61-3.33.28-.47,5.61,3.33-.28.47ZM292.37,445.04l-5.61-3.33.28-.47,5.61,3.33-.28.47ZM281.16,438.39l-5.61-3.33.28-.47,5.61,3.33-.28.47ZM269.94,431.73l-5.61-3.33.28-.47,5.61,3.33-.28.47Z"/>
  <rect class="cls-9" x="257.18" y="422.37" width=".55" height="3.28" transform="translate(-238.57 429.09) rotate(-59.32)"/>
  <rect class="cls-9" x="288.13" y="468.66" width=".55" height="3.28" transform="translate(-263.23 478.37) rotate(-59.32)"/>
  <path class="cls-9" d="M281.08,466.28l-5.77-3.42.28-.47,5.77,3.42-.28.47ZM269.54,459.43l-5.77-3.42.28-.47,5.77,3.42-.28.47ZM258.01,452.59l-5.77-3.42.28-.47,5.77,3.42-.28.47Z"/>
  <rect class="cls-9" x="244.92" y="443.03" width=".55" height="3.28" transform="translate(-262.34 428.66) rotate(-59.32)"/>
  <rect class="cls-9" x="267.21" y="503.93" width=".55" height="3.28" transform="translate(-303.8 477.65) rotate(-59.32)"/>
  <path class="cls-9" d="M260.16,501.54l-5.77-3.42.28-.47,5.77,3.42-.28.47ZM248.62,494.69l-5.77-3.42.28-.47,5.77,3.42-.28.47ZM237.09,487.85l-5.77-3.42.28-.47,5.77,3.42-.28.47Z"/>
  <rect class="cls-9" x="224" y="478.29" width=".55" height="3.28" transform="translate(-302.92 427.94) rotate(-59.32)"/>
  <path class="cls-1" d="M238.4,489.12l162.41,96.35c8.19,4.85,18.77,2.15,23.63-6.03l47.45-79.99-.33-.18-107.67,27.48-8.53-33.39c-.32-1.25-1.2-2.28-2.39-2.79-.9-.36-1.89-.42-2.82-.16l-56.42,14.4-6.24-24.41c-.56-2.22-2.82-3.55-5.03-2.99,0,0,0,0,0,0-.38.1-37.1,9.83-44.07,11.71Z"/>
  <path class="cls-4" d="M237.43,489.17l-.14-.53,45.15-11.53c2.48-.63,5.01.87,5.64,3.35l6.11,23.93,56.11-14.32c2.48-.63,5.01.87,5.64,3.35l8.4,32.91,108.23-27.63.14.53-108.76,27.76-8.54-33.44c-.56-2.19-2.79-3.51-4.98-2.96,0,0,0,0,0,0l-56.64,14.46-6.25-24.46c-.56-2.19-2.79-3.51-4.98-2.96l-45.15,11.53Z"/>
  <circle class="cls-4" cx="289.81" cy="471.14" r="3.82"/>
  <circle class="cls-4" cx="357.01" cy="483.07" r="3.82"/>
  <circle class="cls-4" cx="474.09" cy="492.28" r="3.82"/>
  <path class="cls-2" d="M174.38,496.81c-4.33-3.48-5.02-9.81-1.55-14.14.37-.46.78-.89,1.23-1.28l-13.38-33.14,18.2,3.68,9.91,30.9c3.39,4.44,2.53,10.78-1.91,14.17-3.72,2.83-8.89,2.75-12.51-.2h0Z"/>
  <path class="cls-4" d="M174.16,482.45c-2.03.15-3.9-1.08-4.58-3l-21.66-61.72-4.63-61.57c-.53-7.06,4.76-13.21,11.82-13.74,7.06-.53,13.21,4.76,13.74,11.82,0,.12.02.25.02.37l2.59,56.23,17,62.22c.61,2.26-.61,4.61-2.82,5.42l-10.3,3.71c-.39.14-.79.23-1.2.26Z"/>
  <path class="cls-3" d="M575.72,427.77c-.4-.18-.78-.41-1.12-.7l-20.14-16.97c-1.93-1.63-2.18-4.51-.55-6.45.08-.1.17-.19.26-.28l18.28-18.35c1.59-1.61,4.11-1.81,5.93-.47l13.82,10.04c1.78,1.29,2.39,3.67,1.45,5.66l-11.96,25.28c-1.06,2.24-3.7,3.23-5.97,2.24Z"/>
  <polygon class="cls-2" points="654.28 667.73 642.25 671 623.9 626.16 641.65 621.33 654.28 667.73"/>
  <path class="cls-6" d="M632.48,669.97l23.44-6.38h0l3.97,14.61h0l-37.81,10.29h0l-.07-.24c-2.16-7.93,2.52-16.11,10.46-18.27h0Z"/>
  <polygon class="cls-2" points="551.44 676.91 538.97 676.91 533.04 628.82 551.44 628.82 551.44 676.91"/>
  <path class="cls-6" d="M529.82,673.35h24.29v15.14h-39.18v-.25c0-8.22,6.67-14.89,14.89-14.89Z"/>
  <ellipse class="cls-2" cx="570.22" cy="336.27" rx="24.97" ry="26.79"/>
  <path class="cls-6" d="M550.68,642.62h-17.04c-2.42,0-4.42-1.88-4.57-4.29-5.08-80.7-2.11-138.59,9.34-182.17.05-.19.11-.38.19-.56l.91-2.28c.69-1.74,2.38-2.88,4.25-2.88h35.03c1.34,0,2.61.58,3.47,1.6l4.76,5.55c.09.11.18.22.26.33,21.46,29.92,40.69,88.42,62.96,167.05.68,2.38-.65,4.86-3.01,5.61l-18.31,5.86c-2.17.68-4.52-.32-5.52-2.37l-47.51-98.54c-.85-1.77-2.98-2.51-4.75-1.66-1.07.52-1.82,1.54-1.98,2.72l-13.96,102.08c-.32,2.26-2.25,3.95-4.53,3.96Z"/>
  <path class="cls-1" d="M585.11,457.99s-.1,0-.14,0l-42.55-1.34c-2.26-.06-4.13-1.77-4.4-4.02-5.39-43.67,9.4-55.36,16.01-58.36,1.12-.51,1.9-1.57,2.05-2.79l.57-4.58c.1-.81.41-1.58.9-2.22,10.37-13.43,24.52-17.73,32.03-19.09,2.48-.45,4.86,1.21,5.3,3.69.01.07.03.15.03.23l.86,6.57c.09.63.34,1.22.73,1.72,21.62,28.26-2.47,69.99-7.51,78.06h0c-.84,1.33-2.3,2.14-3.88,2.14Z"/>
  <path class="cls-6" d="M597.7,318.92c-1.85-5.62-3.22-11.4-4.09-17.25-.27-3.41.6-7.08,3.08-9.43,4.65-4.4,12.54-2.31,17.4,1.86,7.02,6.02,10.53,15.28,11.85,24.44s.74,18.47,1.06,27.72,1.64,18.76,6.36,26.72,13.46,14.07,22.69,13.4c3.72-.2,7.26-1.7,10-4.24,2.72-2.59,4.02-6.34,3.48-10.07,4.72,8.45,2.33,19.89-4.71,26.53s-17.86,8.52-27.1,5.68-16.86-9.94-21.41-18.48-6.21-18.4-5.97-28.07c.19-7.43,1.45-14.91.19-22.23s-5.84-14.76-13.06-16.48l.23-.09Z"/>
  <path class="cls-6" d="M565.25,328.55c-1.23,4.12-5.94,6.65-10.18,5.96-4.3-.89-7.76-4.08-9.01-8.28-1.16-4.19-.69-8.66,1.33-12.5,2.25-4.66,6.26-8.23,11.14-9.92,4.93-1.64,10.36-.77,14.54,2.32.45-1.88,1.88-3.38,3.74-3.91,1.84-.5,3.78-.47,5.61.08,5.26,1.5,9.81,4.81,12.86,9.35,3.01,4.53,4.99,9.65,5.83,15.02,1.43,8.05.91,16.85-3.62,23.67s-13.77,10.84-21.28,7.59c-.47-2.39.64-4.8,1.92-6.88s2.8-4.09,3.3-6.48-.45-5.31-2.76-6.09c-1.97-.67-4.07.41-6.15.54-3.71.23-6.91-2.59-7.14-6.3-.07-1.18.16-2.35.68-3.4l-.79-.77Z"/>
  <path class="cls-2" d="M501.96,431.43c.41.38.8.8,1.14,1.24l50.28-3.91,5.3-11.04,17.71,5.82-9.58,26.2-63.33-4.25c-3.4,4.81-10.06,5.96-14.88,2.55-4.81-3.4-5.96-10.06-2.55-14.88,3.4-4.81,10.06-5.96,14.88-2.55.36.25.7.53,1.03.83h0Z"/>
  <path class="cls-10" d="M576.12,440.98c-.42-.12-.83-.3-1.2-.54l-22.27-14.06c-2.14-1.35-2.77-4.17-1.43-6.31.07-.11.14-.21.22-.31l15.61-20.67c1.35-1.81,3.83-2.35,5.81-1.28l15.06,8.06c1.94,1.04,2.87,3.31,2.21,5.41l-8.4,26.67c-.74,2.36-3.23,3.7-5.61,3.03h0Z"/>
</svg>