<?xml version="1.0" encoding="utf-8"?>
<!-- Generator: Adobe Illustrator 27.5.0, SVG Export Plug-In . SVG Version: 6.00 Build 0)  -->
<svg version="1.1" xmlns="http://www.w3.org/2000/svg" xmlns:xlink="http://www.w3.org/1999/xlink" x="0px" y="0px"
	 viewBox="0 0 3710 3710" style="enable-background:new 0 0 3710 3710;" xml:space="preserve">
<g id="Background">
	<g>
		<g>
			<rect style="fill:#FFFFFF;" width="3710" height="3710"/>
		</g>
	</g>
</g>
<g id="Illustration">
	<g>
		<linearGradient id="SVGID_1_" gradientUnits="userSpaceOnUse" x1="3572.0823" y1="3984.1787" x2="1135.1871" y2="957.7076">
			<stop  offset="0" style="stop-color:#DAE3FE"/>
			<stop  offset="1" style="stop-color:#E9EFFD"/>
		</linearGradient>
		<path style="fill:url(#SVGID_1_);" d="M2901.677,2790.648c-55.975,58.927-108.937,96.929-150.782,126.953
			c-491.876,352.927-1073.896,250.05-1197.592,224.927c-182.66-37.099-535.737-108.811-791.005-409.001
			c-386.2-454.163-326.063-1169.685-26.5-1642.01c54.795-86.396,344.236-565.916,932.525-642.816
			c356.026-46.539,771.038,47.325,1071.578,299.118C3370.762,1276.354,3325.852,2344.091,2901.677,2790.648z"/>
		<g>
			<g>
				
					<linearGradient id="SVGID_00000057106302628201469960000015949117294004167562_" gradientUnits="userSpaceOnUse" x1="1073.282" y1="1808.0594" x2="2818.9634" y2="1808.0594">
					<stop  offset="0" style="stop-color:#09005D"/>
					<stop  offset="1" style="stop-color:#1A0F91"/>
				</linearGradient>
				<path style="fill:url(#SVGID_00000057106302628201469960000015949117294004167562_);" d="M1101.835,585.727
					c-9.189,433.719-38.998,1929.766-24.767,2459.92c1.508,56.166,39.993,101.246,88.003,103.082
					c237.448,9.092,1107.923,32.132,1496.311,13.07c80.894-3.97,145.224-80.628,146.902-175.324
					c8.072-455.241,25.879-1735.658-16.444-2322.22c-5.071-70.279-52.223-126.246-112.212-133.264
					c-258.594-30.265-1132.812-104.239-1468.354-78.768C1150.756,456.819,1103.341,514.808,1101.835,585.727z"/>
				<path style="fill:#91B3FA;" d="M1207.785,718.795c-12.779,350.073-53.095,1514.684-40.3,1945.334
					c1.87,62.945,44.278,113.842,98.027,117.519c221.288,15.151,976.28,48.555,1300.857,18.15
					c58.446-5.476,104.311-60.771,107.463-129.266c16.449-357.145,63.677-1441.562,51.41-1867.385
					c-1.955-67.93-46.936-123.409-104.802-129.484c-239.405-25.149-1041.664-84.977-1317.482-67.374
					C1251.179,609.593,1209.999,658.19,1207.785,718.795z"/>
				<path style="fill:#7D97F4;" d="M1762.047,538.017L1762.047,538.017c0,13.309,8.867,24.284,20.228,24.98
					c56.085,3.437,214.073,13.159,284.682,17.951c13.921,0.945,24.849-13.696,22.207-29.711l-0.451-2.736
					c-1.802-10.93-9.55-19.156-19.027-20.172c-47.726-5.117-191.738-19.304-287.16-15.318
					C1771.062,513.488,1762.047,524.602,1762.047,538.017z"/>
			</g>
			<path style="fill:#BDD0FB;" d="M1356.619,2730.287c-47.958-1.474-86.071-40.777-86.071-88.757v-784.093
				c0-50.239,41.642-90.473,91.851-88.746l1166.136,6.918c43.833,0.26,79.23,35.867,79.229,79.702l0.003,794.184
				c0,44.621-36.172,80.793-80.792,80.793H1356.619z"/>
			<path style="fill:#BDD0FB;" d="M2607.763,1646.436c0,39.612-32.468,71.534-72.074,70.864l-1196.582-20.263
				c-38.245-1.358-68.549-32.755-68.549-71.025V796.705c0-40.178,33.279-72.367,73.435-71.03l1195.072,39.795
				c38.309,1.276,68.704,32.7,68.704,71.03L2607.763,1646.436z"/>
			<path style="opacity:0.77;fill:#FFFFFF;" d="M2518.475,944.902h-599.264c-4.285,0-7.758-3.473-7.758-7.758v-41.059
				c0-4.284,3.473-7.758,7.758-7.758h599.264c4.284,0,7.758,3.473,7.758,7.758v41.059
				C2526.232,941.429,2522.759,944.902,2518.475,944.902z"/>
			<path style="opacity:0.77;fill:#FFFFFF;" d="M2518.475,1039.97h-599.264c-4.285,0-7.758-3.473-7.758-7.758v-41.059
				c0-4.284,3.473-7.758,7.758-7.758h599.264c4.284,0,7.758,3.473,7.758,7.758v41.059
				C2526.232,1036.497,2522.759,1039.97,2518.475,1039.97z"/>
			<g>
				<path style="fill:#FFFFFF;" d="M2466.1,2650.438H1419.095c-34.512,0-62.372-26.271-63.424-59.808l-21.88-696.409
					c-0.518-16.489,5.603-32.179,17.235-44.183c12.117-12.505,28.525-19.391,46.192-19.391H2466.1
					c34.99,0,63.456,27.674,63.456,61.689v696.41C2529.556,2622.764,2501.09,2650.438,2466.1,2650.438z M1397.219,1840.655
					c-14.938,0-28.788,5.806-39.007,16.349c-9.73,10.041-14.85,23.147-14.42,36.904l21.88,696.41
					c0.883,28.101,24.349,50.115,53.424,50.115H2466.1c29.473,0,53.45-23.186,53.45-51.684v-696.41
					c0-28.498-23.977-51.683-53.45-51.683H1397.219z"/>
				
					<rect x="1239.657" y="2233.348" transform="matrix(0.0039 -1 1 0.0039 -598.0239 3876.3367)" style="fill:#FFFFFF;" width="814.174" height="10.007"/>
				
					<rect x="1855.292" y="2233.348" transform="matrix(0.0039 -1 1 0.0039 15.2052 4491.9668)" style="fill:#FFFFFF;" width="814.174" height="10.007"/>
				
					<rect x="2081.409" y="1575.589" transform="matrix(0.0065 -1 1 0.0065 59.1169 4086.9819)" style="fill:#FFFFFF;" width="10.007" height="876.299"/>
				<rect x="1645.855" y="2258.73" style="fill:#FFFFFF;" width="878.61" height="10.007"/>
				<rect x="1647.106" y="2456.851" style="fill:#FFFFFF;" width="878.61" height="10.007"/>
			</g>
			<path style="fill:#FFFFFF;" d="M2472.921,1345.708H1397.632c-30.349,0-55.036-24.689-55.036-55.036v-96.628
				c0-30.347,24.687-55.036,55.036-55.036h1075.288c30.349,0,55.036,24.689,55.036,55.036v96.628
				C2527.957,1321.019,2503.27,1345.708,2472.921,1345.708z M1397.632,1149.015c-24.831,0-45.029,20.2-45.029,45.029v96.628
				c0,24.829,20.199,45.029,45.029,45.029h1075.288c24.831,0,45.029-20.2,45.029-45.029v-96.628
				c0-24.829-20.199-45.029-45.029-45.029H1397.632z"/>
			<path style="fill:#FFFFFF;" d="M2472.921,1609.764H1397.632c-30.349,0-55.036-24.689-55.036-55.036v-96.626
				c0-30.347,24.687-55.036,55.036-55.036h1075.288c30.349,0,55.036,24.689,55.036,55.036v96.626
				C2527.957,1585.075,2503.27,1609.764,2472.921,1609.764z M1397.632,1413.073c-24.831,0-45.029,20.2-45.029,45.03v96.626
				c0,24.829,20.199,45.03,45.029,45.03h1075.288c24.831,0,45.029-20.2,45.029-45.03v-96.626c0-24.829-20.199-45.03-45.029-45.03
				H1397.632z"/>
		</g>
		<g>
			<circle style="opacity:0.76;fill:#FFFFFF;" cx="1958.138" cy="1607.95" r="470.013"/>
			<g>
				
					<linearGradient id="SVGID_00000162353420321772133120000010960646340229961350_" gradientUnits="userSpaceOnUse" x1="2125.322" y1="853.4933" x2="1635.025" y2="1839.09">
					<stop  offset="0" style="stop-color:#FF928E"/>
					<stop  offset="1" style="stop-color:#FE7062"/>
				</linearGradient>
				<path style="fill:url(#SVGID_00000162353420321772133120000010960646340229961350_);" d="M1845.223,1214.393
					c-94.844,32.956-147.502,129.397-117.616,215.407c29.886,86.01,131,129.018,225.844,96.063L1845.223,1214.393z"/>
				
					<linearGradient id="SVGID_00000120517924759339272700000004031365668525186490_" gradientUnits="userSpaceOnUse" x1="2161.0056" y1="871.2445" x2="1670.709" y2="1856.8406">
					<stop  offset="0" style="stop-color:#FF928E"/>
					<stop  offset="1" style="stop-color:#FE7062"/>
				</linearGradient>
				<path style="fill:url(#SVGID_00000120517924759339272700000004031365668525186490_);" d="M1953.451,1525.862L1953.451,1525.862
					l-108.228-311.469l0,0c44.164-15.346,92.405,8.016,107.751,52.179l52.656,151.538
					C2020.977,1462.274,1997.615,1510.516,1953.451,1525.862z"/>
				
					<linearGradient id="SVGID_00000138567852324052663940000005751995447704498615_" gradientUnits="userSpaceOnUse" x1="2427.199" y1="1003.6671" x2="1936.9021" y2="1989.2635">
					<stop  offset="0" style="stop-color:#FF928E"/>
					<stop  offset="1" style="stop-color:#FE7062"/>
				</linearGradient>
				<path style="fill:url(#SVGID_00000138567852324052663940000005751995447704498615_);" d="M1997.401,1665.493
					c-94.843,32.956-147.502,129.396-117.616,215.407c29.886,86.01,131,129.018,225.844,96.063L1997.401,1665.493z"/>
				
					<linearGradient id="SVGID_00000130618076302828644150000005769097087791865789_" gradientUnits="userSpaceOnUse" x1="2462.8826" y1="1021.4181" x2="1972.5863" y2="2007.0137">
					<stop  offset="0" style="stop-color:#FF928E"/>
					<stop  offset="1" style="stop-color:#FE7062"/>
				</linearGradient>
				<path style="fill:url(#SVGID_00000130618076302828644150000005769097087791865789_);" d="M2105.629,1976.963L2105.629,1976.963
					l-108.228-311.469l0,0c44.164-15.346,92.406,8.016,107.751,52.179l52.656,151.538
					C2173.154,1913.375,2149.792,1961.617,2105.629,1976.963z"/>
				
					<linearGradient id="SVGID_00000148648828697749069010000010478793035408331142_" gradientUnits="userSpaceOnUse" x1="2223.9973" y1="902.5785" x2="1733.7012" y2="1888.1735">
					<stop  offset="0" style="stop-color:#FF928E"/>
					<stop  offset="1" style="stop-color:#FE7062"/>
				</linearGradient>
				<path style="fill:url(#SVGID_00000148648828697749069010000010478793035408331142_);" d="M1991.068,1869.861l-98.641,34.275
					c-100.435-131.19-157.314-294.881-170.635-491.072l98.64-34.275L1991.068,1869.861z"/>
			</g>
		</g>
		<g>
			
				<linearGradient id="SVGID_00000019657187582090895790000010239374139443741831_" gradientUnits="userSpaceOnUse" x1="2789.5789" y1="-238.454" x2="2496.6204" y2="121.6972" gradientTransform="matrix(0.8137 0.5813 -0.5813 0.8137 355.8974 -58.7993)">
				<stop  offset="0" style="stop-color:#FEBBBA"/>
				<stop  offset="1" style="stop-color:#FF928E"/>
			</linearGradient>
			<path style="fill:url(#SVGID_00000019657187582090895790000010239374139443741831_);" d="M2693.724,1492.358
				c-5.773-36.245-62.687,0.297-77.282,9.217c-36.855,22.525-71.887,41.347-116.739,42.783c-27.747,0.889-58.289-7.65-76.294-30.464
				c-64.85-82.172-18.286-148.153,15.035-198.689c11.87-12.606,13.382-32.425,6.322-43.988c-8.196-13.427-3.998-28.834-3.998-28.834
				s-20.681,12.027-16.786,27.374c1.36,5.363-0.085,9.52-2.515,12.695c-1.012-1.013-2.069-2.033-3.195-3.074
				c-22.394-20.641-22.857,32.188-22.857,32.188s-115.844,111.831-43.389,240.927c35.866,63.904,81.554,87.469,118.643,95.024
				c17.753,5.188,36.379,5.032,54.982,1.153c7.232-1.198,11.42-2.504,11.42-2.504l0.297-0.401
				C2620.409,1621.518,2699.259,1527.117,2693.724,1492.358z"/>
			<g>
				
					<linearGradient id="SVGID_00000032629375453287633680000008842524202475979169_" gradientUnits="userSpaceOnUse" x1="2500.5754" y1="-157.8291" x2="2511.5569" y2="102.9854" gradientTransform="matrix(0.8137 0.5813 -0.5355 0.7496 333.5346 -27.4353)">
					<stop  offset="0" style="stop-color:#09005D"/>
					<stop  offset="1" style="stop-color:#1A0F91"/>
				</linearGradient>
				<path style="fill:url(#SVGID_00000032629375453287633680000008842524202475979169_);" d="M2447.119,1428.748
					c7.053-3.783,11.802-11.952,15.477-18.469c8.515-15.102,18.63-28.998,28.449-43.265c25.442-36.965,51.939-73.315,74.817-111.979
					c4.938-8.345,11.482-15.577,16.409-23.88c12.504-21.073,4.045-35.972-14.033-55.148c-15.291-16.219-31.245-34.907-52.205-44.443
					c-8.256-3.756-17.831-5.084-23.711,1.234c-23.741,25.509-154.465,210.418-121.249,241.805
					c11.217,10.6,22.13,21.426,33.03,32.313c7.751,7.741,17.309,19.214,28.125,22.796
					C2438.132,1431.667,2443.015,1430.949,2447.119,1428.748z"/>
				
					<linearGradient id="SVGID_00000097477013775071464460000003793815295938474124_" gradientUnits="userSpaceOnUse" x1="2619.0447" y1="-363.9042" x2="2391.4961" y2="-84.1651" gradientTransform="matrix(0.8137 0.5813 -0.5355 0.7496 333.5346 -27.4353)">
					<stop  offset="0" style="stop-color:#09005D"/>
					<stop  offset="1" style="stop-color:#1A0F91"/>
				</linearGradient>
				<path style="fill:url(#SVGID_00000097477013775071464460000003793815295938474124_);" d="M2432.507,1418.309
					c7.053-3.784,11.802-11.952,15.476-18.469c8.516-15.101,18.63-28.998,28.45-43.265c25.442-36.965,51.94-73.315,74.818-111.979
					c4.938-8.345,11.482-15.577,16.409-23.88c12.504-21.074,4.045-35.972-14.034-55.148c-15.291-16.219-31.245-34.907-52.205-44.443
					c-8.256-3.756-17.831-5.084-23.712,1.234c-23.741,25.509-154.465,210.419-121.249,241.805
					c11.218,10.6,22.13,21.426,33.03,32.313c7.751,7.741,17.309,19.214,28.126,22.797
					C2423.52,1421.228,2428.403,1420.51,2432.507,1418.309z"/>
			</g>
			
				<linearGradient id="SVGID_00000030459359434723778030000012281251928324327585_" gradientUnits="userSpaceOnUse" x1="2476.199" y1="-196.4387" x2="2387.8184" y2="-87.7872" gradientTransform="matrix(0.8137 0.5813 -0.5813 0.8137 355.8974 -58.7993)">
				<stop  offset="0" style="stop-color:#FEBBBA"/>
				<stop  offset="1" style="stop-color:#FF928E"/>
			</linearGradient>
			<path style="fill:url(#SVGID_00000030459359434723778030000012281251928324327585_);" d="M2366.82,1285.667
				c0,0-3.44-9.317,10.45-40.376c13.891-31.059,20.18-51.39,40.119-56.158c19.939-4.768,37.297,6.806,27.913,19.941
				c-9.384,13.136-29.514,35.301-40.994,55.533C2392.83,1284.839,2356.369,1326.042,2366.82,1285.667z"/>
			
				<linearGradient id="SVGID_00000064334681671948483110000013889627385187235734_" gradientUnits="userSpaceOnUse" x1="2606.3848" y1="1292.2828" x2="3416.8779" y2="2322.9094" gradientTransform="matrix(0.9999 -0.015 0.015 0.9999 -78.3148 17.0219)">
				<stop  offset="0" style="stop-color:#E1473D"/>
				<stop  offset="1" style="stop-color:#E9605A"/>
			</linearGradient>
			<path style="fill:url(#SVGID_00000064334681671948483110000013889627385187235734_);" d="M2533.706,1212.13
				c0,0-45.956-112.605,127.385-89.902c173.34,22.703,131.212,88.145,144.913,139.284c13.702,51.14,86.423,109.094,288.793,187.997
				c202.37,78.903,142.371,294.017,51.472,365.415c-90.898,71.398-140.47,23.942-161.612,147.172
				c-21.142,123.231-105.48,223.31-210.706,118.847c-105.226-104.462-224.826-227.99-191.378-389.966
				c33.448-161.977-4.43-131.335-69.725-205.642C2447.553,1411.027,2585.952,1339.1,2533.706,1212.13z"/>
			
				<linearGradient id="SVGID_00000070110101897256066650000010891934877719101332_" gradientUnits="userSpaceOnUse" x1="2929.9927" y1="1367.3909" x2="3655.4312" y2="336.7689">
				<stop  offset="0" style="stop-color:#4F52FF"/>
				<stop  offset="1" style="stop-color:#4042E2"/>
			</linearGradient>
			<path style="fill:url(#SVGID_00000070110101897256066650000010891934877719101332_);" d="M2573.583,1502.92
				c28.125-8.432,110.019-24,187.913,47.885c13.211,12.191,18.611,30.717,13.899,48.065
				c-20.922,77.024-69.628,301.396-21.226,399.859c0,0-91.789,97.22-184.842,21.437c0,0-41.751-181.963-96.435-261.844
				c-37.755-55.15,60.2-207.096,84.985-243.804C2561.629,1508.958,2567.16,1504.845,2573.583,1502.92z"/>
			
				<linearGradient id="SVGID_00000114778588274041278460000008996414538142765953_" gradientUnits="userSpaceOnUse" x1="-6133.8096" y1="2597.2573" x2="-6111.2979" y2="2437.4236" gradientTransform="matrix(0.9602 0.2794 -0.2794 0.9602 9200.4277 797.6744)">
				<stop  offset="0" style="stop-color:#FEBBBA"/>
				<stop  offset="1" style="stop-color:#FF928E"/>
			</linearGradient>
			<path style="fill:url(#SVGID_00000114778588274041278460000008996414538142765953_);" d="M2651.242,1349.891
				c0,0,41.596,117.657,44.725,169.563c0,0-45.973,20.905-89.292-14.378c0,0-4.545-117.52-11.113-138.563L2651.242,1349.891z"/>
			
				<linearGradient id="SVGID_00000111892435445908339880000000545382844524225687_" gradientUnits="userSpaceOnUse" x1="5316.6182" y1="3404.2253" x2="5818.8003" y2="2517.7668" gradientTransform="matrix(-1 -0.0095 -0.0095 1 8305.918 56.9446)">
				<stop  offset="0" style="stop-color:#FEBBBA"/>
				<stop  offset="1" style="stop-color:#FF928E"/>
			</linearGradient>
			<path style="fill:url(#SVGID_00000111892435445908339880000000545382844524225687_);" d="M2460.697,2402.215
				c0.321,8.261-14.183,73.784-22.077,108.734c-3.177,14.062-0.964,28.78,6.196,41.292l273.36,460.079
				c3.308,5.565,5.714,11.594,7.178,17.9c5.009,21.591,15.4,74.504,9.975,122.64l-14.141,29.371l61.159-13.887l13.307-164.242
				l-17.314-10.557c-14.958-9.12-26.604-22.754-33.274-38.954c-24.718-60.043-86.099-212.881-101.922-287.365
				c-17.982-84.651-111.985-153.408-111.985-153.408l16.514-39.044L2460.697,2402.215z"/>
			
				<linearGradient id="SVGID_00000055686711091272302400000007489027087247593387_" gradientUnits="userSpaceOnUse" x1="5426.0908" y1="3090.812" x2="5572.8789" y2="3090.812" gradientTransform="matrix(-1 -0.0095 -0.0095 1 8305.918 56.9446)">
				<stop  offset="0" style="stop-color:#4F52FF"/>
				<stop  offset="1" style="stop-color:#4042E2"/>
			</linearGradient>
			<path style="fill:url(#SVGID_00000055686711091272302400000007489027087247593387_);" d="M2850.316,3111.826
				c0,0-33.026-52.361-36.912-72.744c-3.885-20.382-14.704-56.375-35.065-45.539c0,0-9.595,99.011-6.287,137.698
				c3.308,38.688-43.735,37.444-43.735,37.444s-12.965,1.823-22.46,11.314c-6.556,6.555-1.868,17.927,7.383,18.524
				c15.394,0.992,39.847,1.252,65.521-3.71c8.973-1.734,15.625-9.37,16.169-18.493l6.778-113.953l41.661,52.604L2850.316,3111.826z"
				/>
			
				<linearGradient id="SVGID_00000179623035372197202030000000121575426509890182_" gradientUnits="userSpaceOnUse" x1="5885.7134" y1="2748.4465" x2="5134.6816" y2="2988.6021" gradientTransform="matrix(-1 -0.0095 -0.0095 1 8305.918 56.9446)">
				<stop  offset="0" style="stop-color:#FEBBBA"/>
				<stop  offset="1" style="stop-color:#FF928E"/>
			</linearGradient>
			<path style="fill:url(#SVGID_00000179623035372197202030000000121575426509890182_);" d="M2623.999,2475.5
				c0,0,9.641,411.538,10.948,469.986c1.305,58.448-9.23,187.977-67.824,226.694l25.497,18.877c0,0,31.864-27.082,62.992-79.202
				c34.969-58.551,45.544-69.249,45.544-69.249l-11.603-23.763c-5.081-10.404-6.574-22.173-4.234-33.512
				c12.644-61.282,54.885-265.118,66.407-309.015c13.602-51.818,14.569-121.015-32.751-178.937
				C2671.654,2439.457,2623.999,2475.5,2623.999,2475.5z"/>
			
				<linearGradient id="SVGID_00000012454122334438647020000007758529599446305154_" gradientUnits="userSpaceOnUse" x1="5562.1821" y1="3117.3235" x2="5737.1694" y2="3117.3235" gradientTransform="matrix(-1 -0.0095 -0.0095 1 8305.918 56.9446)">
				<stop  offset="0" style="stop-color:#4F52FF"/>
				<stop  offset="1" style="stop-color:#4042E2"/>
			</linearGradient>
			<path style="fill:url(#SVGID_00000012454122334438647020000007758529599446305154_);" d="M2678.106,3209.604
				c1.818,0.018,3.363-1.284,3.619-3.083c1.951-13.721,10.066-68.726,16.71-82.968c7.609-16.311,32.464-84.966-0.013-90.794
				c0,0-80.741,117.962-96.239,133.865c-15.499,15.904-35.06,5.555-35.06,5.555s-15.101,4.462-26.49,19.014
				c-5.419,6.927-0.371,17.094,8.425,17.179l54.384,0.519c15.793,0.15,29.998-9.445,35.87-24.107
				c9.573-23.91,26.017-58.981,45.183-74.541l-9.959,95.358C2674.313,3207.728,2675.969,3209.584,2678.106,3209.604
				L2678.106,3209.604z"/>
			
				<linearGradient id="SVGID_00000059307417815260562370000013204902486393996207_" gradientUnits="userSpaceOnUse" x1="3163.0586" y1="752.9888" x2="2856.1914" y2="1666.9209">
				<stop  offset="0" style="stop-color:#4F52FF"/>
				<stop  offset="1" style="stop-color:#4042E2"/>
			</linearGradient>
			<path style="fill:url(#SVGID_00000059307417815260562370000013204902486393996207_);" d="M2556.454,1975.793
				c0,0,12.255,39.062-6.572,103.399l-116.792,407.845c-1.834,6.408,1.624,13.115,7.898,15.366
				c34.935,12.539,149.777,47.977,306.546,37.17c7.894-0.544,14.511-6.133,16.229-13.857
				c10.329-46.495,45.573-205.134,52.83-237.729c27.65-124.202,58.523-258.143-77.297-339.135
				C2676.701,1975.664,2618.32,1991.467,2556.454,1975.793z"/>
			<path style="opacity:0.8;fill:#FFFFFF;" d="M2712.268,1175.936c16.606,3.528,32.615,11.402,44.902,23.714
				c6.011,6.272,10.712,13.824,13.779,22.013l2.04,6.25l1.168,6.46c0.826,4.353,1.223,8.371,1.924,12.556
				c6.078,32.998,20.573,64.499,42.118,90.198c10.62,12.96,22.989,24.491,36.699,34.148c13.647,9.808,28.861,17.007,44.211,24.348
				c15.329,7.266,30.884,14.063,46.665,20.304c15.731,6.373,31.719,12.157,48.103,16.732c-33.352-7.083-65.344-19.496-96.596-33.012
				c-15.595-6.685-31.212-14.237-45.385-24.09c-14.188-9.783-27.062-21.514-38.119-34.768c-21.79-26.742-36.737-59.094-42.04-93.161
				c-0.579-4.221-0.895-8.691-1.55-12.713l-0.906-6.124l-1.742-5.93c-2.644-7.802-6.882-15.07-12.418-21.303
				C2743.972,1189.067,2728.514,1180.689,2712.268,1175.936z"/>
			<path style="opacity:0.8;fill:#FFFFFF;" d="M3152.344,1532.76c13.837,20.335,23.594,43.392,29.903,67.311
				c6.244,23.967,8.044,49.19,5.014,73.94c-3.636,24.66-12.406,48.576-25.943,69.416c-3.592,5.063-6.931,10.294-10.977,14.995
				c-1.97,2.385-3.832,4.861-5.887,7.167l-6.316,6.777c-4.117,4.608-8.986,8.461-13.426,12.707
				c-4.625,4.055-9.568,7.743-14.372,11.546c18.271-16.375,34.624-34.808,47.227-55.533c5.917-10.561,11.648-21.258,15.543-32.72
				c3.983-11.399,6.84-23.172,8.463-35.13c3.397-23.936,1.604-48.435-3.605-72.138c-2.567-11.879-6.12-23.56-10.426-34.973
				C3163.359,1554.658,3158.277,1543.503,3152.344,1532.76z"/>
			
				<linearGradient id="SVGID_00000101091320110574103670000014061260054898148501_" gradientUnits="userSpaceOnUse" x1="-6237.0161" y1="2254.7793" x2="-6026.5254" y2="2496.7869" gradientTransform="matrix(0.9602 0.2794 -0.2794 0.9602 9200.4277 797.6744)">
				<stop  offset="0" style="stop-color:#FEBBBA"/>
				<stop  offset="1" style="stop-color:#FF928E"/>
			</linearGradient>
			<path style="fill:url(#SVGID_00000101091320110574103670000014061260054898148501_);" d="M2593.464,1189.469
				c0,0-108.797,152.256-43.761,196.48c65.035,44.225,142.484-63.976,142.484-63.976s25.244-83.335-1.152-111.604
				C2664.637,1182.097,2593.464,1189.469,2593.464,1189.469z"/>
			
				<linearGradient id="SVGID_00000046333278339786311870000007647421425126654129_" gradientUnits="userSpaceOnUse" x1="2823.1694" y1="1400.0621" x2="3633.6606" y2="2430.6863">
				<stop  offset="0" style="stop-color:#E1473D"/>
				<stop  offset="1" style="stop-color:#E9605A"/>
			</linearGradient>
			<path style="fill:url(#SVGID_00000046333278339786311870000007647421425126654129_);" d="M2728.508,1187.982
				c-20.59-49.58-84.685-34.897-84.685-34.897s-49.981,11.843-56.986,34.457c-3.151,10.173,10.879,20.015,29.257,27.856
				c40.926,17.467,70.669,54.259,79.089,97.951l1.939,10.058C2697.12,1323.407,2749.098,1237.562,2728.508,1187.982z"/>
			
				<linearGradient id="SVGID_00000120538945746944920600000010728814634802430899_" gradientUnits="userSpaceOnUse" x1="-6184.4268" y1="2209.0352" x2="-5973.9395" y2="2451.0391" gradientTransform="matrix(0.9602 0.2794 -0.2794 0.9602 9200.4277 797.6744)">
				<stop  offset="0" style="stop-color:#FEBBBA"/>
				<stop  offset="1" style="stop-color:#FF928E"/>
			</linearGradient>
			<path style="fill:url(#SVGID_00000120538945746944920600000010728814634802430899_);" d="M2671.095,1310.769
				c0,0,42.347-49.043,59.191-17.069c16.843,31.972-38.117,55.975-57.143,40.278L2671.095,1310.769z"/>
			
				<linearGradient id="SVGID_00000167374984994931853170000005381763604159963569_" gradientUnits="userSpaceOnUse" x1="-2996.9197" y1="1878.0638" x2="-2339.9661" y2="1603.2354" gradientTransform="matrix(-1 0 0 1 190.6078 0)">
				<stop  offset="0" style="stop-color:#FEBBBA"/>
				<stop  offset="1" style="stop-color:#FF928E"/>
			</linearGradient>
			<path style="fill:url(#SVGID_00000167374984994931853170000005381763604159963569_);" d="M2767.286,1555.722
				c0,0,374.243,370.471-168.503,222.588c0,0-6.189-46.829,1.889-46.024c176.001,17.559,249.616,57.854,106.545-80.878
				c-5.058-4.905-3.495-23.419-0.242-29.669C2716.881,1602.708,2739.538,1564.916,2767.286,1555.722z"/>
			<g>
				
					<linearGradient id="SVGID_00000108304567791765005610000015068672080824061093_" gradientUnits="userSpaceOnUse" x1="2818.2764" y1="1165.6853" x2="2257.9092" y2="1936.1893">
					<stop  offset="0" style="stop-color:#09005D"/>
					<stop  offset="1" style="stop-color:#1A0F91"/>
				</linearGradient>
				<path style="fill:url(#SVGID_00000108304567791765005610000015068672080824061093_);" d="M2633.864,1868.704l-90.571-316.295
					c-1.028-3.59-4.091-6.209-7.801-6.642c-16.41-1.914-63.959-7.289-118.861-11.933c-66.129-5.594-142.926-10.126-188.817-6.27
					c-6.524,0.548-10.467,7.448-7.565,13.318c26.096,52.797,133.441,267.559,187.196,337.913c1.781,2.331,4.535,3.693,7.468,3.666
					l210.14-1.955C2631.168,1880.449,2635.547,1874.583,2633.864,1868.704z"/>
				<path style="fill:#91B3FA;" d="M2407.237,1506.413l-65.666-10.941c-3.497-0.583-6.361,2.759-5.25,6.126l6.5,19.697
					c0.566,1.715,2.062,2.955,3.852,3.194l63.19,8.441c3.269,0.437,5.964-2.534,5.213-5.745l-4.024-17.197
					C2410.618,1508.136,2409.114,1506.726,2407.237,1506.413z"/>
				<path style="fill:#7D97F4;" d="M2456.406,1562.004l-5.409-28.177c-0.543-2.826-2.876-4.961-5.739-5.252l-132.63-13.459
					c-4.464-0.453-8.039,3.638-6.991,8.001l8.433,35.112c0.675,2.81,3.12,4.839,6.006,4.984l129.606,6.524
					C2453.9,1569.95,2457.202,1566.152,2456.406,1562.004z"/>
				
					<linearGradient id="SVGID_00000119078966941582524550000013743094755496359856_" gradientUnits="userSpaceOnUse" x1="-2430.1111" y1="1738.6619" x2="-2309.4468" y2="1738.6619" gradientTransform="matrix(-1 0 0 1 190.6078 0)">
					<stop  offset="0" style="stop-color:#FEBBBA"/>
					<stop  offset="1" style="stop-color:#FF928E"/>
				</linearGradient>
				<path style="fill:url(#SVGID_00000119078966941582524550000013743094755496359856_);" d="M2611.982,1792.288
					c0,0,12.616-51.879,7.527-70.285c-5.089-18.406-14.95-42.07-47.817-36.812c-32.868,5.259-71.638,19.104-71.638,19.104
					s1.958,23.975,26.938,16.24l-15.49,11.985c0,0,2.214,19.196,23.313,8.941l-14.407,15.896c0,0,9.062,15.766,24.585,5.653
					C2560.517,1752.898,2567.958,1798.535,2611.982,1792.288z"/>
			</g>
		</g>
		<g>
			<g>
				<g style="opacity:0.3;">
					<path style="fill:#7D97F4;" d="M1239.958,1012.997c4.904-0.864,9.769,2.101,11.168,6.993
						c3.063,10.699,5.704,21.69,7.854,32.667c1.046,5.341-2.434,10.518-7.773,11.563c-0.064,0.011-0.127,0.022-0.189,0.033
						c-5.272,0.928-10.34-2.532-11.373-7.809c-2.042-10.429-4.552-20.869-7.46-31.032c-1.498-5.23,1.529-10.687,6.762-12.183
						C1239.282,1013.132,1239.621,1013.056,1239.958,1012.997z M1254.218,1097.63c0.379-0.067,0.768-0.112,1.162-0.135
						c5.432-0.308,10.087,3.847,10.395,9.278c0.631,11.158,0.791,22.454,0.475,33.571c-0.154,5.439-4.667,9.708-10.127,9.571
						c-5.439-0.156-9.722-4.692-9.567-10.127c0.3-10.568,0.147-21.298-0.455-31.903
						C1245.816,1102.849,1249.369,1098.484,1254.218,1097.63z M1249.489,1183.298c1.08-0.19,2.211-0.202,3.355-0.009
						c5.363,0.912,8.976,5.996,8.067,11.36c-1.862,10.996-4.227,22.048-7.03,32.849c-1.37,5.266-6.748,8.421-12.01,7.062
						c-5.265-1.367-8.428-6.745-7.062-12.01c2.662-10.257,4.907-20.75,6.676-31.193
						C1242.2,1187.137,1245.502,1184,1249.489,1183.298z M1225.717,1265.775c1.785-0.314,3.678-0.14,5.476,0.607
						c5.025,2.085,7.408,7.851,5.323,12.875c-4.281,10.308-9.056,20.554-14.195,30.454c-2.51,4.822-8.453,6.705-13.284,4.203
						c-4.828-2.506-6.709-8.454-4.203-13.284c4.882-9.401,9.42-19.133,13.483-28.93
						C1219.657,1268.475,1222.512,1266.339,1225.717,1265.775z M1184.151,1340.878c2.503-0.441,5.174,0.081,7.41,1.669
						c4.439,3.149,5.482,9.299,2.333,13.734c-6.443,9.078-13.366,18.011-20.578,26.541c-3.509,4.158-9.725,4.683-13.883,1.167
						c-4.154-3.512-4.677-9.727-1.165-13.885c6.856-8.108,13.436-16.597,19.559-25.225
						C1179.388,1342.678,1181.688,1341.312,1184.151,1340.878z M1127.01,1404.911c3.243-0.571,6.697,0.493,9.055,3.126
						c3.631,4.054,3.289,10.28-0.762,13.912c-8.304,7.441-17.033,14.621-25.942,21.332c-4.349,3.275-10.523,2.404-13.798-1.943
						c-3.273-4.343-2.404-10.521,1.941-13.795c8.466-6.379,16.758-13.196,24.649-20.267
						C1123.574,1406.001,1125.261,1405.219,1127.01,1404.911z M775.549,1490.624c1.344-0.237,2.755-0.196,4.161,0.166
						c10.249,2.641,20.753,4.871,31.217,6.623c5.365,0.899,8.987,5.978,8.087,11.341c-0.897,5.367-5.976,8.988-11.343,8.089
						c-11.02-1.846-22.083-4.192-32.877-6.972c-5.27-1.358-8.44-6.731-7.081-11.999
						C768.707,1494.009,771.861,1491.274,775.549,1490.624z M1057.145,1454.657c4.025-0.709,8.231,1.153,10.324,4.926
						c2.64,4.76,0.921,10.755-3.836,13.394c-9.752,5.41-19.858,10.46-30.038,15.012c-4.976,2.197-10.795-0.002-13.016-4.972
						c-2.221-4.966,0.006-10.794,4.974-13.016c9.668-4.321,19.264-9.117,28.525-14.253
						C1055.061,1455.204,1056.097,1454.841,1057.145,1454.657z M860.539,1502.532c0.64-0.113,1.301-0.167,1.976-0.149
						c10.588,0.28,21.328,0.104,31.921-0.515c5.432-0.316,10.093,3.83,10.411,9.26c0.315,5.431-3.822,10.117-9.26,10.411
						c-11.147,0.65-22.448,0.835-33.589,0.543c-5.44-0.144-9.734-4.671-9.589-10.108
						C852.534,1507.212,856.022,1503.328,860.539,1502.532z M977.919,1487.549c4.897-0.862,9.756,2.092,11.163,6.974
						c1.507,5.229-1.51,10.687-6.737,12.198c-10.704,3.085-21.686,5.749-32.641,7.913c-0.067,0.016-0.138,0.028-0.206,0.04
						c-5.264,0.927-10.326-2.523-11.369-7.79c-1.056-5.339,2.414-10.522,7.753-11.576c10.405-2.059,20.835-4.591,31.005-7.524
						C977.23,1487.69,977.576,1487.609,977.919,1487.549z"/>
					<path style="fill:#7D97F4;" d="M710.396,1467.373c1.91-0.336,3.94-0.116,5.835,0.762c4.61,2.134,9.341,4.204,14.062,6.163
						c5.026,2.081,7.415,7.845,5.332,12.87c-2.08,5.028-7.846,7.422-12.872,5.33c-4.967-2.056-9.942-4.235-14.794-6.479
						c-4.937-2.284-7.09-8.141-4.806-13.076C704.561,1469.897,707.326,1467.913,710.396,1467.373z"/>
				</g>
				<g style="opacity:0.3;">
					<path style="fill:#7D97F4;" d="M508.694,1244.822c4.683-0.825,9.402,1.845,11.008,6.482c1.66,4.799,3.449,9.646,5.318,14.4
						c1.99,5.065-0.502,10.783-5.565,12.773c-5.086,1.998-10.784-0.504-12.773-5.566c-1.966-5.007-3.852-10.11-5.601-15.163
						c-1.779-5.142,0.947-10.752,6.088-12.533C507.673,1245.041,508.184,1244.911,508.694,1244.822z"/>
					<path style="fill:#7D97F4;" d="M804.26,741.24c4.464-0.786,8.959-1.499,13.483-2.14c5.387-0.761,10.373,2.987,11.136,8.374
						c0.763,5.387-3.008,10.396-8.372,11.138c-10.44,1.479-20.796,3.377-30.898,5.672c-5.313,1.197-10.583-2.118-11.789-7.423
						c-1.206-5.309,2.119-10.588,7.425-11.792C791.493,743.649,797.891,742.362,804.26,741.24z M869.62,735.345
						c0.542-0.095,1.101-0.147,1.671-0.149c10.991-0.056,22.108,0.354,33.039,1.219c5.423,0.428,9.473,5.173,9.044,10.595
						c-0.43,5.425-5.182,9.489-10.599,9.044c-10.382-0.821-20.942-1.208-31.388-1.158c-5.44,0.028-9.872-4.361-9.9-9.799
						C861.464,740.224,864.979,736.162,869.62,735.345z M735.608,760.032c4.574-0.806,9.219,1.725,10.916,6.229
						c1.919,5.094-0.654,10.775-5.745,12.695c-9.74,3.669-19.454,7.806-28.876,12.303c-4.915,2.335-10.792,0.259-13.134-4.65
						c-2.342-4.913-0.259-10.793,4.652-13.135c9.922-4.733,20.154-9.09,30.41-12.956
						C734.417,760.297,735.013,760.137,735.608,760.032z M953.629,744.225c1.232-0.217,2.524-0.198,3.821,0.085
						c10.725,2.358,21.48,5.204,31.962,8.457c5.196,1.613,8.1,7.131,6.487,12.327c-1.613,5.2-7.128,8.105-12.328,6.489
						c-9.953-3.088-20.165-5.791-30.351-8.03c-5.314-1.166-8.674-6.424-7.506-11.737C946.596,747.8,949.815,744.897,953.629,744.225
						z M660.406,798.362c3.752-0.661,7.712,0.9,9.941,4.286c2.993,4.544,1.734,10.655-2.811,13.648
						c-8.689,5.719-17.255,11.893-25.463,18.348c-4.276,3.364-10.471,2.625-13.834-1.655c-3.362-4.277-2.621-10.467,1.655-13.831
						c8.64-6.797,17.659-13.297,26.808-19.32C657.86,799.077,659.122,798.589,660.406,798.362z M595.435,852.267
						c3-0.528,6.202,0.338,8.561,2.615c3.913,3.781,4.021,10.018,0.24,13.931c-7.249,7.505-14.267,15.404-20.858,23.473
						c-3.436,4.219-9.64,4.847-13.861,1.402c-4.215-3.443-4.84-9.647-1.4-13.863c6.937-8.493,14.321-16.804,21.951-24.7
						C591.568,853.569,593.457,852.616,595.435,852.267z M543.761,919.054c2.282-0.402,4.711-0.005,6.844,1.299
						c4.642,2.836,6.104,8.901,3.266,13.543c-5.448,8.911-10.58,18.146-15.251,27.455c-2.44,4.861-8.355,6.829-13.224,4.384
						c-4.862-2.442-6.826-8.36-4.385-13.225c4.918-9.794,10.317-19.518,16.049-28.893
						C538.596,921.108,541.074,919.527,543.761,919.054z M507.885,995.515c1.581-0.278,3.25-0.174,4.877,0.38
						c5.15,1.754,7.902,7.349,6.148,12.5c-3.367,9.881-6.347,20.014-8.861,30.124c-1.313,5.28-6.665,8.496-11.936,7.186
						c-5.282-1.313-8.497-6.658-7.184-11.938c2.647-10.649,5.787-21.322,9.33-31.723
						C501.461,998.518,504.461,996.118,507.885,995.515z M489.663,1078.018c0.889-0.156,1.815-0.191,2.757-0.091
						c5.409,0.575,9.33,5.429,8.752,10.837c-1.101,10.354-1.776,20.89-2.002,31.323c-0.118,5.441-4.64,9.75-10.063,9.634
						c-5.44-0.117-9.754-4.624-9.636-10.065c0.239-10.983,0.948-22.076,2.109-32.975
						C482.056,1082.215,485.448,1078.761,489.663,1078.018z M490.01,1162.452c0.199-0.035,0.401-0.063,0.604-0.087
						c5.405-0.616,10.287,3.268,10.902,8.673c0.869,7.631,1.984,15.324,3.313,22.874c0.481,2.733,0.994,5.455,1.531,8.163
						c1.059,5.338-2.408,10.525-7.745,11.582c-5.382,1.178-10.521-2.406-11.581-7.741c-0.566-2.851-1.103-5.71-1.61-8.587
						c-1.398-7.94-2.571-16.037-3.484-24.062C481.348,1168.065,484.923,1163.348,490.01,1162.452z"/>
					<path style="fill:#7D97F4;" d="M1033.832,771.492c1.929-0.34,3.976-0.11,5.882,0.781c4.83,2.264,9.702,4.672,14.483,7.159
						c4.828,2.51,6.706,8.459,4.196,13.285c-2.512,4.827-8.454,6.709-13.285,4.196c-4.542-2.362-9.171-4.649-13.756-6.799
						c-4.925-2.306-7.048-8.172-4.74-13.099C1028.029,773.995,1030.781,772.03,1033.832,771.492z"/>
				</g>
				<g>
					<path style="fill:#7D97F4;" d="M1040.559,886.334c-1.487-1.283-3.625-1.482-5.323-0.495l-48.445,28.172
						c-23.19-12.13-48.481-20.651-75.084-24.855l-22.089-51.464c-0.775-1.806-2.61-2.92-4.569-2.776l-67.039,4.927
						c-1.96,0.145-3.611,1.516-4.114,3.414l-14.326,54.141c-25.703,8.049-49.476,20.175-70.643,35.567l-52.044-20.785
						c-1.824-0.728-3.909-0.219-5.193,1.268l-43.92,50.888c-1.284,1.488-1.483,3.626-0.495,5.323l28.171,48.445
						c-12.131,23.19-20.65,48.482-24.854,75.084l-51.465,22.09c-1.805,0.774-2.92,2.609-2.776,4.568l4.928,67.04
						c0.144,1.959,1.515,3.611,3.414,4.113l54.141,14.327c8.049,25.703,20.174,49.476,35.566,70.642l-20.786,52.045
						c-0.728,1.823-0.219,3.909,1.268,5.193l50.889,43.919c1.487,1.285,3.625,1.482,5.323,0.495l48.445-28.172
						c23.19,12.131,48.482,20.651,75.084,24.855l22.089,51.465c0.775,1.805,2.609,2.92,4.568,2.776l67.04-4.928
						c1.959-0.143,3.611-1.515,4.113-3.414l14.327-54.141c25.703-8.048,49.476-20.175,70.643-35.566l52.043,20.785
						c1.824,0.729,3.911,0.22,5.194-1.267l43.919-50.889c1.283-1.487,1.482-3.625,0.495-5.323l-28.171-48.445
						c12.131-23.19,20.65-48.482,24.854-75.084l51.465-22.089c1.804-0.774,2.92-2.609,2.775-4.569l-4.927-67.039
						c-0.144-1.959-1.515-3.611-3.414-4.114l-54.141-14.327c-8.049-25.702-20.175-49.475-35.566-70.643l20.785-52.044
						c0.729-1.825,0.22-3.909-1.267-5.194L1040.559,886.334z"/>
					<g>
						<path style="fill:#91B3FA;" d="M861.489,1065.173c32.438-5.713,65.116,13.091,75.8,45.259
							c11.743,35.361-7.47,73.678-42.828,85.422c-17.13,5.694-35.449,4.368-51.579-3.721c-16.134-8.088-28.153-21.976-33.841-39.105
							c-11.743-35.361,7.47-73.678,42.827-85.422C855.057,1066.548,858.273,1065.739,861.489,1065.173z M882.044,1182.778
							c2.505-0.441,4.991-1.067,7.45-1.883c27.109-9.002,41.839-38.386,32.837-65.493c-9.004-27.11-38.381-41.853-65.495-32.839
							c-27.109,9.002-41.839,38.386-32.837,65.493c4.363,13.135,13.576,23.782,25.947,29.984
							C860,1183.081,871.165,1184.694,882.044,1182.778z"/>
					</g>
					<g>
						<path style="fill:#91B3FA;" d="M843.201,969.3c5.571-0.981,11.224-1.688,16.942-2.109l0,0
							c1.799-0.133,3.602-0.236,5.406-0.311c8.893-0.367,17.802-0.025,26.588,1.018c0.12,0.014,0.239,0.028,0.359,0.042
							c0.339,0.042,0.679,0.084,1.019,0.13c0.661,0.083,1.322,0.174,1.981,0.265c1.734,0.242,3.046,1.577,3.337,3.214
							c0.07,0.398,0.079,0.814,0.02,1.235c-0.301,2.155-2.295,3.651-4.448,3.355c-11.091-1.552-22.423-1.917-33.682-1.086
							c-55.93,4.102-103.002,36.962-127.809,83.016c-13.802,25.614-20.712,55.312-18.424,86.419c0.4,5.455,1.073,10.85,2.01,16.163
							c6.302,35.761,24.559,67.998,52.42,92.042c32.002,27.621,72.845,41.126,115.002,38.027
							c87.067-6.409,152.631-82.409,146.233-169.435c-0.394-5.366-1.059-10.692-1.988-15.956
							c-4.021-22.811-12.989-44.489-26.336-63.446c-0.345-0.49-0.562-1.03-0.658-1.584c-0.256-1.455,0.322-2.999,1.612-3.906
							c1.784-1.248,4.238-0.832,5.492,0.955c14.012,19.902,23.43,42.662,27.652,66.61c0.975,5.525,1.672,11.115,2.088,16.747
							c6.717,91.37-62.179,171.161-153.515,177.876c-44.259,3.254-87.134-10.925-120.73-39.921
							c-29.25-25.241-48.415-59.085-55.033-96.626c-0.982-5.579-1.688-11.242-2.111-16.966
							c-3.252-44.262,10.924-87.138,39.919-120.734C771.795,995.079,805.651,975.913,843.201,969.3z"/>
					</g>
				</g>
			</g>
			<g>
				<g style="opacity:0.3;">
					<path style="fill:#7D97F4;" d="M1526.023,699.003c2.592-0.456,5.278,0.814,6.505,3.295c2.293,4.628,4.477,9.39,6.49,14.152
						c1.308,3.094-0.139,6.661-3.236,7.973c-3.095,1.323-6.665-0.142-7.973-3.236c-1.918-4.537-3.999-9.076-6.187-13.494
						c-1.492-3.008-0.258-6.657,2.752-8.153C1524.91,699.278,1525.464,699.102,1526.023,699.003z"/>
					<path style="fill:#7D97F4;" d="M1542.858,742.677c3.037-0.535,6.046,1.306,6.902,4.335c2.424,8.558,4.435,17.338,5.977,26.092
						c0.325,1.843,0.629,3.696,0.918,5.558c0.51,3.325-1.964,6.337-5.085,6.947c-3.321,0.513-6.428-1.764-6.944-5.082
						c-0.275-1.78-0.565-3.551-0.875-5.313c-1.471-8.351-3.389-16.725-5.698-24.886c-0.917-3.235,0.962-6.595,4.194-7.514
						C1542.454,742.761,1542.656,742.713,1542.858,742.677z M1552.497,805.117c0.283-0.05,0.577-0.084,0.87-0.093
						c3.361-0.103,6.169,2.534,6.275,5.894c0.341,10.777,0.015,21.67-0.969,32.372c-0.306,3.348-3.286,5.804-6.615,5.503
						c-3.349-0.309-5.809-3.267-5.503-6.615c0.938-10.211,1.247-20.601,0.924-30.88
						C1547.384,808.237,1549.565,805.633,1552.497,805.117z M1546.707,868.028c0.76-0.134,1.559-0.123,2.359,0.049
						c3.282,0.719,5.357,3.968,4.637,7.25c-2.311,10.514-5.303,21.002-8.902,31.162c-1.122,3.172-4.589,4.827-7.768,3.703
						c-3.166-1.12-4.825-4.599-3.705-7.764c3.431-9.691,6.286-19.685,8.487-29.714
						C1542.362,870.235,1544.351,868.443,1546.707,868.028z M1525.626,927.593c1.241-0.219,2.558-0.052,3.771,0.549
						c3.004,1.504,4.225,5.162,2.721,8.167c-4.827,9.647-10.292,19.074-16.251,28.028c-1.864,2.796-5.645,3.546-8.436,1.691
						c-2.798-1.86-3.557-5.636-1.694-8.438c5.681-8.531,10.896-17.528,15.497-26.725
						C1522.131,929.071,1523.792,927.916,1525.626,927.593z M1490.638,980.201c1.733-0.305,3.585,0.141,5.025,1.378
						c2.548,2.188,2.838,6.028,0.651,8.579c-7.021,8.169-14.609,15.986-22.56,23.226c-2.484,2.272-6.333,2.086-8.596-0.399
						c-2.263-2.486-2.084-6.336,0.399-8.595c7.586-6.911,14.826-14.365,21.522-22.163
						C1488.034,981.118,1489.301,980.437,1490.638,980.201z M1443.948,1022.718c2.244-0.395,4.622,0.496,6.027,2.481
						c1.94,2.741,1.286,6.537-1.454,8.479c-8.794,6.219-18.06,11.948-27.538,17.02c-2.977,1.58-6.651,0.465-8.238-2.495
						c-1.586-2.961-0.468-6.651,2.493-8.234c9.04-4.838,17.871-10.297,26.254-16.226
						C1442.251,1023.204,1443.091,1022.869,1443.948,1022.718z M1388.295,1052.521c2.809-0.495,5.666,1.047,6.727,3.805
						c1.207,3.136-0.357,6.658-3.492,7.867c-10.018,3.858-20.41,7.136-30.889,9.748c-3.281,0.759-6.567-1.179-7.376-4.439
						c-0.813-3.26,1.173-6.56,4.433-7.375c9.998-2.485,19.908-5.612,29.46-9.291
						C1387.534,1052.691,1387.914,1052.588,1388.295,1052.521z M1295.39,1069.667c0.345-0.061,0.704-0.094,1.07-0.092
						c8.871,0.012,17.898-0.461,26.834-1.407c1.354-0.136,2.682-0.285,4.005-0.451c3.338-0.407,6.373,1.961,6.783,5.297
						c0.416,3.342-1.964,6.476-5.294,6.785c-1.412,0.17-2.822,0.334-4.242,0.476c-9.335,0.986-18.799,1.483-28.102,1.468
						c-3.362-0.005-6.08-2.731-6.075-6.092C1290.371,1072.656,1292.537,1070.169,1295.39,1069.667z"/>
				</g>
				<g style="opacity:0.3;">
					<path style="fill:#7D97F4;" d="M1247.857,560.753c3.271-0.576,6.41,1.587,7.031,4.862c0.626,3.299-1.543,6.487-4.845,7.11
						c-9.94,1.883-19.85,4.389-29.453,7.45c-3.191,0.984-6.627-0.745-7.646-3.951c-1.02-3.205,0.752-6.625,3.951-7.646
						c10.073-3.204,20.461-5.836,30.88-7.81C1247.801,560.763,1247.83,560.758,1247.857,560.753z M1278.735,556.805
						c0.217-0.038,0.432-0.064,0.656-0.079c10.569-0.715,21.289-0.793,31.861-0.235c3.357,0.181,5.932,3.04,5.754,6.396
						c-0.174,3.361-3.059,5.927-6.395,5.76c-10.089-0.534-20.317-0.458-30.403,0.22c-3.351,0.228-6.253-2.308-6.479-5.659
						C1273.518,560.071,1275.715,557.337,1278.735,556.805z M1188.663,579.625c2.657-0.468,5.399,0.884,6.581,3.451
						c1.403,3.047,0.069,6.661-2.984,8.067c-9.194,4.238-18.206,9.065-26.788,14.36c-2.873,1.755-6.609,0.874-8.372-1.989
						c-1.764-2.857-0.875-6.609,1.985-8.374c8.996-5.548,18.447-10.61,28.085-15.046
						C1187.66,579.867,1188.16,579.713,1188.663,579.625z M1340.81,560.124c0.681-0.12,1.395-0.125,2.117,0.001
						c10.438,1.848,20.866,4.362,30.992,7.472c3.214,0.985,5.018,4.39,4.033,7.604c-0.987,3.202-4.391,5.008-7.602,4.029
						c-9.656-2.963-19.596-5.357-29.549-7.122c-3.308-0.588-5.517-3.746-4.929-7.054
						C1336.333,562.469,1338.364,560.555,1340.81,560.124z M1135.792,612.244c2.121-0.374,4.377,0.393,5.813,2.192
						c2.101,2.628,1.672,6.457-0.952,8.554c-7.89,6.301-15.474,13.151-22.544,20.369c-2.355,2.406-6.207,2.439-8.607,0.086
						c-2.4-2.353-2.439-6.207-0.086-8.607c7.417-7.563,15.367-14.749,23.637-21.358
						C1133.879,612.822,1134.824,612.414,1135.792,612.244z M1092.288,656.595c1.624-0.286,3.355,0.085,4.763,1.165
						c2.666,2.046,3.169,5.867,1.123,8.532c-6.163,8.031-11.894,16.503-17.03,25.179c-1.714,2.896-5.449,3.85-8.336,2.138
						c-2.893-1.711-3.848-5.44-2.137-8.33c5.384-9.099,11.389-17.982,17.848-26.397
						C1089.483,657.626,1090.842,656.849,1092.288,656.595z M1060.658,710.096c1.141-0.201,2.351-0.082,3.492,0.422
						c3.079,1.347,4.481,4.937,3.132,8.016c-4.067,9.266-7.595,18.866-10.489,28.528c-0.967,3.211-4.357,5.045-7.575,4.079
						c-3.22-0.965-5.047-4.354-4.083-7.577c3.037-10.129,6.736-20.198,10.997-29.92
						C1056.984,711.708,1058.721,710.437,1060.658,710.096z"/>
					<path style="fill:#7D97F4;" d="M1400.501,578.458c1.156-0.204,2.382-0.075,3.535,0.44c4.755,2.125,9.467,4.402,14.01,6.764
						c2.979,1.551,4.142,5.226,2.592,8.208c-1.556,2.971-5.224,4.136-8.208,2.592c-4.331-2.254-8.828-4.425-13.364-6.456
						c-3.068-1.372-4.441-4.974-3.069-8.039C1396.854,580.054,1398.578,578.797,1400.501,578.458z"/>
				</g>
				<g>
					<path style="fill:#7D97F4;" d="M1409.153,656.749c-0.995-0.858-2.426-0.992-3.562-0.331l-32.417,18.851
						c-15.517-8.117-32.441-13.819-50.243-16.632L1308.15,624.2c-0.518-1.208-1.746-1.954-3.057-1.858l-44.86,3.297
						c-1.311,0.097-2.416,1.014-2.753,2.285l-9.586,36.229c-17.199,5.386-33.107,13.5-47.271,23.799l-34.825-13.909
						c-1.221-0.487-2.616-0.146-3.475,0.849l-29.389,34.052c-0.859,0.996-0.992,2.426-0.331,3.562l18.851,32.417
						c-8.118,15.517-13.819,32.442-16.632,50.243l-34.438,14.781c-1.208,0.519-1.954,1.746-1.858,3.057l3.298,44.86
						c0.096,1.311,1.014,2.417,2.284,2.752l36.229,9.587c5.385,17.199,13.5,33.107,23.799,47.271l-13.909,34.826
						c-0.487,1.22-0.147,2.616,0.848,3.474l34.053,29.389c0.995,0.859,2.425,0.991,3.561,0.331l32.417-18.852
						c15.517,8.118,32.441,13.819,50.243,16.632l14.781,34.439c0.519,1.207,1.745,1.954,3.057,1.858l44.86-3.298
						c1.311-0.096,2.416-1.014,2.752-2.285l9.586-36.229c17.199-5.385,33.108-13.5,47.272-23.799l34.824,13.908
						c1.221,0.488,2.617,0.147,3.475-0.848l29.389-34.052c0.858-0.995,0.992-2.425,0.331-3.562l-18.85-32.417
						c8.118-15.517,13.818-32.442,16.631-50.243l34.439-14.781c1.207-0.518,1.954-1.746,1.856-3.057l-3.297-44.859
						c-0.097-1.311-1.014-2.416-2.285-2.753l-36.229-9.587c-5.386-17.198-13.5-33.107-23.799-47.271l13.908-34.826
						c0.487-1.221,0.147-2.616-0.848-3.475L1409.153,656.749z"/>
					<g>
						<path style="fill:#91B3FA;" d="M1289.252,775.606c9.667-1.703,19.585-0.27,28.519,4.208
							c10.989,5.51,19.175,14.971,23.049,26.64c7.999,24.077-5.085,50.178-29.17,58.184c-24.131,7.967-50.191-5.092-58.188-29.175
							c-3.877-11.668-2.976-24.147,2.535-35.134c5.509-10.992,14.97-19.18,26.642-23.052
							C1284.818,776.555,1287.03,775.997,1289.252,775.606z M1302.994,854.306c1.613-0.284,3.221-0.688,4.821-1.217
							c17.715-5.889,27.339-25.087,21.456-42.803c-2.85-8.578-8.871-15.543-16.953-19.592c-8.087-4.054-17.262-4.707-25.848-1.868
							l0,0c-8.581,2.851-15.543,8.874-19.595,16.954c-4.054,8.087-4.716,17.266-1.864,25.85
							C1270.362,847.745,1286.74,857.169,1302.994,854.306z"/>
					</g>
					<g>
						<path style="fill:#91B3FA;" d="M1276.609,708.856c3.792-0.668,7.648-1.147,11.566-1.44c7.782-0.574,15.63-0.357,23.346,0.649
							c0.346,0.048,0.693,0.096,1.039,0.143c2.679,0.373,4.704,2.436,5.152,4.963c0.108,0.614,0.122,1.257,0.031,1.907
							c-0.464,3.328-3.545,5.633-6.868,5.18c-7.195-1.008-14.53-1.242-21.802-0.704l-0.003,0.001
							c-0.399,0.028-0.8,0.063-1.196,0.096c-17.2,1.43-33.392,7.094-47.444,16.326c-7.627,5.012-14.625,11.083-20.805,18.115
							c-0.05,0.057-0.1,0.114-0.151,0.171c-0.153,0.178-0.307,0.35-0.456,0.527c-17.878,20.719-26.623,47.159-24.616,74.451
							c0.257,3.533,0.693,7.022,1.299,10.463c4.08,23.15,15.901,44.02,33.938,59.59c20.719,17.879,47.158,26.617,74.447,24.611
							c27.273-2.015,52.17-14.521,70.053-35.235c17.879-20.718,26.623-47.159,24.616-74.451c-0.253-3.473-0.685-6.921-1.285-10.326
							c-2.604-14.77-8.409-28.802-17.05-41.073c-0.532-0.757-0.869-1.591-1.016-2.445c-0.396-2.247,0.497-4.631,2.489-6.031
							c2.753-1.927,6.542-1.279,8.481,1.475c9.667,13.731,16.164,29.433,19.08,45.952c0.672,3.815,1.155,7.67,1.44,11.554
							c2.244,30.539-7.537,60.118-27.544,83.298c-20.004,23.174-47.818,37.196-78.369,39.42
							c-30.535,2.246-60.114-7.532-83.292-27.542c-20.181-17.413-33.403-40.763-37.968-66.663
							c-0.677-3.845-1.167-7.753-1.457-11.701C1177.921,771.018,1219.441,718.924,1276.609,708.856z"/>
					</g>
				</g>
			</g>
		</g>
		<g>
			<g>
				<g>
					
						<rect x="851.877" y="1805.562" transform="matrix(0.1125 -0.9936 0.9936 0.1125 -1353.9116 3184.5171)" style="fill:#7D97F4;" width="507.899" height="1089.309"/>
					<path style="opacity:0.5;fill:#FFFFFF;" d="M1603.788,2258.786l-32.707,288.768c-23.241-2.633-45.181,16.408-48.096,42.145
						c-0.092,0.818-0.281,2.776-0.241,2.78l-873.664-98.953c0.041,0.005,0.303-1.945,0.395-2.763
						c2.915-25.737-13.549-48.924-37.18-51.6c-0.347-0.039-0.759-0.249-0.759-0.249l31.97-282.268
						c39.843,4.513,46.559-21.511,49.474-47.247c0.093-0.818-0.237-1.013-0.278-1.018l873.665,98.954
						c-0.041-0.005-0.091,0.148-0.183,0.965C1563.269,2234.038,1580.547,2256.154,1603.788,2258.786z"/>
					<g>
						
							<linearGradient id="SVGID_00000105402304055718422350000004750835736143189120_" gradientUnits="userSpaceOnUse" x1="7329.5166" y1="6155.2974" x2="7220.0156" y2="7564.2134" gradientTransform="matrix(0.9937 0.1126 -0.1126 0.9937 -5462.3408 -4703.9722)">
							<stop  offset="0" style="stop-color:#50E7B7"/>
							<stop  offset="0.9964" style="stop-color:#323992"/>
						</linearGradient>
						
							<circle style="fill:url(#SVGID_00000105402304055718422350000004750835736143189120_);" cx="1106.509" cy="2348.907" r="159.784"/>
						<g>
							<path style="fill:#FFFFFF;" d="M1078.328,2454.188l1.901-16.789c-17.422-2.683-34.265-8.774-45.95-15.549
								c-4.173-2.419-5.853-7.599-4.068-12.081l6.036-15.154c2.215-5.559,8.789-7.821,14.012-4.9
								c11.618,6.494,26.218,12.244,42.456,14.084c16.857,1.91,30.075-2.382,31.402-14.096c1.197-10.571-7.804-17.955-30.521-26.894
								c-32.393-12.928-54.742-30.219-51.409-59.647c3.01-26.572,24.736-44.656,59.064-46.265l1.902-16.79
								c0.612-5.403,5.488-9.286,10.89-8.674l9.864,1.117c5.403,0.612,9.286,5.487,8.674,10.889l-1.707,15.075
								c16.121,2.482,27.596,6.587,36.579,10.934c4.602,2.227,6.637,7.686,4.752,12.439l-5.56,14.018
								c-2.144,5.406-8.451,7.785-13.624,5.13c-8.245-4.233-20.038-9.004-35.867-10.797c-20-2.265-26.652,5.372-27.493,12.801
								c-1.036,9.143,10.252,16.787,35.345,27.732c35.88,15.349,49.56,32.525,46.421,60.239
								c-2.88,25.428-24.324,46.149-61.542,47.722l-2.128,18.788c-0.612,5.402-5.487,9.286-10.89,8.674l-9.865-1.117
								C1081.6,2464.465,1077.716,2459.59,1078.328,2454.188z"/>
						</g>
					</g>
				</g>
				<path style="fill:#BDD0FB;" d="M605.042,2166.497c-0.066-0.252-0.088-0.52-0.058-0.793l10.717-94.626
					c0.066-0.574,0.356-1.097,0.806-1.456c0.45-0.358,1.024-0.524,1.598-0.458l267.279,30.272c1.193,0.133,2.05,1.211,1.916,2.403
					c-0.137,1.194-1.211,2.05-2.405,1.915l-265.121-30.028l-10.47,92.467c-0.137,1.194-1.211,2.05-2.405,1.915
					C605.982,2168.003,605.262,2167.34,605.042,2166.497z"/>
				<path style="fill:#FFFFFF;" d="M1324.036,2602.707c-0.066-0.252-0.088-0.52-0.058-0.793c0.137-1.194,1.211-2.05,2.405-1.915
					l261.797,29.654l11.223-99.108c0.137-1.194,1.211-2.051,2.405-1.915c1.196,0.131,2.056,1.208,1.916,2.403l-11.47,101.267
					c-0.066,0.574-0.356,1.097-0.807,1.456c-0.451,0.358-1.024,0.524-1.598,0.459l-263.955-29.898
					C1324.977,2604.213,1324.256,2603.55,1324.036,2602.707z"/>
			</g>
			<g>
				<g>
					
						<rect x="905.739" y="1802.551" transform="matrix(0.3405 -0.9403 0.9403 0.3405 -1441.0195 2640.0447)" style="fill:#91B3FA;" width="511.24" height="1089.309"/>
					<path style="fill:#BDD0FB;" d="M1667.159,2373.426l-98.943,273.252c-21.993-7.964-48.025,6.599-56.844,30.953
						c-0.28,0.773-0.049,0.636-1.148,3.792l-826.723-299.353c1.177-3.128,1.145-2.918,1.425-3.692
						c8.818-24.354-1.735-51.329-24.097-59.426c-0.328-0.119-0.611-1.013-0.611-1.013l96.716-267.102
						c37.701,13.652,50.585-10.524,59.403-34.878c0.281-0.774,0.307-1.467,0.268-1.482l826.722,299.353
						c-0.038-0.014-0.424,0.55-0.704,1.324C1633.804,2339.508,1645.166,2365.462,1667.159,2373.426z"/>
					<g>
						
							<linearGradient id="SVGID_00000100380918554121675070000012627345457396017085_" gradientUnits="userSpaceOnUse" x1="8224.7852" y1="5715.8218" x2="8115.2832" y2="7124.749" gradientTransform="matrix(0.9403 0.3405 -0.3405 0.9403 -4578.083 -5932.603)">
							<stop  offset="0" style="stop-color:#50E7B7"/>
							<stop  offset="0.9964" style="stop-color:#323992"/>
						</linearGradient>
						
							<circle style="fill:url(#SVGID_00000100380918554121675070000012627345457396017085_);" cx="1162.813" cy="2345.562" r="159.784"/>
						<g>
							<path style="fill:#FFFFFF;" d="M1110.928,2441.406l5.752-15.886c-16.321-6.66-31.286-16.5-41.076-25.806
								c-3.496-3.323-3.926-8.752-1.148-12.695l9.394-13.337c3.446-4.892,10.366-5.562,14.768-1.508
								c9.79,9.017,22.653,18.005,38.018,23.569c15.951,5.775,29.805,4.675,33.819-6.41c3.622-10.003-3.416-19.278-23.432-33.253
								c-28.499-20.105-46.217-42.117-36.134-69.964c9.105-25.145,34.441-37.682,68.202-31.267l5.754-15.888
								c1.851-5.112,7.495-7.755,12.608-5.904l9.333,3.38c5.113,1.851,7.755,7.496,5.904,12.608l-5.165,14.264
								c15.102,6.162,25.308,12.822,33.035,19.139c3.958,3.235,4.667,9.019,1.729,13.203l-8.667,12.341
								c-3.342,4.759-10.029,5.607-14.443,1.822c-7.034-6.033-17.395-13.415-32.374-18.839c-18.926-6.853-27.171-0.97-29.716,6.059
								c-3.133,8.651,6.069,18.71,27.929,35.189c31.329,23.271,40.641,43.155,31.146,69.381
								c-8.713,24.061-34.387,39.229-70.951,32.107l-6.437,17.779c-1.851,5.112-7.496,7.755-12.608,5.904l-9.335-3.38
								C1111.72,2452.164,1109.076,2446.519,1110.928,2441.406z"/>
						</g>
					</g>
				</g>
				<path style="fill:#BDD0FB;" d="M719.581,2054.805c-0.005-0.26,0.035-0.526,0.128-0.785l33.561-92.683
					c0.411-1.129,1.655-1.712,2.784-1.303l249.772,90.442c1.129,0.408,1.722,1.655,1.305,2.782
					c-0.411,1.129-1.655,1.713-2.784,1.304l-247.731-89.703l-32.818,90.64c-0.411,1.129-1.654,1.712-2.784,1.303
					C720.145,2056.488,719.599,2055.676,719.581,2054.805z"/>
				<path style="fill:#FFFFFF;" d="M1315.457,2641.938c-0.005-0.26,0.035-0.526,0.128-0.785c0.411-1.129,1.655-1.712,2.784-1.303
					l247.734,89.702l32.818-90.642c0.411-1.129,1.655-1.712,2.784-1.303c1.129,0.407,1.722,1.65,1.305,2.782l-33.561,92.685
					c-0.198,0.543-0.602,0.984-1.123,1.229c-0.521,0.243-1.118,0.271-1.661,0.074l-249.775-90.442
					C1316.022,2643.622,1315.475,2642.81,1315.457,2641.938z"/>
			</g>
			<g>
				<g>
					<g>
						
							<rect x="973.835" y="1813.326" transform="matrix(0.6081 -0.7938 0.7938 0.6081 -1390.0675 1900.0117)" style="fill:#7D97F4;" width="511.24" height="1089.309"/>
						<path style="fill:#BDD0FB;" d="M1703.505,2535.886l-176.731,230.701c-18.568-14.224-47.827-8.538-63.578,12.023
							c-0.5,0.653-0.285,0.243-2.284,2.921l-697.983-534.698c2.065-2.627,1.82-2.24,2.32-2.893
							c15.751-20.562,13.944-49.212-4.935-63.675c-0.277-0.213-0.155-0.901-0.155-0.901l172.753-225.508
							c31.831,24.384,51.357,4.869,67.109-15.692c0.5-0.653,0.689-1.655,0.656-1.681l697.983,534.698
							c-0.033-0.025-0.524,0.745-1.025,1.398C1681.884,2493.141,1684.937,2521.662,1703.505,2535.886z"/>
						<g>
							
								<ellipse transform="matrix(0.996 -0.0895 0.0895 0.996 -206.018 119.6076)" style="fill:#7D97F4;" cx="1230.639" cy="2356.944" rx="159.784" ry="159.784"/>
							<g>
								<path style="fill:#FFFFFF;" d="M1152.271,2432.696l10.275-13.412c-13.553-11.272-24.855-25.166-31.383-36.99
									c-2.332-4.222-1.104-9.529,2.734-12.45l12.978-9.883c4.761-3.626,11.561-2.178,14.535,3.015
									c6.615,11.549,16.17,23.997,29.143,33.935c13.467,10.317,27.008,13.445,34.177,4.085
									c6.469-8.445,2.556-19.411-12.315-38.771c-21.111-27.762-31.367-54.093-13.356-77.603
									c16.263-21.229,44.199-25.544,74.454-9.247l10.276-13.414c3.306-4.316,9.486-5.134,13.801-1.828l7.88,6.037
									c4.316,3.307,5.134,9.485,1.828,13.801l-9.225,12.043c12.541,10.429,20.264,19.857,25.726,28.209
									c2.798,4.279,1.731,10.006-2.332,13.11l-11.985,9.154c-4.621,3.53-11.253,2.323-14.321-2.618
									c-4.888-7.873-12.54-18.036-25.187-27.724c-15.978-12.24-25.613-9.118-30.16-3.183c-5.595,7.304,0.145,19.669,16.019,41.973
									c22.854,31.634,25.737,53.401,8.776,75.542c-15.562,20.315-44.615,27.035-77.33,9.22l-11.499,15.01
									c-3.306,4.316-9.486,5.135-13.802,1.828l-7.881-6.037C1149.783,2443.192,1148.964,2437.012,1152.271,2432.696z"/>
							</g>
						</g>
					</g>
					<path style="fill:#BDD0FB;" d="M893.663,1944.605c-0.01-0.476,0.137-0.957,0.449-1.366l59.943-78.249
						c0.351-0.457,0.868-0.757,1.439-0.832c0.571-0.077,1.15,0.078,1.607,0.428l213.532,163.577
						c0.948,0.732,1.128,2.093,0.402,3.048c-0.728,0.953-2.092,1.134-3.046,0.404l-211.808-162.257l-58.621,76.525
						c-0.728,0.953-2.092,1.133-3.046,0.404C893.97,1945.868,893.677,1945.242,893.663,1944.605z"/>
					<path style="fill:#BDD0FB;" d="M1287.426,2686.116c-0.01-0.475,0.137-0.957,0.449-1.366c0.728-0.952,2.092-1.133,3.046-0.404
						l209.154,160.227l58.621-76.527c0.728-0.953,2.092-1.134,3.046-0.404c0.948,0.73,1.128,2.094,0.402,3.047l-59.943,78.251
						c-0.351,0.457-0.868,0.757-1.439,0.832c-0.571,0.077-1.15-0.077-1.607-0.428l-210.879-161.547
						C1287.732,2687.379,1287.439,2686.753,1287.426,2686.116z"/>
				</g>
				<g>
					<path style="fill:#7D97F4;" d="M998.506,2197.747c-15.202,19.844-43.611,23.606-63.455,8.405
						c-19.843-15.201-23.606-43.61-8.405-63.454c15.201-19.844,43.611-23.607,63.454-8.406
						C1009.944,2149.494,1013.707,2177.903,998.506,2197.747z"/>
					<path style="fill:#7D97F4;" d="M1539.084,2611.863c-15.202,19.844-43.611,23.607-63.454,8.406
						c-19.844-15.201-23.606-43.611-8.405-63.454s43.611-23.606,63.454-8.405C1550.522,2563.61,1554.286,2592.019,1539.084,2611.863
						z"/>
				</g>
			</g>
		</g>
		<g>
			<g>
				
					<linearGradient id="SVGID_00000114072502555290415450000015801858455951284125_" gradientUnits="userSpaceOnUse" x1="1679.9247" y1="189.4752" x2="1365.3845" y2="1126.2592">
					<stop  offset="0" style="stop-color:#FF928E"/>
					<stop  offset="1" style="stop-color:#FE7062"/>
				</linearGradient>
				<path style="fill:url(#SVGID_00000114072502555290415450000015801858455951284125_);" d="M1163.173,2655.081H575.508
					c-3.092,0-5.599-2.507-5.599-5.599v-91.745c0-3.093,2.507-5.599,5.599-5.599h587.664c3.092,0,5.599,2.507,5.599,5.599v91.745
					C1168.772,2652.574,1166.265,2655.081,1163.173,2655.081z"/>
			</g>
			<g>
				
					<linearGradient id="SVGID_00000069393998528924721940000008191445024540088199_" gradientUnits="userSpaceOnUse" x1="1646.1619" y1="180.8683" x2="1331.6217" y2="1117.6522">
					<stop  offset="0" style="stop-color:#FF928E"/>
					<stop  offset="1" style="stop-color:#FE7062"/>
				</linearGradient>
				<path style="fill:url(#SVGID_00000069393998528924721940000008191445024540088199_);" d="M1163.173,2545.919H575.508
					c-3.092,0-5.599-2.507-5.599-5.599v-91.745c0-3.092,2.507-5.599,5.599-5.599h587.664c3.092,0,5.599,2.507,5.599,5.599v91.745
					C1168.772,2543.412,1166.265,2545.919,1163.173,2545.919z"/>
			</g>
			<g>
				
					<linearGradient id="SVGID_00000008140803929528983650000017411778490933621632_" gradientUnits="userSpaceOnUse" x1="1714.2534" y1="198.2259" x2="1399.7131" y2="1135.0101">
					<stop  offset="0" style="stop-color:#FF928E"/>
					<stop  offset="1" style="stop-color:#FE7062"/>
				</linearGradient>
				<path style="fill:url(#SVGID_00000008140803929528983650000017411778490933621632_);" d="M1163.173,2766.072H575.508
					c-3.092,0-5.599-2.507-5.599-5.599v-91.745c0-3.093,2.507-5.599,5.599-5.599h587.664c3.092,0,5.599,2.507,5.599,5.599v91.745
					C1168.772,2763.564,1166.265,2766.072,1163.173,2766.072z"/>
			</g>
			<g>
				
					<linearGradient id="SVGID_00000074423728608848739150000005554958961303663232_" gradientUnits="userSpaceOnUse" x1="1748.5815" y1="206.9782" x2="1434.0414" y2="1143.7622">
					<stop  offset="0" style="stop-color:#FF928E"/>
					<stop  offset="1" style="stop-color:#FE7062"/>
				</linearGradient>
				<path style="fill:url(#SVGID_00000074423728608848739150000005554958961303663232_);" d="M1163.173,2877.062H575.508
					c-3.092,0-5.599-2.507-5.599-5.599v-91.745c0-3.092,2.507-5.599,5.599-5.599h587.664c3.092,0,5.599,2.507,5.599,5.599v91.745
					C1168.772,2874.555,1166.265,2877.062,1163.173,2877.062z"/>
			</g>
			<g>
				
					<linearGradient id="SVGID_00000127032264267734296860000003058708879105024915_" gradientUnits="userSpaceOnUse" x1="1782.9103" y1="215.729" x2="1468.3702" y2="1152.5125">
					<stop  offset="0" style="stop-color:#FF928E"/>
					<stop  offset="1" style="stop-color:#FE7062"/>
				</linearGradient>
				<path style="fill:url(#SVGID_00000127032264267734296860000003058708879105024915_);" d="M1163.173,2988.053H575.508
					c-3.092,0-5.599-2.507-5.599-5.599v-91.746c0-3.093,2.507-5.599,5.599-5.599h587.664c3.092,0,5.599,2.507,5.599,5.599v91.746
					C1168.772,2985.546,1166.265,2988.053,1163.173,2988.053z"/>
			</g>
			<g>
				
					<linearGradient id="SVGID_00000147220133397900217020000016376657488857092248_" gradientUnits="userSpaceOnUse" x1="1816.2064" y1="224.2192" x2="1501.6665" y2="1161.0026">
					<stop  offset="0" style="stop-color:#FF928E"/>
					<stop  offset="1" style="stop-color:#FE7062"/>
				</linearGradient>
				<path style="fill:url(#SVGID_00000147220133397900217020000016376657488857092248_);" d="M1163.173,3095.708H575.508
					c-3.092,0-5.599-2.507-5.599-5.599v-91.746c0-3.093,2.507-5.599,5.599-5.599h587.664c3.092,0,5.599,2.507,5.599,5.599v91.746
					C1168.772,3093.201,1166.265,3095.708,1163.173,3095.708z"/>
			</g>
			<g>
				
					<linearGradient id="SVGID_00000060007129097767965110000010559854875182645930_" gradientUnits="userSpaceOnUse" x1="1849.5043" y1="232.7047" x2="1534.964" y2="1169.4889">
					<stop  offset="0" style="stop-color:#FF928E"/>
					<stop  offset="1" style="stop-color:#FE7062"/>
				</linearGradient>
				<path style="fill:url(#SVGID_00000060007129097767965110000010559854875182645930_);" d="M1163.173,3203.363H575.508
					c-3.092,0-5.599-2.507-5.599-5.599v-91.745c0-3.092,2.507-5.599,5.599-5.599h587.664c3.092,0,5.599,2.507,5.599,5.6v91.745
					C1168.772,3200.856,1166.265,3203.363,1163.173,3203.363z"/>
			</g>
		</g>
		<g>
			<g>
				
					<linearGradient id="SVGID_00000047750629066933201470000009832343353110570939_" gradientUnits="userSpaceOnUse" x1="2302.7749" y1="398.6605" x2="1988.2347" y2="1335.4445">
					<stop  offset="0" style="stop-color:#FF928E"/>
					<stop  offset="1" style="stop-color:#FE7062"/>
				</linearGradient>
				<path style="fill:url(#SVGID_00000047750629066933201470000009832343353110570939_);" d="M1786.65,2862.4h-587.665
					c-3.092,0-5.599-2.507-5.599-5.599v-91.745c0-3.092,2.507-5.599,5.6-5.599h587.664c3.092,0,5.599,2.507,5.599,5.599v91.745
					C1792.249,2859.894,1789.742,2862.4,1786.65,2862.4z"/>
			</g>
			<g>
				
					<linearGradient id="SVGID_00000004521899286025513790000010253403682597583021_" gradientUnits="userSpaceOnUse" x1="2337.1045" y1="407.4091" x2="2022.5645" y2="1344.1926">
					<stop  offset="0" style="stop-color:#FF928E"/>
					<stop  offset="1" style="stop-color:#FE7062"/>
				</linearGradient>
				<path style="fill:url(#SVGID_00000004521899286025513790000010253403682597583021_);" d="M1786.65,2973.392h-587.665
					c-3.092,0-5.599-2.507-5.599-5.599v-91.746c0-3.093,2.507-5.599,5.6-5.599h587.664c3.092,0,5.599,2.507,5.599,5.599v91.746
					C1792.249,2970.885,1789.742,2973.392,1786.65,2973.392z"/>
			</g>
			<g>
				
					<linearGradient id="SVGID_00000149369460804315079040000001636157352245571757_" gradientUnits="userSpaceOnUse" x1="2370.4006" y1="415.8993" x2="2055.8606" y2="1352.6827">
					<stop  offset="0" style="stop-color:#FF928E"/>
					<stop  offset="1" style="stop-color:#FE7062"/>
				</linearGradient>
				<path style="fill:url(#SVGID_00000149369460804315079040000001636157352245571757_);" d="M1786.65,3081.047h-587.665
					c-3.092,0-5.599-2.507-5.599-5.599v-91.746c0-3.093,2.507-5.599,5.6-5.599h587.664c3.092,0,5.599,2.507,5.599,5.599v91.746
					C1792.249,3078.54,1789.742,3081.047,1786.65,3081.047z"/>
			</g>
			<g>
				
					<linearGradient id="SVGID_00000117648001733238525020000014554952582002637754_" gradientUnits="userSpaceOnUse" x1="2403.6975" y1="424.3879" x2="2089.1572" y2="1361.1719">
					<stop  offset="0" style="stop-color:#FF928E"/>
					<stop  offset="1" style="stop-color:#FE7062"/>
				</linearGradient>
				<path style="fill:url(#SVGID_00000117648001733238525020000014554952582002637754_);" d="M1786.65,3188.702h-587.665
					c-3.092,0-5.599-2.507-5.599-5.599v-91.745c0-3.093,2.507-5.599,5.599-5.599h587.665c3.092,0,5.599,2.507,5.599,5.599v91.745
					C1792.249,3186.195,1789.742,3188.702,1786.65,3188.702z"/>
			</g>
		</g>
	</g>
</g>
</svg>
