<?xml version="1.0" encoding="UTF-8"?>
<svg xmlns="http://www.w3.org/2000/svg" viewBox="0 0 248.91 187.14">
  <defs>
    <style>
      .cls-1 {
        fill: #8282a9;
      }

      .cls-1, .cls-2, .cls-3, .cls-4, .cls-5, .cls-6, .cls-7, .cls-8, .cls-9, .cls-10, .cls-11, .cls-12, .cls-13, .cls-14, .cls-15, .cls-16, .cls-17, .cls-18, .cls-19, .cls-20 {
        stroke-width: 0px;
      }

      .cls-2 {
        fill: #8d8cb1;
      }

      .cls-3 {
        fill: #f2f8f3;
      }

      .cls-4 {
        fill: #adacc6;
      }

      .cls-4, .cls-21 {
        mix-blend-mode: multiply;
      }

      .cls-5 {
        fill: #686b9a;
      }

      .cls-22 {
        font-family: MyriadPro-Regular, 'Myriad Pro';
        font-size: 6.81px;
      }

      .cls-22, .cls-18 {
        fill: #fff;
      }

      .cls-6 {
        fill: #f9b7b8;
      }

      .cls-7 {
        fill: #e4eee3;
      }

      .cls-8 {
        fill: #dce1db;
      }

      .cls-9 {
        fill: #cccbdb;
      }

      .cls-10 {
        fill: #f0eff4;
      }

      .cls-11 {
        fill: #132033;
      }

      .cls-12 {
        fill: #71739f;
      }

      .cls-13 {
        fill: #7677a2;
      }

      .cls-14 {
        fill: #d1e5d1;
      }

      .cls-15 {
        fill: #d1d0df;
      }

      .cls-23 {
        isolation: isolate;
      }

      .cls-16 {
        fill: #849184;
      }

      .cls-17 {
        fill: #2f2f41;
      }

      .cls-19 {
        fill: #f15f46;
      }

      .cls-20 {
        fill: #d46777;
      }
    </style>
  </defs>
  <g class="cls-23">
    <g id="Layer_1" data-name="Layer 1">
      <path class="cls-7" d="M42.65,177.28S11.66,155.21,2.74,117.64C-6.19,80.07,7.43,34.51,33.26,11.5c25.83-23.01,72.32-7.51,92.99,11.74l20.66,19.25s19.72,10.8,45.55,9.86c25.83-.94,48.84,34.28,54.95,61.99,6.11,27.71-8.45,64.34-8.45,64.34l-196.3-1.41Z"/>
      <path class="cls-3" d="M28.56,182.92s-21.6-11.74-27.24-38.98c-5.64-27.24,18.79-52.13,21.13-65.75,2.35-13.62-2.82-30.53,18.79-43.68,21.6-13.15,60.11-8.45,74.67-11.74,14.56-3.29,31.47-25.83,60.58-20.66,29.12,5.17,57.29,20.66,58.7,54.48,1.41,33.81-9.39,34.75,1.41,53.07,10.8,18.32,15.03,31,9.86,49.78-5.17,18.79-15.97,23.95-15.97,23.95l-201.94-.47Z"/>
      <path class="cls-14" d="M73.67,176.81c-1.34-1.41-21.05-40.86.9-77.02,21.95-36.16,77.05-31.93,99-17.85,21.95,14.09,32.7,32.4,34.94,51.66,2.24,19.25-12.54,49.31-12.54,49.31l-122.29-6.11Z"/>
      <g>
        <g>
          <rect class="cls-16" x="200.06" y="92.08" width="31" height="18.32" rx="5" ry="5"/>
          <polygon class="cls-16" points="215.55 117.56 219.57 108.05 211.54 108.05 215.55 117.56"/>
        </g>
        <g>
          <g>
            <polygon class="cls-17" points="215.46 98.1 222.71 98.1 222.71 99.16 226.26 97.11 222.71 95.06 222.71 96.12 215.46 96.12 215.46 98.1"/>
            <polygon class="cls-18" points="226.26 102.26 219.01 102.26 219.01 101.2 215.46 103.25 219.01 105.3 219.01 104.24 226.26 104.24 226.26 102.26"/>
          </g>
          <g>
            <path class="cls-17" d="M211.01,104.13l-.35.13s-1.08-1.23-1.63-2.57c-.56-1.34-.58-2.97-.58-2.97l.25-.11-1.53-3.67c-.27.21-.53.49-.74.84-.87,1.47-.78,3.72.09,5.91s1.81,4.16,3.51,5.39c1,.73,1.87.85,2.53.75l-1.55-3.71Z"/>
            <path class="cls-17" d="M212.11,103.7l-.48.17,1.57,3.76c.18-.06.34-.13.47-.2.41-.22.58-.71.41-1.14l-.82-2.06c-.18-.46-.7-.69-1.16-.52Z"/>
            <path class="cls-17" d="M208.37,94.3c-.19.07-.4.16-.61.29l1.57,3.75.53-.22c.46-.19.68-.71.5-1.17l-.82-2.11c-.18-.46-.69-.7-1.15-.53Z"/>
          </g>
        </g>
      </g>
      <path class="cls-16" d="M66.35,170.47v-42.27s-.47-11.39,5.52-14.68c5.99-3.29,31.23-1.53,31.23-1.53v58.47h-36.75Z"/>
      <g>
        <path class="cls-6" d="M110.98,72.44s-1.53,12.8-2.11,13.85l-.59,1.06-2.94,2s5.64,7.98,12.56,9.28c6.93,1.29,6.34-2.82,6.34-2.82l-1.06-2.23,1.41-12.21s-12.56-5.75-13.62-8.92Z"/>
        <path class="cls-18" d="M101.71,90.4l4.58-2s2.94,4.81,9.74,7.63,6.93,1.17,7.28,0c.35-1.17-.12-2.47-.12-2.47l.5-4.11,2.72.91,9.45,76.47-24.3,1.17-9.86-77.61Z"/>
        <path class="cls-17" d="M124.13,89.54s1.64,3.8,3.17,12.72,2.94,23.95,3.29,34.28.59,33.93.59,33.93h30.64c.35,0,2.47-11.62,2.47-11.62,0,0-13.38-11.47-14.09-13.35-.47-1.25-.23-24.46-2.23-35.14-2-10.68-4.58-12.84-9.98-15.5-5.58-2.75-13.85-5.32-13.85-5.32Z"/>
        <path class="cls-11" d="M140.1,157.02c-.16,0-.28-.13-.28-.28,0-.84-.15-12.77-.29-24.3-.14-11.54-.29-23.46-.29-24.31,0-.16.13-.28.28-.28s.28.13.28.28c0,.84.15,12.77.29,24.3.14,11.54.29,23.46.29,24.31,0,.16-.13.28-.28.28Z"/>
        <path class="cls-17" d="M79.05,154.15l-.23,16.32h35.69s1.53-13.85.94-15.15c-.59-1.29-36.4-1.17-36.4-1.17Z"/>
        <g class="cls-21">
          <path class="cls-1" d="M118.77,85.94c1.45,1.17,3.44,2.11,4.99,2.68l.84-7.26s-9.44-4.32-12.64-7.54c.67,3.65,2.31,8.5,6.81,12.12Z"/>
        </g>
        <path class="cls-6" d="M135.64,48.6s2.47,4.23,2.94,9.39c.47,5.17,0,18.43-4.23,24.07-4.23,5.64-13.03,3.99-17.02.59-3.66-3.12-7.28-6.57-8.22-13.38-.94-6.81,2-19.72,10.33-22.42,8.34-2.7,16.2,1.76,16.2,1.76Z"/>
        <g>
          <path class="cls-6" d="M146.23,163.09s-.41,0-1.04-.02c-.15,0-.31,0-.48,0-.61-.02-1.34-.03-2.09-.06-.16,0-.33-.01-.5-.02-.74-.02-1.37.07-1.96.04h-.02c-.12,0-.31.01-.45.02-.07,0-.14.01-.19,0-.34-.06-.41-.14-.78-.31-.48-.22-6.93-1.66-12.18-1.62-5.24.02-9.95.38-10.71-.26-.77-.65-1.24-7.24,3.24-7.67l5.5,2.09s12.57-1.49,17.18,1.91c4.62,3.4,4.48,5.9,4.48,5.9Z"/>
          <path class="cls-17" d="M140.14,163.03c-.12,0-.31.01-.45.02-.11-.18-.35-.51-.48-.65-1.42-1.45-4.85-2.38-6.09-2.68-.11-.03-.19-.14-.16-.26.02-.11.14-.18.26-.16,1.81.44,5.65,1.55,6.74,3.39.03.05.12.23.18.34Z"/>
          <path class="cls-17" d="M142.62,163.01c-.16,0-.33,0-.5-.02-1.55-2.82-4.08-3.64-7.21-4.64l-.19-.06c-.11-.04-.17-.16-.14-.27.04-.11.15-.17.27-.14l.18.06c3.31,1.06,5.98,1.92,7.58,5.07Z"/>
          <path class="cls-17" d="M145.19,163.07c-.15,0-.31,0-.48,0-.94-1.98-4.05-5.28-8.16-6.05-.12-.02-.2-.13-.18-.25.03-.11.14-.19.25-.17,4.24.8,7.66,4.26,8.57,6.48Z"/>
        </g>
        <path class="cls-17" d="M111.92,63.46s2.58-1.23,4.4-4.7c1.82-3.46,1.58-6.57,1.58-6.57,0,0,3.29-.53,8.22.94,4.93,1.47,10.8,3.46,15.73.65,4.93-2.82,4.93-7.34,2.52-9.22-2.7-2.1-8.04-.82-8.04-.82,0,0,2.05-2,.94-3.17-1.12-1.17-5.17.35-5.17.35,0,0-4.93-3.93-14.26-3.46-9.33.47-13.8,6.99-14.32,14.26-.53,7.28,2.11,14.56,2.11,14.56l6.28-2.82Z"/>
        <g class="cls-21">
          <path class="cls-1" d="M130.86,65.22c-.53,1.3-.52,2.82-.65,4.2-.1,1.08-.3,2.33.68,3.06.47.35,2.7,1.28,1.55,2.04-.44.29-1.17.21-1.67.19-.34-.02-.69-.03-1.03-.06-.37-.03-.73-.14-1.1-.14-.22,0-.28.29-.11.4.59.37,1.46.49,2.15.51.69.03,1.16,0,1.78-.31.38-.19.75-.46.81-.91.07-.51-.32-.97-.7-1.26-.44-.33-.99-.48-1.44-.8-.62-.44-.57-1.19-.53-1.89.11-1.67.49-3.31.64-4.97.02-.25-.33-.25-.41-.06h0Z"/>
        </g>
        <path class="cls-17" d="M135.66,69.12c-.18.99-.9,1.69-1.61,1.56-.71-.13-1.15-1.03-.97-2.02.18-.99.9-1.69,1.61-1.56.71.13,1.15,1.03.97,2.02Z"/>
        <path class="cls-17" d="M126.68,68.34c-.16,1.07-.91,1.84-1.68,1.73s-1.26-1.07-1.11-2.14c.16-1.07.91-1.84,1.68-1.73s1.26,1.07,1.11,2.14Z"/>
        <path class="cls-17" d="M133.57,65.04c.55.09,1.1,0,1.66.04.13,0,.26.03.4.04.09,0-.18-.03-.04,0,.03,0,.06,0,.08.01.07.01.14.03.21.04.12.03.23.07.35.1.11.02.23.05.33.04.06,0,.12-.02.18-.02-.04,0-.08.01-.11.02,0,.01.21-.02.22-.02.31-.07.51-.44.42-.74-.03-.09-.06-.17-.12-.24-.02-.03-.05-.06-.07-.09.02.03.04.05.07.08-.02-.03-.05-.07-.07-.1-.03-.05-.07-.09-.13-.13-.04-.03-.09-.07-.13-.1-.15-.1-.34-.16-.51-.2-.33-.08-.67-.13-1.01-.13-.34,0-.67.03-1,.08-.29.04-.62.14-.86.32-.18.14-.3.31-.26.55.03.2.18.42.4.46h0Z"/>
        <path class="cls-17" d="M127.31,63.47c-.07-.04-.15-.08-.23-.12-.07-.03-.25-.13-.11-.05-.05-.03-.1-.05-.15-.08-.23-.11-.46-.19-.71-.25-.54-.14-1.1-.17-1.65-.11-.59.06-1.12.2-1.63.51-.07.04-.15.09-.21.15-.04.05-.08.1-.12.15.01-.02.02-.03.03-.05-.16.11-.25.29-.25.48,0,.18.1.33.25.42.19.11.37.06.57,0h-.3c.16.03.28.03.44,0,0,0,.16-.04.06-.02-.09.02.16-.02.19-.02.03,0,.21-.02.02,0,.03,0,.07,0,.1-.01.09-.01.18-.02.27-.03.39-.03.77-.05,1.16-.06.36-.01.73-.01,1.09,0,.15,0,.31.01.46.02.09,0,.05.02,0,0,.03,0,.06.02.1.02.06.02.13.04.19.06.25.1.55-.09.64-.32.1-.25.02-.54-.22-.68h0Z"/>
        <path class="cls-20" d="M130.09,79.79c.54-1.08,1.52-1.88,2.65-2.39-.98-.1-5.63-.53-6.8.14-1.31.75.24,3.74,2.96,3.89.29.02.54,0,.79-.05.02-.55.15-1.09.4-1.59Z"/>
        <path class="cls-15" d="M108.64,73.49s.47,1.82,3.17,3.93c2.7,2.11,6.61,3.66,6.61,3.66l.31-1.37s-4.05-1.76-5.93-3.7c-1.88-1.94-2.11-2.99-2.11-2.99l-2.05.47Z"/>
        <path class="cls-17" d="M119.2,78.7c2.17-.1,3.39,1.62,3.54,2.73.15,1.11-.89,2.36-3.34,1.26-3.03-1.36-2.38-3.89-.2-3.99Z"/>
        <path class="cls-15" d="M110.34,60.05s.94-6.75,5.46-11.33c8.63-8.75,15.97-8.22,15.97-8.22,0,0-.06-1.23-2.82-2.17-2.59-.88-3.76-.41-3.76-.41,0,0-7.1.59-13.09,7.22-5.99,6.63-6.63,15.09-6.63,15.09l4.87-.18Z"/>
        <g>
          <path class="cls-18" d="M109.69,59.23c-5.65-.96-8.81,3.46-9.04,7.92-.23,4.46,3.01,7.85,7.34,7.51,9.74-.76,8.63-14.26,1.7-15.44Z"/>
          <path class="cls-13" d="M106.88,70.33c-1.49,0-2.75-.75-3.47-2.07-.77-1.41-.71-3.16.17-4.44.07-.1.2-.12.3-.06.1.07.12.2.06.3-.78,1.15-.84,2.72-.14,3.99.66,1.21,1.83,1.9,3.21,1.85,1.29-.03,2.39-.63,3.08-1.66.79-1.19.98-2.82.47-4.17-.51-1.34-1.9-2.25-3.17-2.08-.11.02-.22-.07-.24-.18-.02-.12.07-.22.18-.24,1.48-.2,3.04.81,3.62,2.35.56,1.47.36,3.26-.51,4.56-.77,1.16-1.99,1.81-3.42,1.85-.04,0-.08,0-.12,0Z"/>
        </g>
        <path class="cls-17" d="M102.77,88.76s-17.14,4.23-23.13,11.04-8.81,40.39-8.92,46.61,4.23,8.81,6.81,10.57c2.58,1.76,13.97,4.93,23.13,5.4,9.16.47,17.85,0,17.85,0,0,0-.03-2,1.38-4.93,1.31-2.72,2.96-3.29,2.96-3.29l-7.87-2.82s-1.38-24.68-3.52-36.63c-2.47-13.74-8.69-25.95-8.69-25.95Z"/>
        <path class="cls-11" d="M131.18,147.39s-.08,0-.11-.02c-.14-.06-.21-.23-.14-.37,1.61-3.62,3.27-10.74,4.21-15.73l.08-.4c.28-1.47.64-3.29-.07-4.55-.36-.64-1.17-2.04-1.95-3.38-.81-1.39-1.57-2.71-1.79-3.1-.41-.77.89-2.81,2.77-5.62.51-.76.95-1.41,1.21-1.86.67-1.16.22-2.23-.29-3.46l-.18-.42c-.47-1.15-1-2.31-1.52-3.42-.21-.46-.42-.91-.63-1.37-.28-.61-.55-1.22-.83-1.85-1.66-3.7-3.37-7.52-5.57-11.22-.08-.13-.04-.31.1-.39.13-.08.31-.04.39.1,2.21,3.72,3.94,7.56,5.6,11.27.28.62.56,1.24.83,1.85.21.46.42.91.63,1.37.52,1.12,1.05,2.28,1.53,3.45l.17.42c.53,1.26,1.07,2.56.26,3.96-.27.46-.71,1.12-1.23,1.89-.98,1.46-3.03,4.51-2.74,5.04.21.38.97,1.7,1.78,3.08.78,1.34,1.6,2.74,1.96,3.39.81,1.44.43,3.38.13,4.94l-.08.4c-.34,1.82-2.15,11.12-4.25,15.85-.05.11-.15.17-.26.17Z"/>
        <path class="cls-11" d="M114.45,148.39c-.07,0-.15-.03-.2-.08-1.33-1.34-7.77-12.48-8.25-14.58-.26-1.15.4-4.06,1.03-6.87.49-2.18,1-4.43.86-5.04-.22-.91-1.86-2.26-3.45-3.56-1.92-1.57-3.91-3.19-4.29-4.66-.44-1.66-.06-12.07.18-18.95.09-2.48.16-4.43.16-5.13,0-.16.13-.28.28-.28h0c.16,0,.28.13.28.28,0,.71-.07,2.67-.16,5.15-.23,6.44-.62,17.21-.2,18.79.34,1.28,2.34,2.92,4.1,4.36,1.74,1.42,3.38,2.77,3.65,3.86.18.74-.3,2.85-.86,5.3-.59,2.62-1.27,5.6-1.03,6.62.47,2.05,6.79,12.99,8.1,14.31.11.11.11.29,0,.4-.06.05-.13.08-.2.08Z"/>
        <path class="cls-11" d="M91.38,143.52s-.03,0-.04,0c-.16-.02-.26-.17-.24-.32.21-1.48,3.47-30.87,3.61-33.12.01-.16.15-.28.3-.26.16.01.27.15.26.3-.15,2.25-3.41,31.69-3.62,33.16-.02.14-.14.24-.28.24Z"/>
        <path class="cls-11" d="M114.74,151.5s-.07,0-.11-.02c-.72-.29-3.91-1.37-7.95-2.73-8.15-2.75-19.31-6.51-21.43-7.61-.14-.07-.19-.24-.12-.38.07-.14.24-.2.38-.12,2.08,1.08,13.68,4.99,21.35,7.58,4.05,1.36,7.24,2.44,7.98,2.74.15.06.22.22.16.37-.04.11-.15.18-.26.18Z"/>
        <path class="cls-11" d="M110.82,163.21c-7.17,0-21.07-1.29-31.63-5.03-.15-.05-.23-.21-.17-.36.05-.15.22-.23.36-.17,13.34,4.72,32,5.53,35.48,4.75.15-.03.3.06.34.22.03.15-.06.3-.21.34-.75.17-2.2.26-4.16.26Z"/>
      </g>
      <g>
        <g>
          <g>
            <path class="cls-16" d="M28.75,92.72c2.23,1.96,5.05,3.21,7,5.48.77.89,1.46,1.84,2.17,2.77.52.68,1.91,1.81,2.13,2.66.1.38.08-.13-.02-.51,0-.02-.01-.03-.02-.05-.19-1.73-.33-3.47-.4-5.21-.06-1.74.05-3.48-.06-5.21-.15-2.44-.92-4.81-2.92-6.34-.98-.75-2.23-1.2-3.13-2.04-.85-.79-.51-1.69,0-2.57.47-.82,1.04-1.63,1.22-2.58.21-1.08-.2-2.19-.74-3.11-1.16-1.95-3.74-4.13-6.18-3.84-2.04.24-2.27,2.59-2.24,4.23.03,1.59.19,3.18.2,4.77.02,1.64-.26,3.24-.29,4.87-.04,2.77,1.24,4.88,3.28,6.67Z"/>
            <path class="cls-16" d="M49.43,118.13c.62-1.48,1.33-2.86,2.21-4.2,1.2-1.84,2.53-3.64,3.34-5.71.82-2.11.7-4.36.78-6.58.06-1.63.54-3.26.41-4.9-.06-.78-.51-2.05-1.53-1.92-.79.1-1.26,1.08-1.56,1.71-.53,1.09-.9,2.25-1.29,3.4-.15.45-.3.9-.49,1.34-.11.25-.47.86-.81.78-.58-.14-.05-2.5.03-2.91.43-2.09,1.08-4.04,1.17-6.2.13-3.13-.11-6.85-3.17-8.56-.8-.45-1.81-.71-2.57-.04-.75.66-.96,1.8-1.07,2.74-.34,2.89.34,5.62,1.26,8.34.76,2.24,1.67,4.56,1.74,6.95.06,2.31-1.14,4.35-1.7,6.53-.9,3.48-.71,5.32-.72,6.44,0,1.41.05,2.8.15,4.21.09,1.29.21,2.58.36,3.87.03.26.06.53.1.8-.5-1.2-.67-2.57-1.08-3.77-.73-2.14-1.58-4.23-2.28-6.37-.58-1.77-1.13-3.56-1.89-5.26-.72-1.6-1.58-3.29-2.92-4.46-.81-.71-1.79-1.12-2.87-1.12-.69,0-1.31.25-1.98.42-.81.21-1.45.14-2.12-.37-2.19-1.68-2.86-4.7-4.48-6.84-1.21-1.59-4.08-4.3-6.19-2.57-1.12.92-1.43,2.7-1.37,4.06.07,1.71.82,3.27,1.71,4.7.95,1.52,2.17,2.88,3.04,4.44.51.92.59,1.81.51,2.85-.08.98-.16,1.93.17,2.88,1,2.84,4.14,2.45,6.58,2.52,1.71.05,3.54.31,5.16.85,1.87.63,3.09,1.85,3.76,3.7.48,1.34.74,2.86,1.66,4,.43.54,1,.93,1.62,1.21.95.42,3.85.6,3.87.34.07-.89.49-1.82.76-2.66.49-1.58,1.07-3.12,1.71-4.64Z"/>
            <path class="cls-16" d="M62.9,117.59c-.25-1.63-.2-3.42-.97-4.91-.06-.11-.2-.13-.3-.08-.55.31-.57,1.2-.62,1.74-.07.91-.02,1.81-.13,2.72-.2,1.59-.56,3.22-1.13,4.72-.65,1.69-1.82,2.65-3.53,3.18-1.1.34-2.17.63-3.09,1.36-.82.65-1.39,1.55-1.81,2.5-1.14,2.56-1.68,5.42-2.21,8.15-.36,1.84-.65,3.69-1.09,5.51-.45,1.82-.93,3.63-1.18,5.49-.04.09-.09.19-.13.28-.12.28.32.43.47.2,1.76-2.71,3.91-5.15,6.84-6.65,1.32-.68,3.08-.81,4.19-1.88.84-.81.96-2.04.83-3.14-.17-1.44-.86-2.63-1.58-3.86-.4-.67-.86-1.4-.7-2.22.15-.77.79-1.34,1.43-1.74,1.22-.76,2.64-1.1,3.64-2.19.93-1.01,1.44-2.27,1.54-3.64.14-1.82-.18-3.77-.45-5.56Z"/>
            <path class="cls-16" d="M38.86,126.96c-1.56-2-3.43-3.73-5.55-5.14-1.13-.75-3.79-2.23-4.32-.02-.31,1.29.95,2.57,1.79,3.38,1.25,1.22,2.7,2.27,3.76,3.68-1.31.42-2.68.5-3.81,1.4-1.35,1.07-1.95,3.14-.62,4.45.65.64,1.51,1.03,2.32,1.42,1.05.51,2.13.97,3.21,1.42,2.33.97,4.69,1.96,6.68,3.56,2.03,1.63,3.93,4.37,4.09,7.03.02.25-.08.02.07-.09.08.07.36-.06.36-.21-.04-3.94-.75-7.68-2.36-11.29-1.49-3.34-3.37-6.71-5.62-9.6Z"/>
          </g>
          <path class="cls-17" d="M33.48,90.33c.86,1.78,1.76,3.52,2.71,5.26.92,1.67,1.83,3.33,2.52,5.12.84,2.2,1.73,4.36,2.62,6.54.93,2.26,1.76,4.57,2.42,6.92,1.3,4.6,2.26,9.33,2.74,14.08.24,2.42.35,4.85.29,7.28-.05,1.9-.27,3.78-.44,5.66-.19,1.96-.32,3.95-.15,5.92.14,1.65.4,3.61,1.68,4.78.25.23.6-.06.46-.35-1.52-3.12-1.43-6.51-1.14-9.89.16-1.87.38-3.72.45-5.59.08-2.38-.01-4.77-.24-7.14-.44-4.66-1.37-9.27-2.58-13.8-.62-2.32-1.38-4.59-2.27-6.83-.88-2.24-1.91-4.41-2.76-6.66-1.55-4.07-3.91-7.67-6-11.46-.11-.2-.39-.02-.3.17h0Z"/>
          <path class="cls-17" d="M46.57,123.59c.25-2.96.51-5.81,1.51-8.64.47-1.32,1.03-2.6,1.48-3.92.37-1.09.93-2.59.64-3.75-.03-.13-.22-.12-.26,0-.19.66-.17,1.39-.31,2.07-.13.66-.31,1.31-.52,1.96-.44,1.37-1.01,2.68-1.51,4.03-.96,2.6-1.45,5.49-1.24,8.26,0,.13.19.13.2,0h0Z"/>
          <path class="cls-17" d="M29.41,106.57c1.18,2.84,4.71,3,7.28,3.64,1.84.45,3.19,1.68,4.17,3.27,1.07,1.74,1.79,3.79,2.38,5.73,0,.02.04.01.03,0-.72-3.4-1.75-7.5-5.26-9.09-2.81-1.27-6.52-.63-8.32-3.67-.09-.15-.36-.05-.29.12h0Z"/>
          <path class="cls-17" d="M44.71,123.14c.14.19.27.39.41.57.07.09.14.18.23.25.09.08.2.17.33.17.05,0,.09-.06.06-.11-.06-.09-.16-.15-.24-.22-.08-.07-.17-.15-.25-.22-.16-.16-.31-.32-.48-.48-.03-.03-.09.01-.06.05h0Z"/>
          <path class="cls-17" d="M37.36,132.15c2.03,1.67,3.9,3.63,5.38,5.79.71,1.03,1.37,2.12,1.96,3.23.65,1.2,1.08,2.48,1.58,3.74.04.1.21.1.2-.03-.28-2.67-1.97-4.96-3.33-7.18-.7-1.15-1.58-2.08-2.52-3.05-.97-.99-1.96-1.93-3.1-2.74-.14-.1-.32.13-.18.24h0Z"/>
          <path class="cls-17" d="M53.51,129c-.98.55-1.01,2.1-1.03,3.08-.04,1.89.43,3.67-.4,5.47-.75,1.63-1.95,2.99-2.89,4.5-.88,1.42-1.75,3.23-1.73,4.93,0,.1.15.15.2.05.36-.77.48-1.65.74-2.46.29-.91.69-1.74,1.2-2.54.91-1.41,2.02-2.68,2.76-4.2.78-1.59.66-3.17.61-4.9-.03-1.1-.14-2.87.74-3.69.14-.13-.04-.35-.2-.26h0Z"/>
        </g>
        <path class="cls-18" d="M46.98,147.17c-3.93-.05-11.43-.1-11.43-.1l1.85,13.77c.42,3.1,3.06,5.41,6.19,5.41h6.77c3.13,0,5.77-2.31,6.19-5.41l1.85-13.77s-7.49.04-11.43.1Z"/>
      </g>
      <g>
        <g>
          <polygon class="cls-10" points="237.14 121.87 214.69 166.32 149.26 166.79 169.45 121.24 237.14 121.87"/>
          <path class="cls-9" d="M105.83,166.52v-3.56h42.37l19.49-42.74h67.74l1.7,1.64h-66.18l-20.25,44.61s-44.88-.08-44.88.04Z"/>
          <path class="cls-9" d="M203.16,146.4c-.74,2.22-4.75,3.93-8.96,3.82s-7.02-1.99-6.28-4.21c.74-2.22,4.75-3.93,8.96-3.82,4.21.11,7.02,1.99,6.28,4.21Z"/>
        </g>
        <path class="cls-18" d="M150.71,166.76s-.08,0-.12-.03c-.14-.06-.21-.23-.14-.38l20.33-44.78h66.36c.16,0,.28.13.28.28s-.13.28-.28.28h-66l-20.18,44.45c-.05.1-.15.17-.26.17Z"/>
      </g>
      <g>
        <g>
          <rect class="cls-17" x="25.04" y="169.89" width="77.84" height="17.26"/>
          <rect class="cls-12" x="102.44" y="169.89" width="140.05" height="17.26"/>
        </g>
        <polygon class="cls-4" points="102.88 169.89 102.44 169.89 25.04 169.89 25.04 173.06 102.44 173.06 102.88 173.06 242.49 173.06 242.49 169.89 102.88 169.89"/>
        <rect class="cls-5" x="21.29" y="166.48" width="85" height="4.23"/>
        <rect class="cls-2" x="105.84" y="166.48" width="140.05" height="4.23"/>
      </g>
      <g>
        <rect class="cls-8" x="52.67" y="56.05" width="33.64" height="19.88" rx="5.43" ry="5.43"/>
        <polygon class="cls-8" points="94.14 65.99 83.82 61.64 83.82 70.35 94.14 65.99"/>
        <g>
          <circle class="cls-17" cx="62.97" cy="65.99" r="1.9"/>
          <circle class="cls-17" cx="69.49" cy="65.99" r="1.9"/>
          <circle class="cls-17" cx="76.01" cy="65.99" r="1.9"/>
        </g>
      </g>
      <g>
        <path class="cls-16" d="M223.13,13.85h-63.44c-4.07,0-7.38,3.3-7.38,7.38v30.1c0,4.07,3.3,7.38,7.38,7.38h5.69c.16,2.73-.23,6.79-2.51,11.98,7.33-3.38,11.55-8.46,13.75-11.98h46.51c4.07,0,7.38-3.3,7.38-7.38v-30.1c0-4.07-3.3-7.38-7.38-7.38Z"/>
        <path class="cls-18" d="M196.07,28.19h-31.47c-.86,0-1.57-.7-1.57-1.57h0c0-.86.7-1.57,1.57-1.57h31.47c.86,0,1.57.7,1.57,1.57h0c0,.86-.7,1.57-1.57,1.57Z"/>
        <path class="cls-14" d="M218.63,37.31h-54.63c-.53,0-.96-.43-.96-.96h0c0-.53.43-.96.96-.96h54.63c.53,0,.96.43.96.96h0c0,.53-.43.96-.96.96Z"/>
        <path class="cls-14" d="M218.63,42.64h-54.63c-.53,0-.96-.43-.96-.96h0c0-.53.43-.96.96-.96h54.63c.53,0,.96.43.96.96h0c0,.53-.43.96-.96.96Z"/>
        <path class="cls-14" d="M206.71,48.31h-42.72c-.53,0-.96-.43-.96-.96h0c0-.53.43-.96.96-.96h42.72c.53,0,.96.43.96.96h0c0,.53-.43.96-.96.96Z"/>
        <path class="cls-18" d="M218.2,28.19h-15.01c-.86,0-1.57-.7-1.57-1.57h0c0-.86.7-1.57,1.57-1.57h15.01c.86,0,1.57.7,1.57,1.57h0c0,.86-.7,1.57-1.57,1.57Z"/>
      </g>
      <g>
        <rect class="cls-18" x="162.19" y="83.49" width="19.31" height="13.91" rx="2" ry="2"/>
        <g>
          <path class="cls-5" d="M171.96,92.53c-.1,0-.19-.03-.27-.1l-9.28-7.66c-.18-.15-.21-.42-.06-.6.15-.18.42-.21.6-.06l9,7.43,8.77-7.63c.18-.15.45-.14.6.04.15.18.14.45-.04.6l-9.04,7.87c-.08.07-.18.1-.28.1Z"/>
          <path class="cls-5" d="M162.69,97.09c-.11,0-.21-.04-.29-.12-.17-.16-.18-.43-.01-.6l6.49-6.82c.16-.17.43-.18.6-.01.17.16.18.43.01.6l-6.49,6.82c-.08.09-.2.13-.31.13Z"/>
          <path class="cls-5" d="M181,96.84c-.11,0-.22-.04-.3-.12l-6.46-6.48c-.17-.17-.17-.44,0-.6.17-.17.44-.17.6,0l6.46,6.48c.17.17.17.44,0,.6-.08.08-.19.12-.3.12Z"/>
        </g>
        <g>
          <circle class="cls-19" cx="182.39" cy="83.06" r="5.69"/>
          <text class="cls-22" transform="translate(178.39 85.47)"><tspan x="0" y="0">85</tspan></text>
        </g>
      </g>
      <g>
        <rect class="cls-17" x="204.04" y="71.22" width="37.81" height="9.74" rx="4" ry="4"/>
        <path class="cls-18" d="M208.71,78.65c-.15,0-.27-.05-.36-.16-.09-.11-.13-.24-.12-.4l.14-1.26s0-.05-.02-.06c-.02-.01-.05,0-.08.02l-1.04.75c-.13.1-.26.13-.4.1-.14-.03-.25-.11-.34-.25-.1-.17-.11-.32-.06-.45s.16-.22.3-.27l1.17-.53s.05-.03.05-.05-.02-.04-.05-.05l-1.17-.53c-.15-.06-.25-.16-.29-.3-.04-.14-.03-.28.05-.42.09-.14.2-.22.34-.25.14-.03.27,0,.4.09l1.04.77s.06.03.08.02c.02-.01.03-.03.02-.06l-.14-1.26c-.01-.16.03-.29.13-.4.1-.11.22-.16.38-.16.15,0,.27.05.37.16.1.11.13.24.11.4l-.14,1.26s0,.05.02.06c.02.01.05,0,.08-.02l1.04-.75c.13-.1.26-.13.41-.1.14.03.25.11.33.25.1.17.11.32.06.45-.06.13-.16.22-.3.27l-1.17.53s-.05.03-.05.05.02.04.05.05l1.17.53c.15.06.25.17.3.3.05.14.03.28-.06.42-.07.14-.18.22-.33.25-.14.03-.28,0-.41-.09l-1.04-.77s-.06-.03-.08-.02c-.02.01-.03.03-.02.06l.14,1.26c.02.16-.02.29-.12.4-.1.11-.23.16-.39.16Z"/>
        <path class="cls-18" d="M215.59,78.65c-.15,0-.27-.05-.36-.16-.09-.11-.13-.24-.12-.4l.14-1.26s0-.05-.02-.06c-.02-.01-.05,0-.08.02l-1.04.75c-.13.1-.26.13-.4.1-.14-.03-.25-.11-.34-.25-.1-.17-.11-.32-.06-.45s.16-.22.3-.27l1.17-.53s.05-.03.05-.05-.02-.04-.05-.05l-1.17-.53c-.15-.06-.25-.16-.29-.3-.04-.14-.03-.28.05-.42.09-.14.2-.22.34-.25.14-.03.27,0,.4.09l1.04.77s.06.03.08.02c.02-.01.03-.03.02-.06l-.14-1.26c-.01-.16.03-.29.13-.4.1-.11.22-.16.38-.16.15,0,.27.05.37.16.1.11.13.24.11.4l-.14,1.26s0,.05.02.06c.02.01.05,0,.08-.02l1.04-.75c.13-.1.26-.13.41-.1.14.03.25.11.33.25.1.17.11.32.06.45-.06.13-.16.22-.3.27l-1.17.53s-.05.03-.05.05.02.04.05.05l1.17.53c.15.06.25.17.3.3.05.14.03.28-.06.42-.07.14-.18.22-.33.25-.14.03-.28,0-.41-.09l-1.04-.77s-.06-.03-.08-.02c-.02.01-.03.03-.02.06l.14,1.26c.02.16-.02.29-.12.4-.1.11-.23.16-.39.16Z"/>
        <path class="cls-18" d="M222.48,78.65c-.15,0-.27-.05-.36-.16-.09-.11-.13-.24-.12-.4l.14-1.26s0-.05-.02-.06c-.02-.01-.05,0-.08.02l-1.04.75c-.13.1-.26.13-.4.1-.14-.03-.25-.11-.34-.25-.1-.17-.11-.32-.06-.45s.16-.22.3-.27l1.17-.53s.05-.03.05-.05-.02-.04-.05-.05l-1.17-.53c-.15-.06-.25-.16-.29-.3-.04-.14-.03-.28.05-.42.09-.14.2-.22.34-.25.14-.03.27,0,.4.09l1.04.77s.06.03.08.02c.02-.01.03-.03.02-.06l-.14-1.26c-.01-.16.03-.29.13-.4.1-.11.22-.16.38-.16.15,0,.27.05.37.16.1.11.13.24.11.4l-.14,1.26s0,.05.02.06c.02.01.05,0,.08-.02l1.04-.75c.13-.1.26-.13.41-.1.14.03.25.11.33.25.1.17.11.32.06.45-.06.13-.16.22-.3.27l-1.17.53s-.05.03-.05.05.02.04.05.05l1.17.53c.15.06.25.17.3.3.05.14.03.28-.06.42-.07.14-.18.22-.33.25-.14.03-.28,0-.41-.09l-1.04-.77s-.06-.03-.08-.02c-.02.01-.03.03-.02.06l.14,1.26c.02.16-.02.29-.12.4-.1.11-.23.16-.39.16Z"/>
        <path class="cls-18" d="M229.36,78.65c-.15,0-.27-.05-.36-.16-.09-.11-.13-.24-.12-.4l.14-1.26s0-.05-.02-.06c-.02-.01-.05,0-.08.02l-1.04.75c-.13.1-.26.13-.4.1-.14-.03-.25-.11-.34-.25-.1-.17-.11-.32-.06-.45.06-.13.16-.22.3-.27l1.17-.53s.05-.03.05-.05-.02-.04-.05-.05l-1.17-.53c-.15-.06-.25-.16-.29-.3-.04-.14-.03-.28.05-.42.09-.14.2-.22.34-.25.14-.03.27,0,.4.09l1.04.77s.06.03.08.02c.02-.01.03-.03.02-.06l-.14-1.26c-.01-.16.03-.29.13-.4.1-.11.22-.16.38-.16.15,0,.27.05.37.16.1.11.13.24.11.4l-.14,1.26s0,.05.02.06c.02.01.05,0,.08-.02l1.04-.75c.13-.1.26-.13.41-.1.14.03.25.11.33.25.1.17.11.32.06.45-.06.13-.16.22-.3.27l-1.17.53s-.05.03-.05.05.02.04.05.05l1.17.53c.15.06.25.17.3.3.05.14.03.28-.06.42-.07.14-.18.22-.33.25-.14.03-.28,0-.41-.09l-1.04-.77s-.06-.03-.08-.02c-.02.01-.03.03-.02.06l.14,1.26c.02.16-.02.29-.12.4-.1.11-.23.16-.39.16Z"/>
        <path class="cls-16" d="M236.24,78.65c-.15,0-.27-.05-.36-.16-.09-.11-.13-.24-.12-.4l.14-1.26s0-.05-.02-.06c-.02-.01-.05,0-.08.02l-1.04.75c-.13.1-.26.13-.4.1-.14-.03-.25-.11-.34-.25-.1-.17-.11-.32-.06-.45s.16-.22.3-.27l1.17-.53s.05-.03.05-.05-.02-.04-.05-.05l-1.17-.53c-.15-.06-.25-.16-.29-.3-.04-.14-.03-.28.05-.42.09-.14.2-.22.34-.25.14-.03.27,0,.4.09l1.04.77s.06.03.08.02c.02-.01.03-.03.02-.06l-.14-1.26c-.01-.16.03-.29.13-.4.1-.11.22-.16.38-.16.15,0,.27.05.37.16.1.11.13.24.11.4l-.14,1.26s0,.05.02.06c.02.01.05,0,.08-.02l1.04-.75c.13-.1.26-.13.41-.1.14.03.25.11.33.25.1.17.11.32.06.45-.06.13-.16.22-.3.27l-1.17.53s-.05.03-.05.05.02.04.05.05l1.17.53c.15.06.25.17.3.3.05.14.03.28-.06.42-.07.14-.18.22-.33.25-.14.03-.28,0-.41-.09l-1.04-.77s-.06-.03-.08-.02c-.02.01-.03.03-.02.06l.14,1.26c.02.16-.02.29-.12.4-.1.11-.23.16-.39.16Z"/>
      </g>
    </g>
  </g>
</svg>