<?xml version="1.0" encoding="UTF-8"?>
<svg id="Layer_1" data-name="Layer 1" xmlns="http://www.w3.org/2000/svg" viewBox="0 0 218.83 238.32">
  <defs>
    <style>
      .cls-1 {
        fill: #000;
        stroke-width: 0px;
      }
    </style>
  </defs>
  <path class="cls-1" d="M142.26,193.63c-1.4,5.07-4.42,8.71-9.58,10.29-1.19.36-2.47.56-3.71.59-3.27.08-6.55-.14-9.81.06-6.99.44-13.13-3.59-15.09-10.98-4.11-.03-7.12-1.83-8.15-5.92-.41-1.63.1-3.49.1-5.24,0-.63-.04-1.46-.42-1.86-3.43-3.54-3.7-8.1-.67-11.99.38-.49.65-1.2.66-1.82.06-3.21.09-6.43-.02-9.64-.02-.64-.49-1.52-1.03-1.86-13.95-8.8-22.68-21.25-25.62-37.45-5.17-28.49,12.5-56.5,41.52-63.34,29.2-6.89,57.87,10.29,65.9,39.08,6.51,23.33-3.27,48.29-24.1,61.34-1.17.73-1.65,1.49-1.56,2.85.12,1.89.03,3.79.03,5.68,0,2.37-.01,4.54,1.61,6.74,2.28,3.1,1.35,7.34-1.42,10.23-.41.43-.81,1.31-.65,1.8,1.74,5.21-.85,11.31-8.01,11.44ZM145.23,165.9c0-3.58.11-7.01-.04-10.44-.09-2.13.76-3.32,2.57-4.35,18.75-10.69,28.55-32.64,23.9-53.39-6.55-29.23-36.06-45.94-64.47-36.51-22.92,7.61-37.27,31.68-32.84,55.41,2.85,15.23,11.02,26.84,24.49,34.61,1.62.93,2.39,2.07,2.32,3.99-.12,3.53-.04,7.08-.04,10.68h44.1ZM123.19,176.99c7.23,0,14.46.01,21.69,0,1.83,0,3.09-1.18,3.09-2.76,0-1.52-1.23-2.74-2.93-2.74-14.57-.02-29.15-.03-43.72.05-.82,0-1.95.62-2.38,1.3-.42.68-.5,2.05-.07,2.65.53.75,1.72,1.43,2.64,1.45,7.23.12,14.46.06,21.69.06ZM123.24,188.02c6.42,0,12.84,0,19.26,0,1.76,0,2.72-1.01,2.71-2.78-.01-1.77-.96-2.74-2.75-2.74-12.84,0-25.68,0-38.53,0-1.82,0-2.76.92-2.79,2.69-.04,1.82.95,2.83,2.83,2.83,6.42,0,12.84,0,19.26,0ZM109.95,193.52c1.5,3.48,3.95,5.29,7.34,5.46,3.89.2,7.79.12,11.69.02,3.13-.08,6.55-2.33,7.18-5.4-.22-.03-.43-.08-.65-.08-8.42,0-16.85,0-25.56,0Z"/>
  <path class="cls-1" d="M65.28,161.23c4.97-4.72,9.83-9.34,14.81-14.06.94,1.12,2.06,2.46,3.19,3.81.16-.09.32-.18.48-.27-.32.37-.63.76-.97,1.12-4.17,4.27-8.33,8.55-12.55,12.77-.79.79-.84,1.32-.25,2.31,9.35,15.73-.34,35.33-18.52,37.55-12.86,1.57-25.18-7.83-27.14-20.7-2.44-16.02,10.21-29.87,26.33-28.74,5.6.39,10.53,2.58,14.62,6.21ZM68.07,179.84c.07-10.54-8.67-19.38-19.18-19.39-10.58-.01-19.26,8.58-19.39,19.19-.13,10.46,8.68,19.36,19.19,19.38,10.58.03,19.31-8.62,19.38-19.18Z"/>
  <path class="cls-1" d="M176.6,48.22c-1.91-2-3.69-3.94-5.54-5.8-.94-.95-1.68-1.94-1.27-3.33.41-1.38,1.52-1.87,2.86-2.1,6.14-1.06,12.28-2.17,18.42-3.22,2.54-.43,4.02.96,3.68,3.53-.86,6.47-1.77,12.93-2.75,19.38-.37,2.43-3,3.24-4.82,1.47-2.09-2.04-4.03-4.23-5.89-6.2-5.91,5.63-11.54,11-17.26,16.46-.98-1.09-2.16-2.41-3.44-3.84,5.23-5.34,10.67-10.9,16.01-16.35ZM187.29,50.37c.5-3.61.97-6.97,1.47-10.51-3.57.63-6.86,1.2-9.96,1.75,2.34,2.48,4.69,4.96,7.04,7.44.38.4.82.76,1.45,1.33Z"/>
  <path class="cls-1" d="M79.1,108c0-24.29,19.71-43.99,44-43.98,24.56,0,44.18,19.71,44.16,44.36-.02,24.21-19.8,43.82-44.18,43.81-24.36-.01-43.98-19.73-43.97-44.18ZM161.76,108.09c.08-21.01-17.31-38.49-38.37-38.58-21.28-.08-38.74,17.24-38.79,38.49-.05,21.09,17.2,38.53,38.27,38.67,21.32.15,38.8-17.2,38.89-38.59Z"/>
  <path class="cls-1" d="M46.18,163.3h5.3c.02.42.11.76.05,1.08-.3,1.47.41,2.2,1.64,2.92,2.49,1.46,3.73,3.78,3.89,6.8h-5.34c-.31-.55-.5-1.37-1-1.68-.76-.46-1.91-.99-2.59-.72-.85.34-1.8,1.38-1.95,2.25-.13.77.63,1.85,1.27,2.55.37.41,1.27.43,1.94.48,3.49.26,6.36,2.58,7.35,6.02.95,3.3-.14,6.95-3.06,8.8-1.71,1.08-2.66,2.17-2.03,4.33h-5.63c.67-2.33-.71-3.45-2.49-4.63-2.04-1.36-2.95-3.57-3-6.16h5.37c.11.25.23.61.4.95.63,1.28,1.66,1.93,3.07,1.58,1.38-.34,2.18-1.35,2.1-2.77-.08-1.42-.99-2.29-2.38-2.57-.89-.18-1.84-.14-2.7-.4-3.2-.96-5.18-3.18-5.77-6.42-.58-3.17.48-5.89,3.01-7.95,2.21-1.79,2.22-1.77,2.52-4.46Z"/>
  <path class="cls-1" d="M106.63,127.76c.06-4.96,4.38-8.72,9.33-7.94,1.37.22,2.03-.16,2.77-1.2,4.5-6.29,7.59-13.17,8.97-20.81.18-.99.07-1.59-.89-2.22-3.21-2.12-4.43-5.99-3.21-9.54,1.21-3.5,4.53-5.67,8.44-5.51,3.49.14,6.54,2.74,7.46,6.34.95,3.72-.98,7.81-4.62,9.38-1.03.44-1.5.98-1.67,2.04-1.44,8.95-5.07,16.97-10.5,24.19-.6.8-.62,1.42-.25,2.33,1.37,3.3.59,6.74-1.94,9.14-2.37,2.26-5.95,2.89-8.95,1.58-3.11-1.36-5-4.32-4.95-7.78ZM114.86,130.6c1.53,0,2.77-1.23,2.74-2.71-.02-1.5-1.28-2.66-2.82-2.62-1.45.04-2.6,1.18-2.63,2.62-.03,1.5,1.18,2.72,2.71,2.71ZM131.39,86.06c-1.42.03-2.72,1.39-2.69,2.8.03,1.43,1.38,2.73,2.79,2.69,1.43-.04,2.72-1.38,2.69-2.8-.03-1.42-1.38-2.72-2.79-2.69Z"/>
  <path class="cls-1" d="M100.32,99.2c-1.31-1.1-2.63-2.19-4.03-3.37,1.57-1.42,2.86-2.59,4.48-4.06.9,1.15,1.99,2.53,3.38,4.29,1.46-1.8,2.56-3.17,3.73-4.61,1.52,1.59,2.69,2.83,4.14,4.35-1.29,1.01-2.68,2.09-4.36,3.4,1.85,1.55,3.2,2.68,4.64,3.88-1.65,1.54-2.93,2.74-4.56,4.26-.99-1.25-2.08-2.63-3.48-4.4-1.42,1.78-2.52,3.16-3.67,4.59-1.51-1.57-2.7-2.8-4.11-4.26,1.31-1.03,2.69-2.11,4.07-3.19-.07-.29-.14-.58-.22-.87Z"/>
  <path class="cls-1" d="M153.33,115.07c-1.28,1.07-2.59,2.18-4.28,3.6,1.76,1.34,3.16,2.41,4.7,3.58-1.81,1.59-3.12,2.74-4.74,4.17-.85-1.09-1.94-2.48-3.18-4.06-1.56,1.71-2.75,3-3.98,4.34-1.45-1.5-2.68-2.77-4.21-4.35,1.29-1.09,2.64-2.22,4.24-3.57-1.54-1.41-2.84-2.6-4.18-3.81,1.41-1.38,2.64-2.58,4.16-4.06,1.04,1.37,2.11,2.77,3.41,4.48,1.58-1.87,2.71-3.21,3.9-4.62,1.54,1.6,2.76,2.85,4.16,4.3Z"/>
</svg>