<?xml version="1.0" encoding="UTF-8"?>
<svg id="Layer_1" data-name="Layer 1" xmlns="http://www.w3.org/2000/svg" viewBox="0 0 218.83 238.32">
  <defs>
    <style>
      .cls-1 {
        fill: #000;
        stroke-width: 0px;
      }
    </style>
  </defs>
  <path class="cls-1" d="M111.78,61.24c0,3.8-.01,7.11,0,10.42,0,1.14-.07,2.42-1.37,2.6-.84.11-2.02-.33-2.64-.94-5.76-5.64-11.44-11.36-17.14-17.07-1.56-1.57-1.58-2.38-.06-3.9,5.73-5.75,11.49-11.48,17.22-17.24.78-.79,1.73-1.54,2.66-.84.68.51,1.21,1.66,1.24,2.54.13,3.88.06,7.76.06,11.7,3.13.35,6.14.6,9.12,1.03,13.95,2.02,26.39,7.53,37.31,16.39,14.56,11.82,24.03,26.93,27.53,45.33,4.89,25.75-1.58,48.64-19.2,68.08-12.12,13.37-27.32,21.68-45.19,24.11-29.43,4.01-53.9-5.65-72.87-28.56-8.89-10.74-14.07-23.29-16.11-37.08-.52-3.49-.61-7.05-.79-10.59-.1-2.01.62-2.71,2.6-2.74,2.46-.03,4.92-.03,7.38,0,2.01.02,2.64.66,2.68,2.69.25,11.47,3,22.28,8.93,32.14,10.29,17.09,25.18,27.83,44.89,31.32,35.37,6.27,68.82-16.92,75.48-52.07,6.68-35.25-16.75-69.42-52.17-76.03-3.07-.57-6.19-.84-9.55-1.28ZM35.25,128.6c.74,4.98,1.15,9.78,2.2,14.43,6.96,30.7,32.97,53.77,64.28,56.87,22.35,2.21,42.06-4.28,58.27-19.79,18.72-17.91,26.35-40.12,22.08-65.71-4.24-25.38-18.68-43.57-41.73-54.85-9.31-4.56-19.29-6.59-29.63-6.88-2.65-.07-3.02-.48-3.02-3.17,0-2.4,0-4.8,0-7.21,0-.34-.1-.68-.1-.63-4.26,4.21-8.59,8.49-12.7,12.54,4.2,4.2,8.49,8.5,12.81,12.82,0-2.27-.01-4.65,0-7.03.01-2.03.66-2.65,2.68-2.64,7.2.05,14.2,1.26,21.01,3.55,34.4,11.58,54.28,48.2,45.03,82.93-9.73,36.53-45.78,58.84-82.5,50.01-28.36-6.82-45.71-25.41-52.37-53.82-.87-3.7-1.05-7.56-1.57-11.44h-4.74Z"/>
  <path class="cls-1" d="M105.22,159.16c1.92,1.5,2.61,3.57,2.46,6.01-.07,1.08.01,2.17-.02,3.26-.09,3.28-2.6,5.95-5.87,5.98-8.18.07-16.35.07-24.53,0-3-.02-5.48-2.24-5.76-5.33-.26-2.81-.61-5.72.89-8.45-3.33-2.81-2.91-6.57-2.32-10.18.43-2.61,2.34-4.34,5.01-4.79,1.73-.29,3.53-.2,5.3-.26.65-.02,1.3,0,2.35,0-1.8-1.89-3.21-3.5-3.21-5.88,0-1.88.53-3.5,1.85-4.82,5.45-5.47,10.88-10.96,16.38-16.37,2.66-2.62,6.52-2.56,9.27-.01,1.13,1.05,2.22,2.13,3.35,3.22.94-.34,1.95-.71,3.1-1.13-7.21-4.69-11.27-11.25-11.52-19.86-.19-6.65,2.21-12.42,6.92-17.15,9.42-9.48,24.8-9.07,34.01.82,8.85,9.5,8.93,27.13-5.31,36.24,6.24,1.32,7.26,7.13,5.21,13.42,4.36,3.39,3.46,7.83,2.5,12.44,4.33,4.76,4.34,10.69.36,14.34.07,3,.36,5.6.14,8.15-.28,3.17-3.01,5.56-6.18,5.59-7.83.07-15.67.08-23.5,0-3.5-.03-6.22-2.88-6.36-6.38-.03-.69-.02-1.37-.02-2.06,0-3.82.36-4.65,3.09-7.18-1.1-3.7-1.1-6.96.04-10.13-4.47-3.34-3.2-7.85-2.57-12.4-.89-1.17-1.91-2.51-2.74-3.6-4.13,4.13-8.45,8.46-12.71,12.72,3.26.25,7.45-.93,9.94,2.85,2.23,3.39,1.46,7.07.47,10.93ZM144.94,99.48c-.64-11.43-9.55-19.4-20.98-18.77-10.32.57-18.53,9.88-17.98,20.41.56,10.74,9.87,19.02,20.72,18.44,10.26-.54,18.81-9.95,18.24-20.08ZM87.84,157.98c3.66,0,7.31.02,10.97,0,2.21-.02,3.11-.93,3.18-3.11.02-.51,0-1.03,0-1.54-.01-3.11-.71-3.8-3.86-3.81-6.45,0-12.91,0-19.36,0-4.57,0-5.08.54-4.94,5.17.07,2.37.99,3.28,3.39,3.29,3.54.02,7.08,0,10.62,0ZM89.53,162.03s0,.03,0,.05c-2.91,0-5.82.02-8.73,0-5.54-.05-5.42-.44-5.37,5.59,0,.11,0,.23,0,.34.09,1.5.88,2.3,2.39,2.33,1.2.02,2.4,0,3.6,0,6.39,0,12.79,0,19.18,0,2.41,0,2.99-.6,3-3.05,0-.91.01-1.83,0-2.74-.03-1.91-.68-2.53-2.59-2.53-3.82,0-7.65,0-11.47,0ZM107.6,125.11c-.93-1.12-1.76-2.24-2.72-3.23-1.87-1.92-3.04-1.91-4.92-.04-4.93,4.92-9.86,9.85-14.78,14.78-2.2,2.21-2.19,3.18.03,5.42.36.36.72.74,1.09,1.09,1.47,1.36,2.8,1.42,4.2.03,5.27-5.23,10.52-10.48,15.74-15.76.53-.53.8-1.32,1.36-2.28ZM127.83,137.07v.02h-8.91c-4.99,0-5.32.34-5.16,5.39.07,2.14,1.1,3.12,3.23,3.04,1.08-.04,2.16-.16,3.24-.16,6.17-.02,12.33,0,18.5-.01,2.36,0,3.14-.79,3.19-3.18.01-.57.01-1.14,0-1.71-.05-2.46-.98-3.38-3.48-3.39-3.54-.01-7.08,0-10.62,0ZM130.14,149.52s0,.09,0,.13c-3.71,0-7.42-.02-11.13,0-2.11.02-2.85.79-2.95,2.91-.03.57-.01,1.14,0,1.71.02,2.9.77,3.65,3.67,3.66,6.56.01,13.13-.03,19.69.03,4.29.04,4.84-.43,4.8-4.74,0-.11,0-.23,0-.34-.05-2.48-1.01-3.38-3.46-3.36-3.54.03-7.07,0-10.61,0ZM125.52,133.02s0-.04,0-.06c3.66,0,7.31,0,10.97,0,2.11,0,2.99-.87,3.07-2.98.02-.63.01-1.26,0-1.89-.04-2.5-.93-3.41-3.42-3.41-6.51,0-13.03,0-19.54,0-5.09,0-5.39.32-5.22,5.48.07,2,.97,2.86,2.99,2.86,3.71,0,7.43,0,11.14,0ZM127.92,162.08c-3.14,0-6.28.02-9.42,0-4.52-.04-4.76.18-4.74,4.68,0,.06,0,.11,0,.17.02,2.66.81,3.45,3.48,3.45,6.68,0,13.37,0,20.05,0,4.18,0,4.68-.51,4.64-4.76,0-.29.01-.57-.01-.86-.17-1.84-1.02-2.66-2.85-2.67-3.71-.02-7.43,0-11.14,0Z"/>
  <path class="cls-1" d="M123.46,112.81c-2.73-1.02-4.58-2.74-5.27-5.54-.11-.44-.16-.9-.19-1.35-.1-1.36.54-2.28,1.87-2.39,1.27-.1,2.04.75,2.15,1.98.16,1.84,1.08,3,2.85,3.38,1.87.4,3.65-.97,3.96-2.9.28-1.78-.97-3.48-2.88-3.84-.95-.18-1.96-.15-2.86-.45-2.99-1.01-4.71-3.17-5.07-6.28-.36-3.12,1.2-6.03,3.96-7.36,1.07-.51,1.62-1.01,1.5-2.26-.12-1.31.7-2.1,1.93-2.13,1.26-.02,2.09.84,2.04,2.08-.05,1.3.52,1.83,1.6,2.39,2.36,1.21,3.56,3.31,3.84,5.92.14,1.27-.28,2.33-1.71,2.51-1.38.18-2.06-.56-2.3-1.93-.39-2.23-1.35-3.19-3.07-3.31-2.09-.14-3.65,1.13-3.76,3.07-.12,2.01,1.16,3.39,3.28,3.56,3.43.28,5.97,1.83,7.17,5.17,1.04,2.89.14,6.04-2.23,8.06-.47.4-1,.8-1.57,1.03-.83.33-1.27.73-1.23,1.74.05,1.3-.62,2.27-2.02,2.26-1.49-.01-2.07-1-2-2.42.01-.28,0-.57,0-1Z"/>
</svg>