<?xml version="1.0" encoding="UTF-8"?>
<svg id="Layer_1" data-name="Layer 1" xmlns="http://www.w3.org/2000/svg" viewBox="0 0 218.83 238.32">
  <defs>
    <style>
      .cls-1 {
        fill: #000;
        stroke-width: 0px;
      }
    </style>
  </defs>
  <path class="cls-1" d="M172.91,207c-1.44-1.09-2.99-2.06-4.3-3.28-2.59-2.42-5.08-4.95-7.53-7.51-.86-.9-1.73-1.25-2.99-1.25-33.68.03-67.37-.03-101.05.09-4.64.02-7.37-2.87-7.27-7.26.15-6.46.03-12.92.05-19.38,0-.68-.12-1.54.24-2,.61-.77,1.53-1.76,2.35-1.78.81-.02,1.79.93,2.42,1.68.37.43.27,1.31.27,1.98.02,6.58.04,13.15-.02,19.73-.01,1.44.48,1.86,1.89,1.86,32.08-.03,64.17-.02,96.25-.02.33,0,.65,0,1.37,0-.73-.78-1.2-1.3-1.7-1.8-1.34-1.37-2.02-2.97-1.99-4.93.01-.69-.35-1.53-.81-2.06-1.21-1.37-2.39-3.29-3.92-3.69-1.44-.38-3.31.91-5,1.43-16.25,5.04-33.06-5.41-35.79-22.24-2.63-16.23,9.93-31.44,26.37-31.93,16.99-.51,30.22,13.34,28.67,30.26-.28,3.12-1.53,6.16-2.5,9.19-.29.92-.45,1.5.36,2.19,1.08.93,2.12,1.94,3.03,3.03.9,1.08,1.9,1.33,3.3.81,0-.63,0-1.3,0-1.98,0-11.66,0-23.33,0-34.99,0-.57-.02-1.15.03-1.71.13-1.47.97-2.29,2.44-2.36,1.49-.07,2.34.78,2.65,2.16.12.55.05,1.14.05,1.71,0,12.98.02,25.96-.02,38.94,0,1.18.32,2.01,1.17,2.84,4.81,4.73,9.57,9.51,14.33,14.29,3.15,3.16,3.15,6.55,0,9.75-1.84,1.88-3.66,3.79-5.6,5.56-1.11,1.02-2.45,1.8-3.68,2.69h-3.09ZM110.35,152.33c.01,12.54,9.97,22.48,22.54,22.47,12.48,0,22.52-10.04,22.53-22.53,0-12.43-10.1-22.5-22.59-22.5-12.49,0-22.49,10.05-22.48,22.56ZM182.49,193.95c-.33-.46-.56-.91-.9-1.25-5.44-5.46-10.91-10.9-16.34-16.38-.89-.9-1.56-.87-2.42.03-1.94,2.02-3.92,4-5.94,5.93-.91.87-.9,1.51,0,2.4,5.48,5.42,10.94,10.88,16.36,16.36.88.89,1.52.93,2.4.01,1.94-2.02,3.95-3.97,5.92-5.96.31-.31.56-.69.93-1.15ZM153.98,177.46c1.45-1.37,2.8-2.65,3.98-3.76-1.24-1.24-2.44-2.42-3.4-3.38-1.28,1.16-2.66,2.4-4.06,3.67,1.17,1.17,2.33,2.33,3.48,3.47Z"/>
  <path class="cls-1" d="M49.81,90.59c-3.94,0-7.64,0-11.35,0-4.92,0-7.26-2.33-7.26-7.24,0-13.26-.02-26.53,0-39.79.01-6.06,3.85-10.8,9.69-12.03.83-.18,1.7-.2,2.55-.2,38.03,0,76.06-.01,114.09,0,7.07,0,12.24,5.13,12.24,12.21.02,25.04,0,50.09,0,75.13,0,.4.03.81-.03,1.2-.2,1.4-1.42,2.48-2.73,2.31-1.4-.18-2.3-.96-2.39-2.45-.04-.63-.03-1.26-.03-1.89,0-24.41,0-48.83,0-73.24,0-5.6-2.55-8.14-8.19-8.14-33.74,0-67.48,0-101.22,0h-2.19c2.78,4.22,2.07,8.8,2.08,13.26.03,34.59.02,69.18,0,103.77,0,.74,0,1.5-.17,2.21-.3,1.26-1.17,1.93-2.49,1.92-1.32,0-2.18-.67-2.46-1.95-.16-.72-.16-1.47-.16-2.21,0-20.13,0-40.25,0-60.38v-2.49ZM49.73,85.29c.04-.72.08-1.17.08-1.62,0-13.31,0-26.62,0-39.93,0-.51-.02-1.03-.07-1.54-.42-3.66-4.25-6.38-7.84-5.57-3.54.8-5.46,3.37-5.46,7.42-.01,12.4,0,24.79,0,37.19,0,.97-.11,1.96.06,2.9.08.44.72,1.09,1.12,1.1,3.99.08,7.97.05,12.12.05Z"/>
  <path class="cls-1" d="M99.79,148.69c0,2.69.02,5.37-.01,8.06,0,.74-.11,1.48-.27,2.2-.33,1.53-1.35,2.2-2.88,2.05-1.34-.13-2.27-1.32-2.25-2.78.1-5.42.26-10.85.26-16.27.01-8.29-6.31-14.64-14.45-14.64-7.92,0-14.35,6.49-14.38,14.6-.01,3.37,0,6.74.28,10.09.39,4.58,2.16,8.71,4.67,12.54,1.18,1.79,1.01,3.27-.4,4.18-1.4.9-2.77.45-3.97-1.38-3.73-5.67-5.87-11.86-5.74-18.68.08-3.98-.1-8.07.78-11.9,2.05-8.99,10.83-15.28,19.62-14.67,9.85.69,17.55,7.66,18.62,17.18.35,3.1.05,6.28.05,9.42.02,0,.04,0,.06,0Z"/>
  <path class="cls-1" d="M112.45,49.39c2.56,1.31,4.93,2.39,7.16,3.73,1.35.82,1.51,2.45.68,3.6-.82,1.15-2.3,1.39-3.66.6-.79-.46-1.54-.98-2.36-1.38-2.18-1.06-4.5-1.47-6.79-.55-.93.38-1.86,1.17-2.4,2.03-1,1.58-.47,3.18,1.27,3.96,2.34,1.05,4.77,1.87,7.12,2.89,1.46.63,2.94,1.29,4.23,2.2,5.32,3.78,5.41,10.47.26,14.51-.54.42-1.09.92-1.72,1.1-2.57.73-4.42,1.75-3.94,5.04.18,1.27-1.21,2.21-2.65,2.09-1.4-.12-2.3-.99-2.37-2.47-.06-1.13-.01-2.27-.01-3.46-3.35-.85-6.26-2.22-8.52-4.71-1.08-1.18-1.07-2.67-.06-3.69.98-.99,2.51-.99,3.7.03.26.22.48.49.75.71,2.83,2.26,5.98,3.36,9.56,2.33.99-.28,1.97-.95,2.7-1.69,1.58-1.59,1.52-3.69-.2-5.11-1.08-.88-2.4-1.51-3.7-2.07-2.19-.95-4.46-1.72-6.67-2.65-3.49-1.46-5.55-3.99-5.33-7.92.22-3.88,2.37-6.53,5.89-7.88,1.52-.58,2.09-1.29,1.86-2.81-.06-.39-.02-.8.01-1.2.15-1.63,1.15-2.62,2.6-2.6,1.43.02,2.48,1.05,2.59,2.65.07,1.02.01,2.05.01,2.71Z"/>
  <path class="cls-1" d="M69.38,145.02c.19-2.03.11-4.32.66-6.43,1.28-4.84,6.36-8.15,11.11-7.55,5.52.7,9.55,4.93,9.72,10.25.06,2.06.06,4.12.02,6.18-.03,1.65-1.01,2.65-2.49,2.69-1.51.03-2.6-1.06-2.64-2.74-.04-1.83.02-3.66-.02-5.49-.08-3.29-2.5-5.71-5.62-5.67-3.06.04-5.39,2.44-5.37,5.68.02,2.85.01,5.72.31,8.55.42,3.99,2.35,7.33,5.04,10.28.64.71,1.29,1.76,1.26,2.63-.03.75-.9,1.91-1.6,2.09-.86.22-2.22-.09-2.87-.7-3.69-3.45-6.02-7.74-6.88-12.73-.39-2.24-.41-4.54-.61-7.02Z"/>
  <path class="cls-1" d="M134.93,113.55c-2.85,0-5.71.02-8.56,0-2.15-.02-3.29-.95-3.3-2.62,0-1.67,1.14-2.65,3.27-2.66,5.76-.02,11.53-.02,17.29,0,2.14,0,3.24.99,3.21,2.71-.04,1.63-1.12,2.54-3.18,2.56-2.91.03-5.82,0-8.73,0Z"/>
  <path class="cls-1" d="M84.7,108.26c2.86,0,5.71-.02,8.57,0,2.07.02,3.36,1.04,3.38,2.62.02,1.58-1.27,2.66-3.32,2.66-5.77.02-11.54.02-17.31,0-2.05,0-3.32-1.09-3.28-2.69.04-1.55,1.26-2.56,3.22-2.58,2.91-.03,5.83,0,8.74,0Z"/>
  <path class="cls-1" d="M80.18,140.05c1.41.03,2.31.72,2.55,2.07.16.89.21,1.82.13,2.72-.35,4.1.92,7.62,3.63,10.68.86.98,1.21,2.08.47,3.29-.64,1.06-1.64,1.46-2.79,1.14-.61-.17-1.22-.61-1.66-1.09-4.25-4.66-5.45-10.26-4.89-16.35.14-1.47.98-2.4,2.55-2.46Z"/>
  <path class="cls-1" d="M81.39,173.98c-2.04.05-3.37-.93-3.44-2.53-.07-1.52,1.09-2.63,3.09-2.71,3.02-.12,5.85-.74,8.46-2.35,1.35-.83,2.83-.42,3.59.78.81,1.29.47,2.72-.99,3.68-3.24,2.14-6.89,2.92-10.71,3.12Z"/>
  <path class="cls-1" d="M134.89,102.91c-1.48,0-2.97.04-4.45-.01-1.87-.07-2.93-1.07-2.92-2.65.01-1.51,1.04-2.56,2.79-2.6,3.08-.07,6.16-.07,9.23,0,1.77.04,2.79,1.05,2.82,2.57.03,1.61-.99,2.61-2.87,2.69-1.54.06-3.08.01-4.62.01Z"/>
  <path class="cls-1" d="M84.7,102.91c-1.54,0-3.08.05-4.62-.01-1.72-.07-2.85-1.12-2.88-2.56-.04-1.49,1.14-2.65,2.93-2.69,3.02-.06,6.05-.06,9.07,0,1.78.03,2.99,1.18,2.98,2.65-.02,1.49-1.21,2.52-3.02,2.61-.11,0-.23,0-.34,0-1.37,0-2.74,0-4.11,0h0Z"/>
  <path class="cls-1" d="M150.32,152.23c.05,9.69-7.82,17.62-17.47,17.61-9.55-.01-17.46-7.89-17.52-17.45-.06-9.63,7.86-17.56,17.54-17.56,9.67,0,17.41,7.72,17.46,17.4ZM132.88,164.54c6.86,0,12.27-5.44,12.26-12.3-.01-6.76-5.44-12.18-12.2-12.2-6.88-.02-12.31,5.36-12.33,12.22-.02,6.87,5.39,12.28,12.27,12.27Z"/>
</svg>