<?xml version="1.0" encoding="UTF-8"?>
<svg id="Layer_1" data-name="Layer 1" xmlns="http://www.w3.org/2000/svg" viewBox="0 0 218.83 238.32">
  <defs>
    <style>
      .cls-1 {
        fill: #000;
        stroke-width: 0px;
      }
    </style>
  </defs>
  <path class="cls-1" d="M95.25,205.45c-2.3-.67-4.66-1.17-6.88-2.05-5.9-2.34-10.36-6.39-13.41-11.97-1.02-1.86-.7-3.37.84-4.19,1.46-.77,2.87-.25,3.89,1.51,4.23,7.33,10.62,11.18,19.03,11.25,11.55.09,20.84-9.05,21.45-20.77.14-2.73.88-3.45,3.6-3.45,16.07,0,32.13,0,48.2,0,.66,0,1.32,0,2.09,0,.03-.63.08-1.11.08-1.6,0-37.97.02-75.94,0-113.92,0-10.63-6.84-19.18-17.12-21.49-1.52-.34-3.11-.51-4.67-.52-28.09-.03-56.17-.02-84.26-.02-.43,0-.86,0-1.31,0,1.37,1.47,2.71,2.79,3.91,4.22,4.15,4.95,6.34,10.66,6.35,17.14.02,15.22,0,30.45.02,45.67,0,1.59-.5,2.77-2.16,3.13-1.39.3-2.46-.28-3-1.57-.25-.59-.22-1.31-.22-1.98-.01-13.37,0-26.74,0-40.11,0-.67,0-1.33,0-2.24-.74,0-1.39,0-2.04,0-14.27,0-28.54,0-42.8,0-2.92,0-3.72-.8-3.69-3.66.12-12.4,10.28-23.96,22.57-25.63,1.61-.22,3.24-.34,4.86-.34,33.87-.02,67.74-.02,101.61-.01,15.54,0,27.35,11.84,27.35,27.42,0,37.69,0,75.38,0,113.07,0,.73,0,1.45,0,2.43,1.23,0,2.38,0,3.53,0,2.98,0,5.96.07,8.93-.03,1.6-.05,2.84.35,3.72,1.71v4.38c-.11.25-.27.49-.31.75-2,10.83-8.24,18.02-18.62,21.62-1.51.53-3.11.82-4.66,1.23h-76.86ZM125.52,181.24c-.99,7.62-4.41,13.78-10.52,18.74.53.05.74.08.94.08,17.69,0,35.38.08,53.06-.05,6.76-.05,12.38-2.89,16.62-8.21,2.45-3.06,3.97-6.54,4.39-10.56h-64.5ZM28.88,57.05h42.41c-.52-8.06-7.98-18.75-21.21-18.75-13.3,0-20.72,10.8-21.2,18.75Z"/>
  <path class="cls-1" d="M74.33,183.05c-20.56-.23-35.82-17.1-35.02-36.56.76-18.34,15.74-33.89,35.57-33.6,20.28.3,35.11,17.13,34.57,36.51-.51,18.21-16.71,33.93-35.12,33.65ZM74.24,118.37c-16.51.12-29.66,13.42-29.55,29.89.11,16.28,13.54,29.37,30.02,29.27,16.14-.1,29.44-13.56,29.3-29.65-.14-16.45-13.44-29.63-29.77-29.51Z"/>
  <path class="cls-1" d="M125.59,68.19c-8.65,0-17.3,0-25.95-.01-.71,0-1.48-.06-2.13-.32-1.15-.47-1.88-1.52-1.49-2.68.29-.88,1.11-1.71,1.91-2.26.52-.36,1.41-.23,2.14-.23,17.02-.01,34.04,0,51.06,0,2.89,0,4.15.86,4.12,2.8-.03,1.89-1.3,2.71-4.2,2.71-8.48,0-16.97,0-25.45,0Z"/>
  <path class="cls-1" d="M125.66,80.72c8.54,0,17.08,0,25.62,0,.56,0,1.13-.05,1.68.05,1.39.24,2.18,1.09,2.28,2.51.09,1.36-.83,2.56-2.16,2.79-.44.08-.9.04-1.35.04-17.42,0-34.83,0-52.25,0-.45,0-.91.03-1.35-.04-1.34-.23-2.27-1.4-2.19-2.77.08-1.42.86-2.28,2.25-2.53.55-.1,1.12-.05,1.68-.05,8.6,0,17.19,0,25.79,0Z"/>
  <path class="cls-1" d="M125.59,104.09c-8.54,0-17.08,0-25.61,0-.56,0-1.13.01-1.68-.05-1.34-.16-2.15-.96-2.33-2.27-.19-1.39.43-2.44,1.77-2.88.67-.22,1.43-.24,2.15-.24,17.13-.01,34.27-.01,51.4,0,.62,0,1.26-.05,1.84.11,1.39.39,2.23,1.33,2.1,2.84-.13,1.49-1.01,2.32-2.5,2.46-.56.05-1.12.03-1.68.03-8.48,0-16.96,0-25.45,0Z"/>
  <path class="cls-1" d="M129.56,122.13c-7.25,0-14.49,0-21.74-.01-.72,0-1.48-.04-2.14-.29-1.17-.44-1.74-1.38-1.65-2.65.09-1.26.79-2.1,2.01-2.38.7-.16,1.45-.18,2.17-.18,14.27,0,28.54,0,42.81,0,.62,0,1.24,0,1.85.1,1.47.23,2.3,1.1,2.36,2.61.06,1.4-.95,2.54-2.42,2.77-.5.08-1.01.04-1.51.04-7.25,0-14.49,0-21.74,0Z"/>
  <path class="cls-1" d="M134.94,140.05c-5.62,0-11.24,0-16.85,0-2.13,0-3.3-.99-3.27-2.74.02-1.68,1.15-2.65,3.19-2.65,11.35-.01,22.7-.01,34.04,0,2.04,0,3.17.97,3.19,2.65.02,1.74-1.15,2.73-3.28,2.74-5.67,0-11.35,0-17.02,0Z"/>
  <path class="cls-1" d="M134.93,158.02c-5.56,0-11.12.02-16.68-.03-.8,0-1.74-.14-2.38-.57-1.69-1.14-1.37-3.73.52-4.52.69-.29,1.53-.33,2.3-.33,10.9-.02,21.79-.01,32.69-.01.39,0,.79-.02,1.18.02,1.68.17,2.75,1.32,2.68,2.87-.06,1.48-1.11,2.5-2.78,2.54-2.47.06-4.94.02-7.41.02-3.37,0-6.74,0-10.11,0Z"/>
  <path class="cls-1" d="M71.66,164.32c-2.9,0-5.41-.63-7.49-2.49-2.06-1.85-3.25-4.13-3.29-6.93-.02-1.6,1.01-2.75,2.48-2.87,1.45-.12,2.61.87,2.89,2.46.54,3.09,1.88,4.25,5,4.29,2.25.03,4.49.04,6.74,0,2.64-.05,4.45-1.72,4.45-4.05,0-2.32-1.79-3.96-4.46-4.03-2.92-.07-5.86.12-8.75-.17-5.25-.53-8.61-4.78-8.35-10.19.22-4.67,4.38-8.56,9.3-8.69.44-.01.87,0,1.49,0,0-1.75-.02-3.37,0-4.98.02-1.8,1.14-3.03,2.68-3.03,1.54,0,2.66,1.24,2.69,3.03.02,1.61,0,3.23,0,4.81,1.33.19,2.51.25,3.63.54,4,1,7.1,4.86,7.15,8.78.02,1.78-.9,2.92-2.45,3.03-1.59.12-2.62-.78-2.93-2.56-.48-2.81-1.95-4.13-4.79-4.19-2.3-.05-4.61-.04-6.91,0-2.61.05-4.46,1.75-4.48,4.06-.03,2.39,1.83,4.02,4.58,4.05,2.97.04,5.99-.18,8.91.22,5.3.73,8.48,5.07,8.06,10.44-.37,4.59-4.46,8.27-9.4,8.44-.39.01-.78.04-1.37.07,0,1.64.02,3.25,0,4.86-.03,1.83-1.09,3.01-2.68,3.01-1.58,0-2.67-1.18-2.69-3-.02-1.57,0-3.13,0-4.9Z"/>
</svg>