<?xml version="1.0" encoding="UTF-8"?>
<svg id="Layer_1" data-name="Layer 1" xmlns="http://www.w3.org/2000/svg" viewBox="0 0 218.83 238.32">
  <defs>
    <style>
      .cls-1 {
        fill: #000;
        stroke-width: 0px;
      }
    </style>
  </defs>
  <path class="cls-1" d="M185.96,71.68H58.43v2.03c0,13.39,0,26.78,0,40.17,0,2.88-.9,4.23-2.82,4.22-1.91-.01-2.79-1.35-2.79-4.24,0-21.99,0-43.99,0-65.98,0-3.49.74-4.25,4.17-4.25,43.47,0,86.94,0,130.41,0,3.41,0,4.1.69,4.1,4.07,0,36.75,0,73.5,0,110.26,0,3.17-.76,3.93-3.9,3.93-20.23,0-40.45,0-60.68,0-.51,0-1.04.06-1.53-.05-1.48-.32-2.28-1.29-2.21-2.79.06-1.49.84-2.46,2.4-2.6.68-.06,1.37-.04,2.05-.04,18.74,0,37.49,0,56.23,0h2.09v-84.71ZM185.98,49.22H58.56v16.8h127.42v-16.8Z"/>
  <path class="cls-1" d="M71.73,130.01h-34.62c.45.52.74.9,1.07,1.23,1.92,1.95,3.9,3.84,5.76,5.84,1.13,1.22.99,2.71-.16,3.8-1.11,1.06-2.54,1.17-3.67.06-4.03-3.95-8.01-7.93-11.95-11.97-1.16-1.19-1.1-2.59.11-3.82,3.87-3.94,7.78-7.85,11.73-11.71,1.2-1.17,2.7-1.08,3.81,0,1.2,1.17,1.26,2.63,0,3.92-2.18,2.22-4.45,4.36-6.68,6.53.06.15.13.3.19.44h1.78c16.29,0,32.58.02,48.87,0,10.1-.01,18.44,3.61,24.48,11.87,9.41,12.88,7.27,29.91-4.95,40.14-.26.22-.51.45-.96.85h31.46c-.38-.45-.68-.83-1.01-1.17-1.68-1.7-3.39-3.38-5.07-5.08-1.73-1.75-1.91-3.07-.6-4.42,1.29-1.34,2.81-1.15,4.55.57,1.5,1.48,2.99,2.97,4.48,4.46,2.09,2.09,4.21,4.17,6.28,6.29,1.6,1.63,1.61,2.98.02,4.59-3.68,3.73-7.39,7.43-11.12,11.12-1.47,1.45-2.96,1.52-4.18.29-1.26-1.26-1.2-2.68.29-4.18,2.08-2.1,4.21-4.15,6.72-6.62-1.16-.05-1.79-.1-2.42-.1-15.44,0-30.87,0-46.31,0-6.31,0-12.14-1.58-17.33-5.26-14.71-10.41-17.66-33.87-1.65-46.75.29-.24.58-.48,1.1-.92ZM88.7,129.94c-13.02.07-23.43,10.84-23.35,24.15.07,12.71,10.81,23.31,23.56,23.25,13.65-.06,23.79-10.24,23.72-23.79-.07-13.57-10.32-23.68-23.93-23.61Z"/>
  <path class="cls-1" d="M142.28,118h10.95c0-2.58,0-5.07,0-7.56,0-2.09.94-3.22,2.65-3.26,1.8-.04,2.79,1.11,2.8,3.27.01,2.49,0,4.98,0,7.55h10.95c0-.64,0-1.25,0-1.85,0-6.44,0-12.88,0-19.31,0-2.21.94-3.34,2.74-3.34,1.79,0,2.71,1.14,2.71,3.36,0,6.38,0,12.76,0,19.14,0,.62,0,1.23,0,2.1,1.02,0,1.91-.04,2.8,0,1.64.1,2.68,1.19,2.67,2.72,0,1.52-1.08,2.61-2.7,2.73-.17.01-.34,0-.51,0-20.62,0-41.24,0-61.87,0-.34,0-.69.03-1.02-.04-1.48-.33-2.28-1.29-2.22-2.8.06-1.49.84-2.52,2.4-2.59,1.86-.09,3.73-.02,5.77-.02,0-.83,0-1.44,0-2.05,0-7.46-.01-14.93,0-22.39,0-1.8,1.03-2.88,2.64-2.92,1.7-.04,2.75,1.05,2.81,2.93.01.4,0,.8,0,1.2,0,7.06,0,14.13,0,21.19v1.91h10.95c0-.69,0-1.35,0-2.01,0-11,0-21.99,0-32.99,0-2.11,1.08-3.27,2.9-3.17,1.63.09,2.55,1.2,2.55,3.18,0,9.17,0,18.35,0,27.52,0,2.44,0,4.88,0,7.46Z"/>
  <path class="cls-1" d="M87.67,85.27c4.27,0,8.55-.01,12.82,0,2.64,0,3.5.87,3.5,3.46,0,5.93,0,11.85,0,17.78,0,2.46-.94,3.39-3.41,3.39-8.66,0-17.32,0-25.98,0-2.47,0-3.41-.93-3.41-3.38,0-5.98,0-11.97,0-17.95,0-2.37.91-3.28,3.32-3.29,4.39-.02,8.77,0,13.16,0ZM98.45,90.88h-21.72v13.44h21.72v-13.44Z"/>
  <path class="cls-1" d="M160.08,131.77c5.81,0,11.62-.01,17.43.01,1.8,0,2.84.87,3.02,2.36.22,1.78-.99,3.1-2.98,3.11-5.13.03-10.25.01-15.38.01-6.49,0-12.99-.01-19.48,0-1.32,0-2.55-.38-2.84-1.68-.21-.91,0-2.21.55-2.92.47-.6,1.69-.85,2.59-.86,5.7-.07,11.39-.04,17.09-.04Z"/>
  <path class="cls-1" d="M86.19,139.25c.31-2.3-.76-5.68,2.98-5.61,3.51.07,2.38,3.32,2.77,5.69,2.08,0,4.16-.01,6.24,0,2.06.01,3.19.97,3.21,2.7.02,1.75-1.09,2.76-3.14,2.77-4.22.02-8.43,0-12.65.01-1.35,0-2.65.43-3.04,1.75-.27.91-.2,2.26.32,2.99.52.73,1.76,1.24,2.73,1.31,2.55.19,5.12.02,7.68.11,3.66.13,6.51,2.26,7.62,5.56,1.14,3.4.25,7.44-2.59,9.42-1.78,1.24-4.04,1.8-6.09,2.66-.15-.16-.3-.31-.45-.47,0,.95.05,1.9-.01,2.85-.12,1.7-1.15,2.73-2.67,2.76-1.54.03-2.72-1.12-2.82-2.82-.06-.9,0-1.8,0-2.91-2.06,0-3.98,0-5.89,0-2.43,0-3.7-.98-3.69-2.81.01-1.81,1.23-2.71,3.73-2.72,3.99-.01,7.98.03,11.96-.02,2.14-.02,3.37-1.06,3.47-2.75.11-1.91-1.1-3.25-3.08-3.29-2.28-.05-4.56,0-6.84-.01-5.47-.02-9.26-3.39-9.21-8.39.05-5.99,4.69-9,8.92-8.69.11,0,.23-.03.55-.07Z"/>
</svg>