<?xml version="1.0" encoding="UTF-8"?>
<svg id="Layer_1" data-name="Layer 1" xmlns="http://www.w3.org/2000/svg" viewBox="0 0 184.2 162.29">
  <defs>
    <style>
      .cls-1 {
        fill: #849185;
      }

      .cls-1, .cls-2 {
        stroke-width: 0px;
      }

      .cls-2 {
        fill: #231f20;
      }
    </style>
  </defs>
  <g>
    <g>
      <path class="cls-1" d="M55.25,154.3c1.42-.32,2.7-.66,3.77-1.22,1.07-.55,1.93-1.17,2.49-1.88.56-.71.83-1.52.74-2.39-3.8-.24-7.09-.25-9.99-.02-1.44.09-2.8.29-4.04.46-.62.09-1.22.21-1.8.33-.57.12-1.11.22-1.63.35-2.09.53-3.73,1.09-4.85,1.59-1.13.49-1.73.88-1.73.88,0,0,.39.15,1.08.38.69.21,1.66.55,2.85.85,1.19.26,2.55.62,4.04.78.74.09,1.5.18,2.26.25.77.04,1.56.06,2.33.06.77.02,1.54-.04,2.3-.12.75-.08,1.49-.16,2.19-.3Z"/>
      <path class="cls-1" d="M40.56,147.5c1.37.11,2.62.17,3.73-.03,1.09-.19,2-.51,2.65-.99.65-.48,1.05-1.15,1.13-1.96-3.5-1.33-6.56-2.29-9.31-2.88-2.72-.63-5.14-.91-7.16-1.02-1.01-.06-1.92-.06-2.73-.01-.8.03-1.49.08-2.05.16-1.13.14-1.76.34-1.76.34,0,0,.34.23.94.63.6.39,1.44.96,2.5,1.53,1.05.59,2.27,1.24,3.61,1.8,1.32.62,2.77,1.12,4.2,1.55.71.24,1.45.38,2.16.53.72.14,1.4.29,2.09.34Z"/>
      <path class="cls-1" d="M30.94,137.63c2.1.28,3.6-.14,4.04-1.59-3.01-2.23-5.67-3.95-8.14-5.25-1.19-.69-2.37-1.21-3.45-1.7-1.07-.49-2.09-.87-3.03-1.18-1.83-.67-3.41-.97-4.47-1.16-1.06-.18-1.68-.16-1.68-.16,0,0,.27.3.75.83.48.54,1.2,1.24,2.07,2.05.43.41.89.86,1.41,1.29.51.42,1.06.86,1.62,1.33,1.11.93,2.38,1.75,3.62,2.56,1.27.77,2.56,1.44,3.78,1.96,1.25.49,2.41.89,3.46,1.02Z"/>
      <path class="cls-1" d="M19.74,124.2c1.89.85,3.36.89,4.03-.29-2.39-2.88-4.55-5.2-6.6-7.06-1-.95-1.96-1.78-2.91-2.5-.9-.74-1.77-1.38-2.59-1.91-1.62-1.08-2.96-1.82-3.95-2.25-.49-.22-.88-.37-1.13-.47-.26-.09-.4-.13-.4-.13,0,0,.05.08.14.25.09.16.23.41.42.7.38.6.91,1.43,1.57,2.42.64.99,1.48,2.05,2.35,3.19.88,1.13,1.91,2.24,2.91,3.32,1.06,1.03,2.1,2.02,3.16,2.83,1.07.79,2.07,1.46,3.01,1.89Z"/>
      <path class="cls-1" d="M11.34,107.93c1.59,1.31,2.93,1.76,3.77.89-.41-.82-.82-1.61-1.24-2.36-.43-.74-.8-1.48-1.21-2.16-.83-1.36-1.57-2.62-2.36-3.75-1.53-2.26-3.02-4.06-4.31-5.49-.65-.7-1.28-1.31-1.83-1.82-.54-.52-1.03-.94-1.44-1.27-.82-.65-1.32-.94-1.32-.94,0,0,.13.36.36,1.01.24.63.55,1.54,1.02,2.59.46,1.05.99,2.27,1.61,3.51.66,1.25,1.33,2.55,2.11,3.79,1.53,2.47,3.27,4.68,4.84,6Z"/>
      <path class="cls-1" d="M2.15,81.09c.22.67.46,1.33.7,1.99.25.66.49,1.3.75,1.93.28.63.57,1.23.85,1.81.58,1.15,1.14,2.17,1.77,2.98,1.22,1.62,2.37,2.42,3.29,1.88-1.84-6.87-4.03-11.63-6-14.9-.93-1.63-1.82-2.85-2.48-3.65-.33-.39-.59-.7-.77-.89-.18-.2-.29-.29-.29-.29,0,0,.04.36.16,1,.12.63.3,1.53.52,2.6.21,1.07.53,2.3.9,3.58.18.64.37,1.31.58,1.97Z"/>
      <path class="cls-1" d="M2.25,60.05c.11,1.25.3,2.59.5,3.89.45,2.63,1.09,5.16,1.93,6.95.41.9.83,1.61,1.28,2.06.46.46.93.66,1.4.55-.12-1.67-.28-3.23-.49-4.68-.17-1.44-.43-2.79-.68-4.03-.23-1.24-.52-2.38-.83-3.44-.28-1.05-.57-2.01-.88-2.86-.63-1.73-1.19-3.03-1.66-3.93-.46-.89-.78-1.35-.78-1.35,0,0-.04,1.37,0,3.39.05,1.02.12,2.2.21,3.45Z"/>
      <path class="cls-1" d="M6.77,52.29c.4,1.82,1.08,3.01,1.97,3.08.73-6.09.52-10.77,0-14.17-.26-1.69-.61-3.04-.86-3.94-.26-.91-.48-1.4-.48-1.4,0,0-.06.3-.17.83-.11.52-.25,1.27-.38,2.19-.13.92-.29,1.98-.4,3.12-.1,1.15-.18,2.37-.22,3.59-.02,1.23.02,2.45.09,3.59.07,1.14.26,2.22.46,3.12Z"/>
      <path class="cls-1" d="M13.59,38.38c1.75-5.19,2.36-9.39,2.43-12.55.05-1.55-.04-2.84-.14-3.73-.09-.87-.2-1.36-.2-1.36,0,0-.1.24-.29.68-.17.45-.41,1.08-.69,1.85-.57,1.51-1.19,3.63-1.68,5.76-.22,1.08-.4,2.17-.53,3.2-.13,1.02-.15,2.02-.13,2.88.05,1.72.44,2.97,1.24,3.28Z"/>
      <path class="cls-1" d="M25.94,13.15c.62-2.7.52-4.57.52-4.57,0,0-.54.78-1.29,1.97-.38.58-.8,1.31-1.21,2.1-.41.8-.86,1.62-1.24,2.51-.38.9-.73,1.8-1.02,2.67-.29.86-.48,1.73-.61,2.5-.25,1.53-.13,2.72.53,3.22,2.49-4.07,3.75-7.6,4.32-10.4Z"/>
      <path class="cls-1" d="M34.33,9.62c.59-.69,1.12-1.36,1.57-2.04.45-.69.84-1.34,1.19-1.94.35-.62.63-1.22.88-1.79.48-1.15.8-2.06.98-2.76.18-.68.23-1.09.23-1.09,0,0-.61.52-1.48,1.35-.84.89-1.96,2.05-2.93,3.4-.49.67-.95,1.37-1.36,2.04-.4.68-.73,1.39-.97,2.01-.48,1.28-.59,2.34-.09,2.96.75-.7,1.4-1.4,1.98-2.12Z"/>
      <path class="cls-1" d="M59.09,136.67c.43.83.97,1.75,1.65,2.64.68.89,1.49,1.89,2.46,2.73.49.43,1.01.87,1.58,1.3.57.41,1.17.77,1.83,1.14,2.6,1.42,5.92,2.4,9.8,2.13.03-1.81-1.36-3.36-3.28-4.68-.97-.72-2.07-1.37-3.23-2.04-1.16-.71-2.36-1.31-3.54-2.02-1.18-.63-2.33-1.35-3.39-1.95-1.06-.65-2.03-1.24-2.85-1.76-.81-.56-1.48-.97-1.94-1.27-.46-.33-.73-.51-.73-.51,0,0,.16.8.64,2.09.24.63.56,1.36.99,2.19Z"/>
      <path class="cls-1" d="M57.53,138.63c-.48-.48-.97-.98-1.47-1.45-.5-.47-1-.92-1.49-1.42-.49-.48-.98-.94-1.46-1.39-.48-.47-.94-.93-1.38-1.37-.9-.84-1.68-1.73-2.37-2.4-1.36-1.44-2.23-2.36-2.23-2.36,0,0,.02.77.26,2.07.24,1.28.69,3.14,1.65,5.18.24.51.5,1.05.81,1.59.31.52.65,1.06,1.03,1.6.75,1.12,1.67,2.16,2.76,3.21,2.18,2.02,5.1,3.86,8.77,4.75.18-.83.02-1.68-.39-2.56-.41-.89-1.04-1.79-1.82-2.68-.78-.88-1.68-1.88-2.65-2.77Z"/>
      <path class="cls-1" d="M15.93,73.49c-.61.59-1.43,1.53-2.26,2.95-.76,1.41-1.58,3.3-1.99,5.75-.11.61-.22,1.26-.28,1.93-.05.67-.09,1.38-.1,2.12-.06,1.49.12,3.08.34,4.81,1.02-.04,1.75-1.35,2.29-3.16.26-.9.53-1.95.76-3.05.22-1.14.44-2.28.65-3.39.1-.58.2-1.14.28-1.69.1-.56.21-1.1.31-1.62.19-1.04.34-2,.52-2.81.16-.82.28-1.49.36-1.96.09-.47.15-.74.15-.74,0,0-.11.06-.29.2-.19.13-.45.35-.75.65Z"/>
      <path class="cls-1" d="M16.63,58.94c-.66.37-1.62.99-2.57,2.06-.48.53-.99,1.17-1.48,1.93-.47.76-.93,1.65-1.36,2.69-.42,1.03-.76,2.2-1.06,3.52-.26,1.33-.46,2.79-.52,4.4.47.13.93-.05,1.36-.45.44-.39.89-1,1.3-1.74.81-1.47,1.64-3.47,2.4-5.39.41-.96.75-1.93,1.11-2.82.37-.88.69-1.7.95-2.4.59-1.38.95-2.3.95-2.3,0,0-.42.12-1.08.49Z"/>
      <path class="cls-1" d="M19.96,44.98c-.69.15-1.62.49-2.68,1.18-1.1.67-2.25,1.75-3.4,3.35-.54.82-1.08,1.77-1.58,2.85-.45,1.12-.93,2.35-1.25,3.77.82.5,1.77-.12,2.81-1.19.52-.54,1.01-1.21,1.56-1.92.54-.71,1.07-1.48,1.58-2.25,2.17-3.18,4.06-5.95,4.06-5.95,0,0-.4,0-1.09.15Z"/>
      <path class="cls-1" d="M25.37,33.83c.43-.4.79-.74,1.04-.96.25-.23.4-.35.4-.35,0,0-.37-.11-1.02-.15-.63-.02-1.54.03-2.64.35-2.14.66-5.12,2.52-7.37,7.17.32.33.73.43,1.19.37.47-.07,1-.3,1.56-.63.57-.33,1.13-.8,1.75-1.28.62-.48,1.23-1.02,1.82-1.57,1.24-1.05,2.37-2.17,3.26-2.94Z"/>
      <path class="cls-1" d="M29.78,24.72c.63-.33,1.28-.62,1.86-.93.58-.31,1.11-.6,1.58-.82.93-.46,1.52-.8,1.52-.8,0,0-1.24-.75-3.33-.77-2.03.05-5.03.88-7.86,4.34.46.76,1.4.82,2.52.53.57-.14,1.15-.4,1.8-.66.64-.26,1.29-.57,1.92-.9Z"/>
      <path class="cls-1" d="M37.74,15.6c.61-.05,1.25-.15,1.87-.26.61-.13,1.25-.22,1.82-.33.57-.11,1.1-.23,1.55-.32.92-.15,1.51-.29,1.51-.29,0,0-.25-.24-.73-.56-.48-.3-1.21-.75-2.13-.98-.46-.12-.98-.22-1.55-.26-.57-.05-1.19-.05-1.84.07-.65.11-1.36.29-2.1.58-.72.32-1.48.74-2.27,1.27.28.79,1.11,1.11,2.15,1.16.53.03,1.1-.03,1.71-.09Z"/>
      <path class="cls-1" d="M129.59,158.43c-.53-.43-1.19-.93-1.96-1.45-.77-.53-1.67-1.06-2.67-1.67-1.01-.6-2.13-1.13-3.35-1.75-.62-.3-1.26-.59-1.92-.86-.67-.3-1.36-.61-2.08-.88-2.12-.84-4.47-1.6-7.1-2.34,6.6-.14,13.09-.77,17.05-1.92,25.39-7.36,45.63-34.96,48.66-67.6,1.5-16.13-.96-32.36-7.86-45.74-5.77-11.19-14.51-19.67-24.03-25.8-.13-.21-.25-.41-.41-.61-.27-.3-.57-.61-.9-.9-.66-.59-1.45-1.19-2.34-1.68-.88-.5-1.83-1-2.83-1.35-.18-.07-.37-.14-.55-.21-.68-.2-1.79-.54-2.47-.74-.5-.12-.99-.23-1.47-.35-.48-.08-.95-.14-1.41-.21-.9-.12-1.71-.23-2.41-.23-1.4-.05-2.28-.05-2.28-.05,0,0,.82.35,2.09.85.64.23,1.39.58,2.21.93.41.17.84.35,1.28.52.44.2.89.41,1.34.62.47.2.93.4,1.4.6.46.23.94.45,1.41.66.47.2.94.4,1.4.61.46.21.92.42,1.37.59.91.35,1.77.69,2.57.93.46.12.9.21,1.32.27.56.37,1.13.74,1.68,1.12,11.79,8.11,21.72,21.23,26.47,37.34,4.88,16.52,5.41,36.06-1.2,52.34-.86,2.13-1.77,4.15-2.69,6.12.05-.16.11-.32.15-.48.24-.81.39-1.63.54-2.41.31-1.55.39-3.02.42-4.37.01-2.7-.39-4.9-.96-6.63-.28-.86-.57-1.6-.87-2.22-.32-.63-.62-1.15-.88-1.55-.53-.81-.91-1.19-.91-1.19,0,0,.01,1.16.03,2.97,0,.89,0,1.94,0,3.09-.04,1.13-.01,2.38-.03,3.61-.02,2.5-.05,5.08.16,7.16.17,1.89.58,3.39,1.45,3.91-1.81,3.67-3.72,7.04-5.71,10.14.62-1.57,1.05-3.08,1.35-4.5.27-1.41.4-2.73.46-3.92.02-1.22-.04-2.33-.14-3.29-.23-1.96-.71-3.47-1.08-4.45-.19-.49-.36-.88-.5-1.13-.13-.26-.21-.39-.21-.39,0,0-.01.08-.04.22-.02.15-.05.36-.11.62-.1.54-.24,1.3-.39,2.24-.14.95-.39,2-.59,3.21-.22,1.19-.51,2.43-.73,3.75-.28,1.27-.52,2.61-.75,3.88-.25,1.25-.41,2.5-.52,3.6-.19,1.8-.1,3.3.46,4.21-2.31,3.17-4.72,6.01-7.21,8.55,1.01-1.51,1.82-3.03,2.43-4.48.54-1.39.96-2.69,1.23-3.94.26-1.26.43-2.41.5-3.46.11-2.15-.03-3.79-.26-4.96-.21-1.16-.44-1.8-.44-1.8,0,0-.11.31-.3.84-.18.55-.48,1.28-.82,2.2-.18.45-.35.97-.56,1.49-.21.51-.43,1.07-.66,1.65-.44,1.19-.98,2.37-1.47,3.66-.52,1.26-1.04,2.55-1.52,3.8-.5,1.21-.91,2.47-1.25,3.58-.57,1.88-.77,3.54-.31,4.66-3.1,2.74-6.32,5.05-9.61,6.96,1.88-1.52,3.4-3.22,4.56-4.92,1.66-2.51,2.64-4.99,3.18-7.14.27-1.09.44-2.07.54-2.94.1-.87.12-1.65.13-2.28,0-1.26-.11-1.97-.11-1.97,0,0-.17.27-.46.75-.3.49-.7,1.22-1.24,2.03-.52.83-1.13,1.84-1.82,2.87-.67,1.09-1.44,2.18-2.19,3.35-.37.59-.77,1.13-1.15,1.72-.37.57-.74,1.16-1.12,1.73-.74,1.11-1.41,2.28-1.98,3.31-.57,1.04-1,2.05-1.21,2.98-.18.77-.2,1.46-.01,2.08-13.89,7.04-28.97,7.72-42.98,4.6h-.73c-14.01,3.13-29.07,2.44-42.96-4.6.19-.62.17-1.31-.01-2.08-.21-.93-.64-1.93-1.21-2.98-.57-1.03-1.23-2.2-1.98-3.31-.38-.57-.75-1.16-1.12-1.73-.38-.59-.78-1.12-1.15-1.72-.75-1.16-1.52-2.26-2.19-3.35-.69-1.03-1.3-2.04-1.82-2.87-.53-.82-.94-1.54-1.24-2.03-.3-.48-.46-.75-.46-.75,0,0-.11.71-.11,1.97,0,.63.03,1.41.13,2.28.11.86.27,1.85.54,2.94.54,2.15,1.51,4.63,3.18,7.14,1.16,1.7,2.68,3.4,4.56,4.92-3.29-1.92-6.51-4.22-9.61-6.96.46-1.13.26-2.78-.31-4.66-.34-1.1-.76-2.36-1.25-3.58-.48-1.25-1-2.54-1.52-3.8-.49-1.29-1.03-2.47-1.47-3.66-.23-.58-.45-1.13-.66-1.65-.21-.52-.38-1.04-.56-1.49-.34-.91-.64-1.65-.82-2.2-.19-.53-.3-.84-.3-.84,0,0-.22.63-.44,1.8-.23,1.17-.37,2.81-.26,4.96.08,1.05.24,2.2.5,3.46.27,1.25.7,2.54,1.23,3.94.61,1.45,1.42,2.97,2.43,4.48-2.49-2.54-4.9-5.37-7.21-8.55.56-.91.66-2.42.46-4.21-.11-1.11-.28-2.35-.52-3.6-.23-1.28-.47-2.61-.75-3.88-.22-1.32-.51-2.57-.73-3.75-.2-1.21-.45-2.26-.59-3.21-.15-.94-.29-1.7-.39-2.24-.05-.26-.08-.47-.11-.62-.02-.14-.04-.22-.04-.22,0,0-.07.13-.21.39-.13.25-.31.64-.5,1.13-.37.99-.85,2.49-1.08,4.45-.1.97-.16,2.08-.14,3.29.06,1.19.19,2.51.46,3.92.3,1.42.73,2.94,1.35,4.5-2-3.1-3.91-6.47-5.71-10.14.87-.53,1.28-2.02,1.45-3.91.21-2.08.18-4.66.16-7.16-.02-1.24,0-2.49-.03-3.61,0-1.15,0-2.2,0-3.09.02-1.81.03-2.97.03-2.97,0,0-.37.39-.91,1.19-.26.4-.56.91-.88,1.55-.3.62-.59,1.36-.87,2.22-.57,1.73-.97,3.93-.96,6.63.03,1.35.11,2.82.42,4.37.15.78.3,1.59.54,2.41.04.16.11.32.15.48-.92-1.97-1.83-3.99-2.69-6.12-6.61-16.28-6.07-35.81-1.2-52.34,4.76-16.11,14.68-29.23,26.47-37.34.55-.38,1.12-.75,1.68-1.12.42-.06.86-.15,1.32-.27.81-.24,1.66-.59,2.57-.93.45-.17.91-.38,1.37-.59.46-.2.93-.4,1.4-.61.47-.21.94-.43,1.41-.66.47-.2.94-.4,1.4-.6.46-.21.91-.42,1.34-.62.44-.18.87-.36,1.28-.52.82-.35,1.57-.7,2.21-.93,1.28-.5,2.09-.85,2.09-.85,0,0-.88,0-2.28.05-.7,0-1.51.12-2.41.23-.45.07-.92.13-1.41.21-.48.11-.97.23-1.47.35-.68.2-1.79.54-2.47.74-.19.07-.37.14-.55.21-1,.35-1.95.85-2.83,1.35-.89.48-1.68,1.08-2.34,1.68-.34.29-.63.6-.9.9-.16.2-.28.41-.41.61-9.52,6.12-18.26,14.61-24.03,25.8-6.9,13.38-9.36,29.61-7.86,45.74,3.03,32.64,23.27,60.24,48.66,67.6,3.96,1.15,10.45,1.78,17.05,1.92-2.63.74-4.99,1.51-7.1,2.34-.72.27-1.41.58-2.08.88-.67.27-1.31.56-1.92.86-1.22.63-2.34,1.16-3.35,1.75-1.01.61-1.9,1.14-2.67,1.67-.77.52-1.43,1.02-1.96,1.45-1.05.83-1.59,1.39-1.59,1.39,0,0,.42.04,1.17.09.75.02,1.81.02,3.07,0,1.26-.05,2.72-.18,4.26-.4,1.54-.29,3.15-.59,4.72-1.12,1.57-.46,3.1-1.15,4.47-1.85,1.37-.74,2.59-1.59,3.57-2.43,1.65-1.54,2.59-3.11,2.52-4.6,3.88-.01,7.66-.2,10.84-.56,1.07-.12,2.14-.18,3.21-.21l-14.46,13,3.63.55c.44.07.89-.1,1.11-.42l10.81-12.45,9.95,11.74c.22.32.67.49,1.11.42l3.63-.55-13.59-12.29c1.16.03,2.32.09,3.48.22,3.19.36,6.96.54,10.84.56-.06,1.5.88,3.06,2.52,4.6.98.84,2.2,1.69,3.57,2.43,1.37.7,2.9,1.39,4.47,1.85,1.57.53,3.19.83,4.72,1.12,1.54.22,3,.36,4.26.4,1.26.02,2.32.02,3.07,0,.75-.06,1.17-.09,1.17-.09,0,0-.54-.56-1.59-1.39Z"/>
      <path class="cls-1" d="M139.41,149.94c-.52-.13-1.06-.23-1.63-.35-.58-.12-1.18-.24-1.8-.33-1.24-.17-2.6-.37-4.04-.46-2.91-.24-6.19-.23-9.99.02-.09.86.18,1.68.74,2.39.56.71,1.41,1.33,2.49,1.88,1.07.55,2.36.89,3.77,1.22.71.14,1.44.22,2.19.3.76.08,1.53.13,2.3.12.77,0,1.56-.02,2.33-.06.77-.06,1.52-.15,2.26-.25,1.49-.16,2.84-.52,4.04-.78,1.18-.29,2.16-.64,2.85-.85.69-.22,1.08-.38,1.08-.38,0,0-.6-.39-1.73-.88-1.13-.5-2.77-1.06-4.85-1.59Z"/>
      <path class="cls-1" d="M155.33,140.61c-.81-.04-1.72-.04-2.73.01-2.02.11-4.43.39-7.16,1.02-2.75.59-5.81,1.54-9.31,2.88.08.8.48,1.47,1.13,1.96.65.48,1.56.8,2.65.99,1.11.2,2.35.14,3.73.03.68-.06,1.37-.2,2.09-.34.71-.15,1.45-.29,2.16-.53,1.43-.43,2.88-.94,4.2-1.55,1.34-.56,2.56-1.21,3.61-1.8,1.06-.57,1.9-1.14,2.5-1.53.6-.4.94-.63.94-.63,0,0-.62-.2-1.76-.34-.57-.07-1.25-.13-2.05-.16Z"/>
      <path class="cls-1" d="M163.84,127.91c-.94.31-1.97.69-3.03,1.18-1.08.49-2.26,1.01-3.45,1.7-2.46,1.3-5.13,3.02-8.14,5.25.45,1.45,1.94,1.87,4.04,1.59,1.05-.13,2.2-.53,3.46-1.02,1.23-.52,2.51-1.19,3.78-1.96,1.24-.81,2.51-1.64,3.62-2.56.57-.46,1.11-.91,1.62-1.33.51-.43.97-.88,1.41-1.29.87-.81,1.6-1.51,2.07-2.05.48-.53.75-.83.75-.83,0,0-.61-.02-1.68.16-1.06.19-2.64.49-4.47,1.16Z"/>
      <path class="cls-1" d="M176.48,110.19c-.99.42-2.33,1.17-3.95,2.25-.82.53-1.69,1.17-2.59,1.91-.94.72-1.9,1.55-2.91,2.5-2.05,1.86-4.21,4.18-6.6,7.06.67,1.18,2.13,1.15,4.03.29.94-.43,1.95-1.1,3.01-1.89,1.05-.81,2.1-1.8,3.16-2.83,1-1.08,2.02-2.18,2.91-3.32.87-1.14,1.71-2.2,2.35-3.19.65-.98,1.19-1.82,1.57-2.42.19-.29.32-.54.42-.7.09-.17.14-.25.14-.25,0,0-.14.04-.4.13-.26.1-.64.24-1.13.47Z"/>
      <path class="cls-1" d="M180.04,93.24c-.55.51-1.18,1.12-1.83,1.82-1.28,1.43-2.78,3.23-4.31,5.49-.79,1.13-1.53,2.39-2.36,3.75-.41.68-.78,1.42-1.21,2.16-.42.74-.83,1.53-1.24,2.36.83.87,2.18.42,3.77-.89,1.56-1.32,3.31-3.52,4.84-6,.78-1.23,1.45-2.54,2.11-3.79.62-1.25,1.15-2.46,1.61-3.51.47-1.05.77-1.96,1.02-2.59.23-.64.36-1.01.36-1.01,0,0-.51.28-1.32.94-.41.32-.9.75-1.44,1.27Z"/>
      <path class="cls-1" d="M183.92,72.23c-.18.2-.44.5-.77.89-.66.81-1.55,2.03-2.48,3.65-1.97,3.27-4.15,8.03-6,14.9.93.54,2.07-.26,3.29-1.88.63-.81,1.2-1.83,1.77-2.98.29-.57.58-1.18.85-1.81.26-.63.51-1.27.75-1.93.24-.66.48-1.32.7-1.99.21-.66.4-1.33.58-1.97.37-1.29.69-2.52.9-3.58.23-1.07.4-1.97.52-2.6.12-.63.16-1,.16-1,0,0-.1.1-.29.29Z"/>
      <path class="cls-1" d="M176.84,73.5c.47.11.94-.09,1.4-.55.45-.45.87-1.16,1.28-2.06.84-1.79,1.48-4.33,1.93-6.95.2-1.3.39-2.64.5-3.89.1-1.25.16-2.43.21-3.45.04-2.02,0-3.39,0-3.39,0,0-.32.46-.78,1.35-.47.9-1.03,2.21-1.66,3.93-.31.85-.6,1.81-.88,2.86-.31,1.05-.6,2.2-.83,3.44-.25,1.24-.51,2.59-.68,4.03-.21,1.45-.36,3-.49,4.68Z"/>
      <path class="cls-1" d="M177.44,52.29c.2-.91.39-1.98.46-3.12.07-1.14.11-2.36.09-3.59-.04-1.21-.12-2.44-.22-3.59-.11-1.14-.27-2.2-.4-3.12-.13-.92-.27-1.67-.38-2.19-.11-.53-.17-.83-.17-.83,0,0-.22.5-.48,1.4-.25.91-.6,2.26-.86,3.94-.53,3.4-.74,8.08,0,14.17.89-.06,1.57-1.26,1.97-3.08Z"/>
      <path class="cls-1" d="M170.61,38.38c.8-.31,1.19-1.56,1.24-3.28.02-.86,0-1.86-.13-2.88-.13-1.03-.31-2.12-.53-3.2-.49-2.13-1.1-4.25-1.68-5.76-.27-.77-.52-1.41-.69-1.85-.19-.43-.29-.68-.29-.68,0,0-.11.49-.2,1.36-.1.89-.19,2.18-.14,3.73.07,3.17.67,7.37,2.43,12.55Z"/>
      <path class="cls-1" d="M162.58,23.55c.66-.5.78-1.69.53-3.22-.13-.76-.32-1.64-.61-2.5-.29-.87-.64-1.77-1.02-2.67-.38-.89-.83-1.72-1.24-2.51-.41-.79-.83-1.52-1.21-2.1-.75-1.19-1.29-1.97-1.29-1.97,0,0-.1,1.87.52,4.57.57,2.8,1.83,6.32,4.32,10.4Z"/>
      <path class="cls-1" d="M146.23,3.85c.24.57.53,1.17.88,1.79.35.61.75,1.26,1.19,1.94.45.68.97,1.35,1.57,2.04.58.72,1.23,1.42,1.98,2.12.5-.62.39-1.67-.09-2.96-.24-.62-.56-1.33-.97-2.01-.41-.67-.87-1.36-1.36-2.04-.97-1.34-2.1-2.5-2.93-3.4-.87-.83-1.48-1.35-1.48-1.35,0,0,.05.41.23,1.09.18.7.5,1.61.98,2.76Z"/>
      <path class="cls-1" d="M117.59,144.48c.65-.37,1.26-.73,1.83-1.14.57-.43,1.09-.87,1.58-1.3.98-.85,1.78-1.84,2.46-2.73.68-.88,1.22-1.81,1.65-2.64.43-.83.75-1.57.99-2.19.47-1.28.64-2.09.64-2.09,0,0-.26.18-.73.51-.46.3-1.13.72-1.94,1.27-.82.52-1.79,1.11-2.85,1.76-1.05.6-2.2,1.32-3.39,1.95-1.18.7-2.38,1.31-3.54,2.02-1.15.66-2.26,1.31-3.23,2.04-1.92,1.32-3.31,2.87-3.28,4.68,3.88.28,7.2-.71,9.8-2.13Z"/>
      <path class="cls-1" d="M124.02,141.4c-.78.9-1.42,1.8-1.82,2.68-.4.88-.57,1.72-.39,2.56,3.67-.88,6.59-2.72,8.77-4.75,1.09-1.05,2.01-2.1,2.76-3.21.38-.55.72-1.08,1.03-1.6.31-.54.57-1.08.81-1.59.96-2.04,1.42-3.9,1.65-5.18.24-1.3.26-2.07.26-2.07,0,0-.87.92-2.23,2.36-.69.67-1.48,1.57-2.37,2.4-.44.44-.9.9-1.38,1.37-.48.44-.97.91-1.46,1.39-.49.5-.99.95-1.49,1.42-.5.47-.99.97-1.47,1.45-.97.89-1.87,1.89-2.65,2.77Z"/>
      <path class="cls-1" d="M170.53,76.45c-.83-1.42-1.65-2.36-2.26-2.95-.3-.3-.56-.51-.75-.65-.18-.13-.29-.2-.29-.2,0,0,.07.27.15.74.08.47.2,1.14.36,1.96.18.82.33,1.77.52,2.81.1.52.2,1.05.31,1.62.09.55.18,1.11.28,1.69.21,1.1.43,2.24.65,3.39.23,1.1.5,2.15.76,3.05.54,1.81,1.27,3.12,2.29,3.16.23-1.73.4-3.32.34-4.81-.01-.75-.05-1.45-.1-2.12-.06-.67-.17-1.32-.28-1.93-.42-2.44-1.24-4.34-2-5.75Z"/>
      <path class="cls-1" d="M174.56,73.54c-.06-1.61-.26-3.07-.52-4.4-.31-1.32-.64-2.49-1.06-3.52-.43-1.03-.89-1.93-1.36-2.69-.5-.77-1-1.41-1.48-1.93-.95-1.07-1.91-1.69-2.57-2.06-.67-.38-1.08-.49-1.08-.49,0,0,.36.91.95,2.3.26.7.59,1.52.95,2.4.36.88.71,1.85,1.11,2.82.76,1.93,1.6,3.92,2.41,5.39.41.74.86,1.34,1.3,1.74.43.4.89.58,1.36.45Z"/>
      <path class="cls-1" d="M170.33,49.52c-1.15-1.6-2.3-2.68-3.4-3.35-1.07-.69-1.99-1.03-2.68-1.18-.68-.15-1.09-.15-1.09-.15,0,0,1.89,2.77,4.06,5.95.51.77,1.03,1.54,1.58,2.25.55.71,1.03,1.38,1.56,1.92,1.04,1.07,1.99,1.69,2.81,1.19-.33-1.42-.8-2.65-1.25-3.77-.51-1.09-1.05-2.03-1.58-2.85Z"/>
      <path class="cls-1" d="M161.05,32.72c-1.1-.32-2-.38-2.64-.35-.65.04-1.02.15-1.02.15,0,0,.15.12.4.35.25.23.61.56,1.04.96.89.77,2.02,1.89,3.26,2.94.59.55,1.21,1.09,1.82,1.57.62.48,1.18.95,1.75,1.28.56.34,1.09.57,1.56.63.46.07.87-.03,1.19-.37-2.25-4.66-5.23-6.51-7.37-7.17Z"/>
      <path class="cls-1" d="M152.79,21.4c-2.09.02-3.33.77-3.33.77,0,0,.59.33,1.52.8.47.22,1.01.51,1.58.82.57.31,1.23.6,1.86.93.63.33,1.28.64,1.92.9.64.26,1.23.52,1.8.66,1.12.28,2.06.22,2.52-.53-2.84-3.46-5.83-4.29-7.86-4.34Z"/>
      <path class="cls-1" d="M145.96,12.68c-.65-.12-1.27-.13-1.84-.07-.57.05-1.08.14-1.55.26-.92.23-1.65.68-2.13.98-.48.32-.73.56-.73.56,0,0,.59.14,1.51.29.45.09.97.21,1.55.32.57.11,1.21.2,1.82.33.62.11,1.26.21,1.87.26.62.06,1.19.12,1.71.09,1.04-.06,1.87-.37,2.15-1.16-.79-.53-1.55-.95-2.27-1.27-.74-.29-1.44-.46-2.1-.58Z"/>
    </g>
    <path class="cls-2" d="M92.27,138.87c-.27,0-.71-.08-.98-.14-24.36-5.78-46.8-53.05-49.02-110.39-.04-.93.21-1.86.84-2.56.63-.7,1.52-1.09,2.46-1.09h22.67l11.61-10.55h24.52l11.68,10.57,22.6-.03c.93,0,1.83.4,2.46,1.09.63.7.86,1.62.84,2.56-.98,44.31-18.25,100.93-48.73,110.4-.26.08-.66.14-.94.14ZM46.34,28.7c4.3,41.33,11.87,86.73,45.9,105.97,0,0,0,0,0,0,33.76-19.07,41.11-62.71,45.61-105.97h-21.88c-.97,0-1.91-.36-2.63-1.01l-10.54-9.54h-21.42l-10.54,9.54c-.72.65-1.65,1.01-2.62,1.01h-21.88Z"/>
  </g>
  <path class="cls-2" d="M81.78,51.78v-1.75h18.85v1.75h-.88c-2.03,0-3.35.21-3.98.63-.63.42-1.05,1.2-1.26,2.34s-.32,3.86-.32,8.14v25.31c0,4.06.08,6.72.23,7.97s.56,2.19,1.22,2.8c.66.61,1.92.91,3.78.91h1.22v1.75h-18.85v-1.75h1.22c1.76,0,2.98-.28,3.66-.84.68-.56,1.11-1.43,1.29-2.61s.27-3.93.27-8.24v-25.31c0-4.11-.09-6.76-.27-7.95-.18-1.19-.59-2.02-1.22-2.47-.63-.46-1.99-.69-4.07-.69h-.88Z"/>
</svg>